<svg preserveAspectRatio="none" width="100%" height="100%" overflow="visible" style="display: block;" viewBox="0 0 11.1175 6.03087" fill="none" xmlns="http://www.w3.org/2000/svg">
<path id="Vector" fill-rule="evenodd" clip-rule="evenodd" d="M6.04276 5.82267L11.0261 0.562667C11.0709 0.515366 11.1009 0.455956 11.1124 0.391788C11.1238 0.327619 11.1162 0.261508 11.0904 0.201633C11.0647 0.141758 11.0219 0.090746 10.9675 0.0549088C10.913 0.0190715 10.8493 -1.88456e-05 10.7841 1.39602e-08H0.33343C0.268252 -1.88456e-05 0.204498 0.0190715 0.150056 0.0549088C0.0956139 0.090746 0.052873 0.141758 0.027121 0.201633C0.0013689 0.261508 -0.00626432 0.327619 0.00516564 0.391788C0.0165956 0.455956 0.0465872 0.515366 0.0914299 0.562667L5.07476 5.82267C5.13706 5.88843 5.21211 5.94081 5.29532 5.97661C5.37854 6.01241 5.46818 6.03087 5.55876 6.03087C5.64935 6.03087 5.73899 6.01241 5.8222 5.97661C5.90542 5.94081 5.98047 5.88843 6.04276 5.82267Z" fill="var(--fill-0, #8B95A1)"/>
</svg>
