<svg preserveAspectRatio="none" width="100%" height="100%" overflow="visible" style="display: block;" viewBox="0 0 17.9102 11.1943" fill="none" xmlns="http://www.w3.org/2000/svg">
<path id="Cellular Connection" d="M1.99023 6.90332C2.53964 6.90343 2.98528 7.38325 2.98535 7.97559V10.1211C2.98535 10.7135 2.53968 11.1942 1.99023 11.1943H0.995117C0.44558 11.1943 0 10.7136 0 10.1211V7.97559C7.12785e-05 7.38318 0.445624 6.90332 0.995117 6.90332H1.99023ZM6.93359 4.66406C7.48313 4.66406 7.92871 5.15187 7.92871 5.75293V10.1055C7.92871 10.7065 7.48313 11.1943 6.93359 11.1943H5.93945C5.38992 11.1943 4.94434 10.7065 4.94434 10.1055V5.75293C4.94434 5.15187 5.38992 4.66406 5.93945 4.66406H6.93359ZM11.9717 2.23926C12.5211 2.23943 12.9668 2.72008 12.9668 3.31348V10.1191C12.9668 10.7125 12.5211 11.1942 11.9717 11.1943H10.9766C10.427 11.1943 9.98145 10.7126 9.98145 10.1191V3.31348C9.98145 2.71998 10.427 2.23926 10.9766 2.23926H11.9717ZM16.915 0C17.4646 0 17.9102 0.470215 17.9102 1.0498V10.1445C17.9102 10.7241 17.4646 11.1943 16.915 11.1943H15.9199C15.3706 11.1941 14.9258 10.724 14.9258 10.1445V1.0498C14.9258 0.47038 15.3706 0.00026751 15.9199 0H16.915Z" fill="var(--fill-0, white)"/>
</svg>
