<svg preserveAspectRatio="none" width="100%" height="100%" overflow="visible" style="display: block;" viewBox="0 0 191.287 81.5303" fill="none" xmlns="http://www.w3.org/2000/svg">
<g id="9:41 - Glass Effect" filter="url(#filter0_ii_126_34723)">
<path d="M30.1123 0C35 3.7679e-05 39.3561 0.755555 43.1992 2.2666C47.0425 3.77778 50.2988 5.96045 52.9854 8.82422L52.9941 8.80566C55.6807 11.6694 57.7243 15.149 59.1143 19.2441C60.5042 23.3393 61.2031 27.9853 61.2031 33.1719V47.7148C61.2031 54.7483 59.9531 60.7839 57.4531 65.8398C54.9532 70.8956 51.3618 74.7665 46.6885 77.4717C42.015 80.1769 36.3803 81.5303 29.7852 81.5303C24.2629 81.5302 19.496 80.6066 15.4756 78.7783C11.4551 76.95 8.30215 74.4959 5.99805 71.4082C3.78735 68.4512 2.44448 65.1864 1.96875 61.623L1.91211 61.1562C1.80963 60.5969 1.83776 60.1308 1.97754 59.7578C2.11745 59.3847 2.35076 59.0953 2.68652 58.8994C3.02234 58.7035 3.47047 58.6006 4.04883 58.6006H14.8789C15.3078 58.6006 15.6622 58.6567 15.9326 58.7686C16.2031 58.8805 16.4274 59.0578 16.5859 59.291C16.7165 59.4869 16.8378 59.7386 16.9404 60.0557L16.9961 60.252C17.248 61.7631 17.8825 63.1904 18.918 64.543C19.9534 65.8956 21.3995 66.9866 23.2559 67.8262C25.1121 68.6657 27.4159 69.0859 30.1582 69.0859C33.1712 69.0859 35.7091 68.5637 37.752 67.5283C39.7949 66.4929 41.4463 65.0835 42.6963 63.3018C43.9461 61.5202 44.8413 59.5053 45.3916 57.248C45.942 54.9906 46.2129 52.6491 46.2129 50.2051V44.6826L46.0264 44.9346C44.1141 47.4252 41.5672 49.4307 38.377 50.9512C35.0281 52.5463 31.1101 53.3398 26.6045 53.3398C21.39 53.3398 16.7821 52.2477 12.7803 50.0742C8.77841 47.9007 5.6432 44.8882 3.38574 41.0449C1.12831 37.2017 0 32.8169 0 27.8916V26.8848C0 21.5956 1.24091 16.9312 3.71289 12.9014C6.18482 8.87165 9.67333 5.70926 14.1787 3.42383C18.6843 1.13838 23.9929 0 30.1123 0ZM142.696 1.35254C143.228 1.35257 143.647 1.42745 143.974 1.58594C144.3 1.74449 144.534 1.97731 144.692 2.30371C144.851 2.6302 144.926 3.05031 144.926 3.58203V53.0693H153.041C153.554 53.0693 153.974 53.1529 154.301 53.3115L154.31 53.3398C154.636 53.4984 154.879 53.7409 155.037 54.0674C155.196 54.3938 155.28 54.8133 155.28 55.3262V63.3115C155.28 63.8244 155.196 64.2439 155.037 64.5703C154.879 64.8968 154.636 65.1402 154.31 65.2988C153.983 65.4573 153.564 65.541 153.051 65.541H144.935V78.0312C144.935 78.5443 144.851 78.9645 144.692 79.291C144.534 79.6174 144.291 79.86 143.965 80.0186C143.638 80.1771 143.218 80.2607 142.705 80.2607H132.463C131.95 80.2607 131.539 80.1771 131.222 80.0186C130.905 79.86 130.662 79.6169 130.504 79.2998C130.345 78.9827 130.262 78.5631 130.262 78.0596V65.541H93.2744C92.7521 65.541 92.3415 65.4667 92.0244 65.2988C91.7072 65.1309 91.4642 64.8972 91.3057 64.5801C91.1471 64.2629 91.0635 63.843 91.0635 63.3301V54.3096C91.0635 53.7872 91.0911 53.3578 91.1377 53.0127C91.1843 52.6676 91.2879 52.3415 91.4277 52.0244C91.5676 51.7073 91.7725 51.3246 92.043 50.877C93.7034 48.2278 95.3733 45.5692 97.043 42.9014C98.7127 40.2335 100.383 37.5741 102.043 34.9248C103.713 32.2756 105.373 29.6263 107.033 26.9678C108.694 24.3094 110.364 21.6511 112.033 18.9834C113.703 16.3156 115.373 13.6565 117.033 10.998C118.694 8.33946 120.364 5.68104 122.034 3.02246C122.305 2.57498 122.565 2.23904 122.826 2.00586C123.087 1.76344 123.386 1.60457 123.722 1.50195C124.058 1.39934 124.487 1.35254 125.01 1.35254H142.696ZM189.076 1.35254C189.589 1.35254 190.009 1.43614 190.336 1.59473C190.662 1.75327 190.905 1.99591 191.063 2.32227H191.045C191.204 2.64876 191.287 3.06897 191.287 3.58203V78.0127C191.287 78.535 191.212 78.9641 191.054 79.2812C190.904 79.5984 190.662 79.8317 190.345 79.9902C190.028 80.1488 189.608 80.2236 189.076 80.2236L178.517 80.252C178.013 80.2519 177.593 80.1673 177.276 80.0088C176.959 79.8502 176.716 79.6082 176.558 79.291C176.399 78.9739 176.315 78.5535 176.315 78.0498V15.7275L158.135 28.1621C157.696 28.4606 157.304 28.591 156.949 28.5537C156.595 28.5163 156.306 28.3675 156.082 28.0879C155.858 27.8174 155.746 27.4155 155.746 26.8838V17.6309C155.746 17.1178 155.793 16.6977 155.877 16.3525C155.97 16.0074 156.119 15.7085 156.343 15.4473C156.567 15.1861 156.893 14.9063 157.322 14.6172L174.738 2.39746C175.167 2.09895 175.532 1.87484 175.84 1.72559C176.148 1.57642 176.474 1.48271 176.81 1.42676C177.145 1.38012 177.575 1.35254 178.106 1.35254H189.076ZM76.6514 52.1924C78.2182 52.1924 79.6266 52.5558 80.8857 53.2832C82.1356 54.0107 83.1434 54.9997 83.8896 56.2588C84.6359 57.5181 85.0097 58.9643 85.0098 60.4941C85.0098 62.024 84.6359 63.4325 83.8896 64.7012C83.1434 65.9698 82.1451 66.9775 80.8857 67.7051C79.6266 68.4325 78.181 68.7968 76.6514 68.7969C75.1216 68.7969 73.7129 68.4326 72.4443 67.7051C71.1757 66.9775 70.168 65.9792 69.4404 64.7012C68.7129 63.4232 68.3486 62.0613 68.3486 60.4941C68.3487 58.927 68.7128 57.5088 69.4404 56.2588C70.168 55.009 71.1665 54.0107 72.4443 53.2832C73.7222 52.5557 75.0843 52.1924 76.6514 52.1924ZM126.576 18.5908C124.776 21.4639 122.976 24.3374 121.194 27.2012C119.413 30.0743 117.612 32.9384 115.812 35.8115C114.011 38.6846 112.211 41.558 110.41 44.4404C108.61 47.3228 106.819 50.1963 105.037 53.0693H130.513V12.3037C130.505 12.3159 127.973 16.3647 126.576 18.5908ZM30.0186 12.3135C27.0523 12.3135 24.4406 12.8918 22.1553 14.0391C19.87 15.1864 18.0881 16.8189 16.8008 18.9082C15.5135 20.9978 14.8691 23.4799 14.8691 26.3438V27.1172C14.8691 29.9903 15.5135 32.5096 16.8008 34.6738C18.0881 36.8378 19.87 38.5072 22.1553 39.7012C24.4406 40.8951 27.0243 41.4922 30.0186 41.4922C33.013 41.4922 35.6346 40.8952 37.9014 39.7012C40.1679 38.5072 41.9403 36.8284 43.2275 34.6738C44.5149 32.519 45.1582 29.9997 45.1582 27.1172V26.3438C45.1582 23.4799 44.5149 21.0071 43.2275 18.9082C41.9403 16.8095 40.1586 15.1864 37.9014 14.0391C35.6439 12.8917 32.985 12.3135 30.0186 12.3135ZM76.6514 12.6211C78.2183 12.6211 79.6265 12.9854 80.8857 13.7129C82.1357 14.4405 83.1434 15.4292 83.8896 16.6885C84.6359 17.9478 85.0098 19.394 85.0098 20.9238C85.0097 22.4535 84.6359 23.8623 83.8896 25.1309C83.1434 26.3993 82.1449 27.4062 80.8857 28.1338C79.6265 28.8613 78.1811 29.2255 76.6514 29.2256C75.1215 29.2256 73.713 28.8614 72.4443 28.1338C71.1758 27.4062 70.168 26.4087 69.4404 25.1309C68.7129 23.853 68.3487 22.4908 68.3486 20.9238C68.3486 19.3567 68.7128 17.9385 69.4404 16.6885C70.168 15.4385 71.1664 14.4405 72.4443 13.7129C73.7223 12.9853 75.0842 12.6211 76.6514 12.6211Z" fill="url(#paint0_linear_126_34723)" fill-opacity="0.5"/>
</g>
<defs>
<filter id="filter0_ii_126_34723" x="-2" y="-2" width="193.287" height="85.5303" filterUnits="userSpaceOnUse" color-interpolation-filters="sRGB">
<feFlood flood-opacity="0" result="BackgroundImageFix"/>
<feBlend mode="normal" in="SourceGraphic" in2="BackgroundImageFix" result="shape"/>
<feColorMatrix in="SourceAlpha" type="matrix" values="0 0 0 0 0 0 0 0 0 0 0 0 0 0 0 0 0 0 127 0" result="hardAlpha"/>
<feOffset dy="2"/>
<feGaussianBlur stdDeviation="1"/>
<feComposite in2="hardAlpha" operator="arithmetic" k2="-1" k3="1"/>
<feColorMatrix type="matrix" values="0 0 0 0 1 0 0 0 0 1 0 0 0 0 1 0 0 0 0.5 0"/>
<feBlend mode="normal" in2="shape" result="effect1_innerShadow_126_34723"/>
<feColorMatrix in="SourceAlpha" type="matrix" values="0 0 0 0 0 0 0 0 0 0 0 0 0 0 0 0 0 0 127 0" result="hardAlpha"/>
<feOffset dx="-2" dy="-2"/>
<feGaussianBlur stdDeviation="1"/>
<feComposite in2="hardAlpha" operator="arithmetic" k2="-1" k3="1"/>
<feColorMatrix type="matrix" values="0 0 0 0 0 0 0 0 0 0 0 0 0 0 0 0 0 0 0.05 0"/>
<feBlend mode="normal" in2="effect1_innerShadow_126_34723" result="effect2_innerShadow_126_34723"/>
</filter>
<linearGradient id="paint0_linear_126_34723" x1="16.0821" y1="8.22364" x2="196.582" y2="85.7236" gradientUnits="userSpaceOnUse">
<stop stop-color="white"/>
<stop offset="1" stop-color="white" stop-opacity="0.5"/>
</linearGradient>
</defs>
</svg>
