<svg preserveAspectRatio="none" width="100%" height="100%" overflow="visible" style="display: block;" viewBox="0 0 20 20" fill="none" xmlns="http://www.w3.org/2000/svg">
<g id="icon-appsintoss-close-mono">
<path id="Vector" fill-rule="evenodd" clip-rule="evenodd" d="M11.6565 10.0001L16.8457 4.81075C16.9482 4.70842 17.0294 4.58694 17.0848 4.45322C17.1403 4.31952 17.1688 4.17619 17.1688 4.03144C17.1689 3.88669 17.1404 3.74335 17.0851 3.60961C17.0297 3.47586 16.9486 3.35432 16.8462 3.25194C16.7439 3.14956 16.6224 3.06833 16.4888 3.0129C16.355 2.95747 16.2117 2.92892 16.0669 2.92887C15.9222 2.92883 15.7788 2.9573 15.6451 3.01265C15.5113 3.06801 15.3898 3.14916 15.2874 3.25148L10.0982 8.44167L4.90793 3.25148C4.69888 3.05623 4.42216 2.94984 4.13615 2.95476C3.85015 2.95967 3.57724 3.07552 3.37504 3.27785C3.17283 3.48017 3.05715 3.75314 3.0524 4.03915C3.04765 4.32516 3.1542 4.60182 3.34958 4.81075L8.53975 10.0001L3.34958 15.1893C3.19618 15.3438 3.09188 15.5402 3.0498 15.7537C3.00771 15.9673 3.02972 16.1886 3.11304 16.3897C3.19637 16.5907 3.3373 16.7627 3.51811 16.884C3.69892 17.0052 3.91153 17.0702 4.12921 17.0709C4.41113 17.0709 4.69305 16.9635 4.90793 16.7486L10.0982 11.5584L15.2874 16.7486C15.3897 16.8512 15.5111 16.9325 15.6448 16.988C15.7785 17.0435 15.9218 17.0721 16.0666 17.0721C16.2114 17.0721 16.3548 17.0435 16.4884 16.988C16.6222 16.9325 16.7436 16.8512 16.8457 16.7486C16.9482 16.6462 17.0295 16.5247 17.085 16.3909C17.1404 16.2572 17.169 16.1137 17.169 15.969C17.169 15.8242 17.1404 15.6807 17.085 15.547C17.0295 15.4132 16.9482 15.2917 16.8457 15.1893L11.6565 10.0001Z" fill="var(--fill-0, #00132B)" fill-opacity="0.58"/>
</g>
</svg>
