<svg preserveAspectRatio="none" width="100%" height="100%" overflow="visible" style="display: block;" viewBox="0 0 20 20" fill="none" xmlns="http://www.w3.org/2000/svg">
<g id="icon-dots-mono">
<path id="Vector" fill-rule="evenodd" clip-rule="evenodd" d="M4.35872 11.6667C4.1398 11.6666 3.92303 11.6235 3.72079 11.5396C3.51855 11.4558 3.3348 11.333 3.18004 11.1781C3.02528 11.0233 2.90253 10.8395 2.8188 10.6372C2.73507 10.4349 2.692 10.2181 2.69206 9.99919C2.69211 9.78026 2.73529 9.56349 2.81912 9.36125C2.90295 9.15901 3.02579 8.97527 3.18063 8.8205C3.33547 8.66574 3.51928 8.54299 3.72156 8.45926C3.92384 8.37553 4.14063 8.33246 4.35956 8.33252C4.8017 8.33263 5.22568 8.50837 5.53824 8.82109C5.8508 9.13381 6.02633 9.55788 6.02622 10C6.02611 10.4422 5.85037 10.8661 5.53765 11.1787C5.22493 11.4913 4.80086 11.6668 4.35872 11.6667ZM10.0012 11.6667C9.5592 11.6667 9.13527 11.4911 8.82271 11.1785C8.51015 10.866 8.33456 10.442 8.33456 10C8.33456 9.55799 8.51015 9.13407 8.82271 8.82151C9.13527 8.50895 9.5592 8.33335 10.0012 8.33335C10.4433 8.33335 10.8672 8.50895 11.1797 8.82151C11.4923 9.13407 11.6679 9.55799 11.6679 10C11.6679 10.442 11.4923 10.866 11.1797 11.1785C10.8672 11.4911 10.4433 11.6667 10.0012 11.6667ZM15.6429 11.6667C15.424 11.6666 15.2072 11.6235 15.005 11.5396C14.8027 11.4558 14.619 11.333 14.4642 11.1781C14.3094 11.0233 14.1867 10.8395 14.103 10.6372C14.0192 10.4349 13.9762 10.2181 13.9762 9.99919C13.9763 9.78026 14.0195 9.56349 14.1033 9.36125C14.1871 9.15901 14.31 8.97527 14.4648 8.8205C14.6196 8.66574 14.8034 8.54299 15.0057 8.45926C15.208 8.37553 15.4248 8.33246 15.6437 8.33252C16.0859 8.33263 16.5098 8.50837 16.8224 8.82109C17.135 9.13381 17.3105 9.55788 17.3104 10C17.3103 10.4422 17.1345 10.8661 16.8218 11.1787C16.5091 11.4913 16.085 11.6668 15.6429 11.6667Z" fill="var(--fill-0, #00132B)" fill-opacity="0.58"/>
</g>
</svg>
