<svg preserveAspectRatio="none" width="100%" height="100%" overflow="visible" style="display: block;" viewBox="0 0 18 18" fill="none" xmlns="http://www.w3.org/2000/svg">
<g id="icon-home-mono">
<path id="Vector" fill-rule="evenodd" clip-rule="evenodd" d="M15.8016 6.15314L9.46631 1.11539C9.33376 1.00976 9.16929 0.95224 8.99981 0.95224C8.83032 0.95224 8.66585 1.00976 8.53331 1.11539L2.19731 6.15314C2.02072 6.2936 1.8781 6.47209 1.78006 6.67531C1.68201 6.87854 1.63108 7.10126 1.63106 7.32689V14.3904C1.63106 14.8678 1.8207 15.3256 2.15827 15.6632C2.49583 16.0008 2.95367 16.1904 3.43106 16.1904H7.49981V12.6264C7.49981 12.4275 7.57883 12.2367 7.71948 12.0961C7.86013 11.9554 8.0509 11.8764 8.24981 11.8764H9.74981C9.94872 11.8764 10.1395 11.9554 10.2801 12.0961C10.4208 12.2367 10.4998 12.4275 10.4998 12.6264V16.1904H14.5678C15.0452 16.1904 15.503 16.0008 15.8406 15.6632C16.1782 15.3256 16.3678 14.8678 16.3678 14.3904V7.32764C16.3678 7.10201 16.3169 6.87928 16.2188 6.67606C16.1208 6.47284 15.9781 6.2936 15.8016 6.15314Z" fill="var(--fill-0, #031832)" fill-opacity="0.46"/>
</g>
</svg>
