<svg preserveAspectRatio="none" width="100%" height="100%" overflow="visible" style="display: block;" viewBox="0 0 15.9902 11.2872" fill="none" xmlns="http://www.w3.org/2000/svg">
<path id="Wifi" d="M5.74903 8.42684C7.04572 7.22393 8.94448 7.22402 10.2412 8.42684C10.3064 8.49147 10.3448 8.58247 10.3467 8.67879C10.3485 8.77525 10.3138 8.86903 10.251 8.93661L8.22071 11.1837C8.16119 11.2497 8.07979 11.2872 7.99512 11.2872C7.91052 11.2871 7.82901 11.2497 7.76954 11.1837L5.73926 8.93661C5.67653 8.86898 5.6417 8.77525 5.64356 8.67879C5.64549 8.58249 5.68386 8.49143 5.74903 8.42684ZM2.92383 5.74715C5.78189 3.10041 10.2084 3.10041 13.0664 5.74715C13.1308 5.80915 13.168 5.89429 13.1689 5.98348C13.1699 6.0728 13.1345 6.15938 13.0713 6.22274L11.8701 7.43075C11.7465 7.55365 11.5468 7.55624 11.4199 7.43661C10.4814 6.59054 9.26025 6.12113 7.99415 6.12118C6.72883 6.1217 5.50824 6.59107 4.57032 7.43661C4.44343 7.55617 4.24374 7.55371 4.12012 7.43075L2.91993 6.22274C2.85656 6.15947 2.82142 6.07283 2.82227 5.98348C2.82321 5.89434 2.85946 5.80912 2.92383 5.74715ZM0.10059 3.00399C4.51385 -1.00133 11.4764 -1.00133 15.8897 3.00399C15.9535 3.06349 15.9897 3.14476 15.9902 3.22958C15.9907 3.3143 15.9556 3.39602 15.8926 3.45614L14.6826 4.61239C14.558 4.73104 14.3552 4.73299 14.2285 4.61629C12.5472 3.10253 10.316 2.2581 7.9961 2.2579C5.6758 2.25789 3.44338 3.10233 1.76172 4.61629C1.63516 4.73298 1.43309 4.73115 1.3086 4.61239L0.0976608 3.45614C0.0346743 3.39599 -0.000458528 3.31427 4.51979e-06 3.22958C0.000593121 3.14485 0.0368428 3.06343 0.10059 3.00399Z" fill="var(--fill-0, white)"/>
</svg>
