<svg width="24" height="24" viewBox="0 0 24 24" fill="none" xmlns="http://www.w3.org/2000/svg">
<g clip-path="url(#clip0_180_6149)">
<path fill-rule="evenodd" clip-rule="evenodd" d="M14.28 16.78H8.254C8.04159 16.7801 7.83307 16.723 7.65035 16.6146C7.46762 16.5063 7.31743 16.3508 7.21555 16.1644C7.11366 15.9781 7.06384 15.7677 7.07131 15.5554C7.07878 15.3431 7.14326 15.1368 7.258 14.958L10.27 10.263C10.3769 10.096 10.5241 9.95855 10.6981 9.86335C10.8721 9.76816 11.0672 9.71826 11.2655 9.71826C11.4638 9.71826 11.6589 9.76816 11.8329 9.86335C12.0069 9.95855 12.1541 10.096 12.261 10.263L15.274 14.958C15.3884 15.1368 15.4526 15.3431 15.4599 15.5553C15.4672 15.7674 15.4173 15.9777 15.3155 16.1639C15.2137 16.3502 15.0636 16.5057 14.8811 16.614C14.6986 16.7224 14.4903 16.7797 14.278 16.78M19.286 2.25H4.713C4.05977 2.25 3.4333 2.50949 2.9714 2.9714C2.50949 3.4333 2.25 4.05977 2.25 4.713V19.287C2.25 19.9402 2.50949 20.5667 2.9714 21.0286C3.4333 21.4905 4.05977 21.75 4.713 21.75H19.287C19.9402 21.75 20.5667 21.4905 21.0286 21.0286C21.4905 20.5667 21.75 19.9402 21.75 19.287V4.713C21.75 4.05977 21.4905 3.4333 21.0286 2.9714C20.5667 2.50949 19.9402 2.25 19.287 2.25" fill="#E2E5E8"/>
<path fill-rule="evenodd" clip-rule="evenodd" d="M14.28 16.78H8.25398C8.04157 16.7801 7.83305 16.723 7.65033 16.6146C7.46761 16.5063 7.31742 16.3508 7.21553 16.1644C7.11364 15.9781 7.06382 15.7677 7.07129 15.5554C7.07876 15.3431 7.14325 15.1368 7.25798 14.958L10.27 10.263C10.3769 10.096 10.5241 9.95855 10.6981 9.86335C10.8721 9.76816 11.0672 9.71826 11.2655 9.71826C11.4638 9.71826 11.6589 9.76816 11.8329 9.86335C12.0068 9.95855 12.1541 10.096 12.261 10.263L15.274 14.958C15.3884 15.1368 15.4526 15.3431 15.4599 15.5553C15.4672 15.7674 15.4173 15.9777 15.3155 16.1639C15.2137 16.3502 15.0636 16.5057 14.8811 16.614C14.6986 16.7224 14.4903 16.7797 14.278 16.78" fill="#15C07E"/>
<path fill-rule="evenodd" clip-rule="evenodd" d="M16.0029 10.381C15.605 10.3809 15.2234 10.2227 14.9421 9.94116C14.6608 9.65967 14.5028 9.27796 14.5029 8.88001C14.5031 8.48205 14.6613 8.10044 14.9428 7.81914C15.2243 7.53783 15.606 7.37987 16.0039 7.38C16.201 7.38007 16.3961 7.41895 16.5781 7.49441C16.7601 7.56988 16.9255 7.68046 17.0648 7.81984C17.2041 7.95923 17.3146 8.12468 17.3899 8.30675C17.4652 8.48882 17.504 8.68396 17.5039 8.881C17.5039 9.07805 17.465 9.27316 17.3895 9.45518C17.3141 9.63721 17.2035 9.80258 17.0641 9.94187C16.9247 10.0812 16.7593 10.1916 16.5772 10.267C16.3951 10.3423 16.2 10.3811 16.0029 10.381Z" fill="#4E5968"/>
</g>
<defs>
<clipPath id="clip0_180_6149">
<rect width="24" height="24" rx="5" fill="white"/>
</clipPath>
</defs>
</svg>
