<svg width="24" height="24" viewBox="0 0 24 24" fill="none" xmlns="http://www.w3.org/2000/svg">
<g clip-path="url(#clip0_180_6140)">
<g clip-path="url(#clip1_180_6140)">
<path fill-rule="evenodd" clip-rule="evenodd" d="M19.6799 5.71859H16.8989L15.8495 3.67859C15.6832 3.35491 15.4309 3.08332 15.1204 2.89364C14.8098 2.70396 14.453 2.60354 14.0891 2.60339H9.93109C9.55996 2.60348 9.19633 2.70788 8.88167 2.90467C8.56701 3.10147 8.314 3.38274 8.15149 3.71639L7.17529 5.71859H4.39129C3.76166 5.71875 3.15787 5.96894 2.71265 6.41416C2.26744 6.85937 2.01725 7.46317 2.01709 8.09279V19.0248C2.01709 19.6545 2.26721 20.2585 2.71244 20.7038C3.15767 21.1492 3.76156 21.3994 4.39129 21.3996H19.6799C20.3097 21.3996 20.9138 21.1494 21.3591 20.704C21.8045 20.2587 22.0547 19.6546 22.0547 19.0248V8.09279C22.0545 7.46306 21.8043 6.85918 21.3589 6.41394C20.9136 5.96871 20.3096 5.71859 19.6799 5.71859Z" fill="#4E5968"/>
<path d="M12.0366 16.8756C11.289 16.8756 10.5582 16.6539 9.93654 16.2386C9.31492 15.8232 8.83043 15.2329 8.54433 14.5422C8.25823 13.8515 8.18337 13.0914 8.32923 12.3582C8.47508 11.6249 8.83509 10.9514 9.36373 10.4228C9.89237 9.89411 10.5659 9.5341 11.2992 9.38825C12.0324 9.24239 12.7924 9.31725 13.4831 9.60335C14.1738 9.88945 14.7642 10.3739 15.1795 10.9956C15.5949 11.6172 15.8166 12.348 15.8166 13.0956C15.8152 14.0977 15.4165 15.0583 14.7079 15.7669C13.9993 16.4755 13.0387 16.8742 12.0366 16.8756Z" stroke="#333D4B" stroke-width="2.5" stroke-miterlimit="10"/>
<path d="M20.52 10.0728L18.9372 9.5454L19.683 8.0526C19.6967 8.02523 19.7014 7.99425 19.6965 7.96405C19.6916 7.93385 19.6774 7.90596 19.6557 7.88432C19.6341 7.86269 19.6062 7.84841 19.576 7.8435C19.5458 7.8386 19.5148 7.84332 19.4874 7.857L17.9952 8.6034L17.4672 7.0206C17.4576 6.99158 17.439 6.96635 17.4142 6.94846C17.3893 6.93058 17.3595 6.92096 17.3289 6.92096C17.2983 6.92096 17.2685 6.93058 17.2437 6.94846C17.2189 6.96635 17.2003 6.99158 17.1906 7.0206L16.6632 8.6034L15.171 7.86C15.1437 7.84632 15.1127 7.8416 15.0825 7.8465C15.0523 7.85141 15.0244 7.86569 15.0028 7.88732C14.9811 7.90896 14.9668 7.93685 14.9619 7.96705C14.957 7.99725 14.9618 8.02823 14.9754 8.0556L15.72 9.5454L14.1372 10.0728C14.1082 10.0825 14.083 10.1011 14.0651 10.1259C14.0472 10.1507 14.0376 10.1805 14.0376 10.2111C14.0376 10.2417 14.0472 10.2715 14.0651 10.2963C14.083 10.3211 14.1082 10.3397 14.1372 10.3494L15.72 10.8774L14.9736 12.3696C14.96 12.397 14.9552 12.4279 14.9601 12.4581C14.965 12.4883 14.9793 12.5162 15.001 12.5379C15.0226 12.5595 15.0505 12.5738 15.0807 12.5787C15.1109 12.5836 15.1419 12.5789 15.1692 12.5652L16.6638 11.82L17.1912 13.4028C17.2009 13.4318 17.2195 13.4571 17.2443 13.4749C17.2691 13.4928 17.2989 13.5024 17.3295 13.5024C17.3601 13.5024 17.3899 13.4928 17.4148 13.4749C17.4396 13.4571 17.4582 13.4318 17.4678 13.4028L17.9958 11.82L19.488 12.5658C19.5154 12.5795 19.5464 12.5842 19.5766 12.5793C19.6068 12.5744 19.6347 12.5601 19.6563 12.5385C19.678 12.5168 19.6922 12.4889 19.6971 12.4587C19.702 12.4285 19.6973 12.3976 19.6836 12.3702L18.9378 10.878L20.5206 10.35C20.5499 10.3404 20.5753 10.3218 20.5933 10.2969C20.6113 10.2719 20.621 10.2419 20.6209 10.2112C20.6208 10.1804 20.611 10.1505 20.5929 10.1256C20.5748 10.1008 20.5493 10.0823 20.52 10.0728Z" fill="#FFC84D"/>
</g>
</g>
<defs>
<clipPath id="clip0_180_6140">
<rect width="24" height="24" rx="5" fill="white"/>
</clipPath>
<clipPath id="clip1_180_6140">
<rect width="24" height="24" fill="white"/>
</clipPath>
</defs>
</svg>
