<svg width="24" height="24" viewBox="0 0 24 24" fill="none" xmlns="http://www.w3.org/2000/svg">
<path fill-rule="evenodd" clip-rule="evenodd" d="M12 17.959C10.6754 17.9577 9.40539 17.4309 8.46874 16.4942C7.5321 15.5576 7.00531 14.2876 7.00399 12.963C7.00531 11.6383 7.53206 10.3682 8.46868 9.43141C9.4053 8.4946 10.6753 7.96759 12 7.966C13.3247 7.96759 14.5947 8.4946 15.5313 9.43141C16.4679 10.3682 16.9947 11.6383 16.996 12.963C16.9947 14.2876 16.4679 15.5576 15.5312 16.4942C14.5946 17.4309 13.3246 17.9577 12 17.959ZM19.728 5.453H16.914L15.854 3.388C15.6858 3.06086 15.4306 2.78642 15.1166 2.59483C14.8026 2.40324 14.4418 2.30192 14.074 2.302H9.87199C9.49672 2.30162 9.12892 2.40682 8.81062 2.60558C8.49231 2.80434 8.23635 3.08865 8.07199 3.426L7.08599 5.453H4.27299C3.63647 5.453 3.02602 5.70586 2.57593 6.15595C2.12584 6.60603 1.87299 7.21648 1.87299 7.853V18.902C1.87299 19.5385 2.12584 20.149 2.57593 20.5991C3.02602 21.0491 3.63647 21.302 4.27299 21.302H19.728C20.3643 21.3017 20.9745 21.0488 21.4244 20.5987C21.8743 20.1486 22.127 19.5384 22.127 18.902V7.852C22.127 7.21548 21.8741 6.60503 21.424 6.15495C20.974 5.70486 20.3635 5.452 19.727 5.452" fill="#4E5968"/>
<path fill-rule="evenodd" clip-rule="evenodd" d="M12 9.76601C11.1525 9.76707 10.34 10.1043 9.74086 10.7036C9.14169 11.303 8.80475 12.1155 8.80396 12.963C8.80475 13.8105 9.14169 14.623 9.74086 15.2224C10.34 15.8217 11.1525 16.1589 12 16.16C12.8473 16.1589 13.6596 15.8219 14.2587 15.2228C14.8578 14.6236 15.1949 13.8113 15.196 12.964C15.1954 12.1164 14.8586 11.3035 14.2594 10.704C13.6602 10.1044 12.8476 9.76707 12 9.76601Z" fill="#4E5968"/>
</svg>
