<svg width="24" height="24" viewBox="0 0 24 24" fill="none" xmlns="http://www.w3.org/2000/svg">
<path d="M18.9659 7.02002L18.2049 3.96002C18.0878 3.54002 17.6195 3.30002 17.2098 3.48002L13.0537 5.58002C12.9951 5.58002 12.9366 5.64002 12.8195 5.64002H11.0049C10.9463 5.64002 10.8293 5.64002 10.7707 5.58002L6.5561 3.48002C6.14634 3.30002 5.67805 3.54002 5.56097 3.96002L4.8 7.02002C3.0439 9.24002 1.69756 11.22 1.69756 13.44C1.69756 18.18 6.26341 21.12 11.9415 21.12C17.6195 21.12 22.1854 18.18 22.1854 13.44C22.1854 11.4 20.6049 9.00002 18.9659 7.02002Z" fill="#DBE0E3"/>
<path d="M9.65854 12C10.2439 12 10.7122 11.52 10.7122 10.92C10.7122 10.32 10.2439 9.84003 9.65854 9.84003C9.07317 9.84003 8.60488 10.32 8.60488 10.92C8.60488 11.52 9.07317 12 9.65854 12Z" fill="#151F2A"/>
<path d="M14.2244 12C14.8098 12 15.278 11.52 15.278 10.92C15.278 10.32 14.8098 9.84003 14.2244 9.84003C13.639 9.84003 13.1707 10.32 13.1707 10.92C13.1707 11.52 13.639 12 14.2244 12Z" fill="#151F2A"/>
<path d="M12 12.48V14.4L10.6537 16.08" stroke="#10202E" stroke-width="1.314" stroke-linecap="round" stroke-linejoin="round"/>
<path d="M12 14.4L13.2293 16.08" stroke="#10202E" stroke-width="1.314" stroke-linecap="round" stroke-linejoin="round"/>
<path d="M11.4732 11.94H12.5268C13.0537 11.94 13.2878 12.42 12.9951 12.72L12.4683 13.2C12.3512 13.32 12.1756 13.38 12 13.38C11.8244 13.38 11.7073 13.32 11.5317 13.2L11.0049 12.72C10.7122 12.42 11.0049 11.94 11.4732 11.94Z" fill="#FF808C"/>
</svg>
