<svg width="24" height="24" viewBox="0 0 24 24" fill="none" xmlns="http://www.w3.org/2000/svg">
<g clip-path="url(#clip0_178_6035)">
<path d="M22.021 10.468L20.932 7.99898L20.945 8.00198L20.21 2.37898C20.049 1.14398 18.528 0.645976 17.668 1.54698L14.632 4.72498H9.504L6.468 1.54698C5.607 0.646976 4.087 1.14398 3.926 2.37898L3.267 7.42298L1.924 10.468C1.52 11.25 1.364 12.126 1.379 13.004H1.375C1.375 13.047 1.383 13.092 1.384 13.135C1.39 13.295 1.401 13.455 1.418 13.614C1.427 13.691 1.432 13.768 1.444 13.845C1.47 14.034 1.501 14.222 1.541 14.407C1.794 15.587 2.349 16.666 3.097 17.587C4.131 18.997 5.579 20.261 7.286 21.125C7.382 21.175 7.479 21.221 7.576 21.268C7.719 21.336 7.862 21.403 8.009 21.464C8.246 21.566 8.486 21.656 8.729 21.739C8.782 21.757 8.833 21.776 8.886 21.793C9.177 21.887 9.47 21.966 9.766 22.033C9.805 22.042 9.843 22.052 9.882 22.061C10.183 22.125 10.487 22.175 10.792 22.211C10.838 22.217 10.883 22.226 10.929 22.231C11.278 22.267 11.628 22.289 11.979 22.289H11.986C12.016 22.289 12.045 22.284 12.075 22.284C12.381 22.281 12.687 22.265 12.992 22.233C13.122 22.22 13.248 22.197 13.376 22.178C13.582 22.149 13.787 22.119 13.99 22.077C14.139 22.046 14.285 22.008 14.432 21.971C14.6 21.929 14.768 21.885 14.934 21.834C15.132 21.774 15.325 21.705 15.518 21.634C15.601 21.603 15.684 21.573 15.766 21.539C17.77 20.743 19.483 19.387 20.691 17.831L20.839 17.69C22.45 15.848 23.264 12.872 22.021 10.468Z" fill="#E4E8ED"/>
<path d="M10.094 17.643C10.094 18.68 10.935 19.521 11.972 19.521C13.009 19.521 13.85 18.68 13.85 17.643V13.538H10.095V17.643H10.094Z" fill="#E64454"/>
<path d="M10.156 15.974C11.1932 15.974 12.034 15.1332 12.034 14.096C12.034 13.0588 11.1932 12.218 10.156 12.218C9.11881 12.218 8.278 13.0588 8.278 14.096C8.278 15.1332 9.11881 15.974 10.156 15.974Z" fill="#E4E8ED"/>
<path d="M13.788 15.974C14.8252 15.974 15.666 15.1332 15.666 14.096C15.666 13.0588 14.8252 12.218 13.788 12.218C12.7508 12.218 11.91 13.0588 11.91 14.096C11.91 15.1332 12.7508 15.974 13.788 15.974Z" fill="#E4E8ED"/>
<path d="M10.879 12.218H13.064C13.523 12.218 13.773 12.754 13.478 13.106L12.385 14.408C12.169 14.666 11.773 14.666 11.557 14.408L10.464 13.106C10.17 12.754 10.42 12.218 10.879 12.218Z" fill="black"/>
<path d="M9.454 10.893C9.98585 10.893 10.417 10.4618 10.417 9.92998C10.417 9.39813 9.98585 8.96698 9.454 8.96698C8.92215 8.96698 8.491 9.39813 8.491 9.92998C8.491 10.4618 8.92215 10.893 9.454 10.893Z" fill="black"/>
<path d="M14.489 10.893C15.0209 10.893 15.452 10.4618 15.452 9.92998C15.452 9.39813 15.0209 8.96698 14.489 8.96698C13.9572 8.96698 13.526 9.39813 13.526 9.92998C13.526 10.4618 13.9572 10.893 14.489 10.893Z" fill="black"/>
</g>
<defs>
<clipPath id="clip0_178_6035">
<rect width="24" height="24" fill="white"/>
</clipPath>
</defs>
</svg>
