<svg width="24" height="24" viewBox="0 0 24 24" fill="none" xmlns="http://www.w3.org/2000/svg">
<g clip-path="url(#clip0_178_6058)">
<path fill-rule="evenodd" clip-rule="evenodd" d="M9.798 18.074C9.798 17.032 10.638 16.224 11.713 16.224C12.787 16.224 13.628 17.032 13.628 18.074C13.628 19.117 12.788 19.926 11.713 19.926C10.638 19.926 9.798 19.117 9.798 18.074ZM12.053 4C15.011 4 17 5.67 17 8.17C17 9.713 16.309 10.852 14.777 11.766C13.404 12.596 13.021 13.117 13.021 14.117V14.819H10.224L10.202 14.117C10.128 12.341 10.638 11.415 12.053 10.565C13.426 9.723 13.798 9.235 13.798 8.266C13.798 7.298 13.011 6.639 11.862 6.639C10.692 6.639 9.915 7.372 9.852 8.511H7C7.043 5.713 8.979 4 12.053 4Z" fill="#ADB8C7"/>
</g>
<defs>
<clipPath id="clip0_178_6058">
<rect width="24" height="24" fill="white"/>
</clipPath>
</defs>
</svg>
