<svg preserveAspectRatio="none" width="100%" height="100%" overflow="visible" style="display: block;" viewBox="0 0 410.071 406.122" fill="none" xmlns="http://www.w3.org/2000/svg">
<g id="Union" filter="url(#filter0_d_373_29797)">
<path d="M313.608 47.0432C314.39 46.9485 315.168 47.0097 315.925 47.2258L316.677 47.4396L317.428 47.6545C317.925 47.7961 318.419 47.9349 318.91 48.0715L319.653 48.2785L320.397 48.4855C320.936 48.6352 321.472 48.8032 322.004 48.9894L322.74 49.2473L323.477 49.5051C324.409 49.8312 325.15 50.4404 325.681 51.2404L326.143 51.9348L326.604 52.6301C326.617 52.6493 326.626 52.6596 326.63 52.6633C326.631 52.6647 326.632 52.6658 326.633 52.6662C326.634 52.6668 326.636 52.6674 326.64 52.6691C326.648 52.6723 326.664 52.679 326.692 52.6857L327.514 52.8849L328.338 53.0832C329.313 53.3187 330.167 53.8519 330.774 54.6984L331.231 55.3371L331.689 55.9758C331.979 56.3794 332.274 56.7739 332.575 57.1594L333.528 58.382C333.996 58.9813 334.344 59.6501 334.569 60.3762L334.8 61.1213L335.032 61.8674C335.122 62.1581 335.258 62.4332 335.445 62.6965L335.906 63.3449L336.367 63.9943C336.537 64.2333 336.676 64.4834 336.786 64.7414C337.18 64.6452 337.579 64.5698 337.985 64.5207L338.762 64.4269L339.541 64.3322C340.323 64.2375 341.1 64.2987 341.858 64.5148L342.61 64.7287L343.361 64.9435C343.857 65.0851 344.351 65.224 344.842 65.3605L345.586 65.5676L346.33 65.7746C346.868 65.9243 347.404 66.0922 347.936 66.2785L348.673 66.5363L349.41 66.7941C350.342 67.1203 351.083 67.7294 351.614 68.5295L352.076 69.2238L352.537 69.9191C352.55 69.9387 352.559 69.9489 352.562 69.9523C352.564 69.954 352.565 69.955 352.565 69.9553C352.566 69.9558 352.569 69.9564 352.573 69.9582C352.58 69.9614 352.597 69.968 352.625 69.9748L353.447 70.174L354.27 70.3723C355.246 70.6078 356.1 71.1408 356.707 71.9875L357.164 72.6262L357.622 73.2648C357.911 73.6685 358.207 74.0629 358.508 74.4484L359.461 75.6711C359.928 76.2704 360.276 76.939 360.502 77.6652L360.733 78.4103L360.965 79.1564C361.055 79.4473 361.19 79.7222 361.378 79.9855L361.839 80.634L362.3 81.2834C362.923 82.1612 363.142 83.1841 362.973 84.2248L362.842 85.0392L362.711 85.8527C362.641 86.2849 362.615 86.6774 362.625 87.0314L362.668 88.5119C362.671 88.6116 362.675 88.6939 362.679 88.7599C362.68 88.767 362.681 88.7739 362.681 88.7805L362.783 88.965C363.128 89.5934 363.077 90.2297 363.055 90.4562C363.025 90.7778 362.951 91.1041 362.868 91.4006L362.462 92.8576C362.429 92.9762 362.415 93.1334 362.474 93.3683L362.676 94.175L362.879 94.9807C363.016 95.5275 363.063 96.0838 363.01 96.6379C363.041 96.9771 363.03 97.323 362.973 97.6711L362.842 98.4855L362.711 99.299C362.641 99.7313 362.615 100.124 362.625 100.478L362.668 101.958C362.671 102.058 362.675 102.14 362.679 102.206C362.68 102.213 362.681 102.22 362.681 102.227L362.783 102.411C363.129 103.04 363.077 103.676 363.055 103.903C363.025 104.224 362.951 104.55 362.868 104.847L362.462 106.304C362.429 106.423 362.415 106.58 362.474 106.815L362.676 107.621L362.879 108.427C363.097 109.3 363.088 110.196 362.808 111.07L362.571 111.809L362.335 112.549C362.068 113.381 361.599 114.101 360.967 114.693L359.781 115.8C359.467 116.093 359.208 116.384 358.996 116.672L358.558 117.267L358.121 117.861C357.697 118.437 357.186 118.932 356.597 119.339L355.984 119.763L355.37 120.188C355.34 120.208 355.275 120.258 355.208 120.442L355.14 120.622C355.752 120.913 356.288 121.348 356.707 121.932L357.164 122.57L357.622 123.209C357.911 123.613 358.207 124.007 358.508 124.393L359.461 125.615C359.928 126.215 360.276 126.883 360.502 127.61L360.733 128.355L360.965 129.101C361.055 129.392 361.191 129.667 361.378 129.93L361.839 130.578L362.3 131.228C362.923 132.106 363.142 133.128 362.973 134.169L362.842 134.984L362.711 135.797C362.641 136.229 362.615 136.622 362.625 136.976L362.668 138.456C362.671 138.556 362.675 138.638 362.679 138.704C362.68 138.711 362.681 138.718 362.681 138.725L362.783 138.909C363.128 139.538 363.077 140.174 363.055 140.401C363.025 140.722 362.951 141.048 362.868 141.345L362.462 142.802C362.429 142.921 362.415 143.078 362.474 143.313L362.676 144.119L362.879 144.925C363.097 145.798 363.088 146.694 362.808 147.568L362.571 148.307L362.335 149.047C362.068 149.879 361.599 150.599 360.967 151.191L359.781 152.298C359.467 152.591 359.208 152.882 358.996 153.17L358.558 153.765L358.121 154.359C357.697 154.935 357.186 155.43 356.597 155.837L355.984 156.261L355.37 156.686C355.34 156.707 355.275 156.756 355.208 156.94L355.14 157.12C355.752 157.411 356.288 157.845 356.707 158.429L357.164 159.068L357.622 159.706C357.911 160.11 358.207 160.504 358.508 160.89L359.461 162.112C359.928 162.712 360.276 163.38 360.502 164.107L360.733 164.852L360.965 165.598C361.055 165.889 361.191 166.164 361.378 166.427L361.839 167.075L362.3 167.725C362.923 168.603 363.142 169.626 362.973 170.666L362.842 171.481L362.711 172.294C362.641 172.726 362.615 173.119 362.625 173.473L362.668 174.953C362.671 175.053 362.675 175.135 362.679 175.201C362.68 175.208 362.681 175.215 362.681 175.222L362.783 175.406C363.128 176.035 363.077 176.671 363.055 176.898C363.025 177.219 362.951 177.546 362.868 177.842L362.462 179.299C362.429 179.418 362.415 179.575 362.474 179.81L362.676 180.616L362.879 181.422C363.097 182.295 363.088 183.191 362.808 184.065L362.571 184.804L362.335 185.544C362.068 186.376 361.599 187.096 360.967 187.688L359.781 188.795C359.467 189.088 359.208 189.38 358.996 189.667L358.558 190.262L358.121 190.856C357.697 191.432 357.186 191.927 356.597 192.334L355.984 192.758L355.37 193.183C355.34 193.204 355.275 193.253 355.208 193.437L355.14 193.617C355.752 193.908 356.288 194.343 356.707 194.927L357.164 195.566L357.622 196.204C357.911 196.608 358.207 197.002 358.508 197.388L359.461 198.611C359.928 199.21 360.276 199.878 360.502 200.605L360.733 201.35L360.965 202.096C361.055 202.387 361.19 202.662 361.378 202.925L361.839 203.573L362.3 204.223C362.924 205.101 363.142 206.123 362.973 207.164L362.842 207.979L362.711 208.792C362.641 209.224 362.615 209.617 362.625 209.971L362.668 211.451C362.671 211.551 362.675 211.633 362.679 211.699C362.68 211.707 362.681 211.713 362.681 211.72L362.783 211.904C363.129 212.533 363.077 213.169 363.055 213.396C363.025 213.717 362.951 214.044 362.868 214.34L362.462 215.797C362.429 215.916 362.415 216.073 362.474 216.308L362.676 217.114L362.879 217.92C363.097 218.793 363.088 219.689 362.808 220.563L362.571 221.302L362.335 222.042C362.068 222.874 361.599 223.594 360.967 224.186L359.781 225.293C359.467 225.586 359.208 225.878 358.996 226.165L358.558 226.76L358.121 227.354C357.697 227.93 357.186 228.425 356.597 228.832L355.984 229.256L355.37 229.681C355.34 229.702 355.275 229.751 355.208 229.935L355.14 230.115C355.752 230.406 356.288 230.841 356.707 231.425L357.164 232.064L357.622 232.702C357.911 233.106 358.207 233.5 358.508 233.886L359.461 235.109C359.928 235.708 360.276 236.377 360.502 237.103L360.733 237.848L360.965 238.594C361.055 238.885 361.191 239.16 361.378 239.423L361.839 240.071L362.3 240.721C362.923 241.599 363.142 242.622 362.973 243.662L362.842 244.477L362.711 245.29C362.641 245.722 362.615 246.115 362.625 246.469L362.668 247.949C362.671 248.049 362.675 248.131 362.679 248.197C362.68 248.204 362.681 248.211 362.681 248.218L362.783 248.403C363.128 249.031 363.077 249.667 363.055 249.894C363.025 250.215 362.951 250.542 362.868 250.838L362.462 252.295C362.429 252.414 362.415 252.571 362.474 252.806L362.676 253.612L362.879 254.418C363.097 255.291 363.088 256.188 362.808 257.061L362.571 257.8L362.335 258.54C362.068 259.372 361.599 260.093 360.967 260.684L359.781 261.791C359.467 262.084 359.208 262.376 358.996 262.663L358.558 263.258L358.121 263.852C357.697 264.428 357.186 264.923 356.597 265.33L355.984 265.754L355.37 266.179C355.34 266.2 355.275 266.249 355.208 266.433L355.14 266.613C355.752 266.904 356.288 267.339 356.707 267.922L357.164 268.561L357.622 269.199C357.911 269.603 358.207 269.998 358.508 270.383L359.461 271.606C359.928 272.205 360.276 272.874 360.502 273.6L360.733 274.345L360.965 275.091C361.055 275.382 361.191 275.657 361.378 275.92L361.839 276.569L362.3 277.218C362.923 278.096 363.142 279.119 362.973 280.159L362.842 280.974L362.711 281.787C362.641 282.219 362.615 282.612 362.625 282.966L362.668 284.446C362.671 284.546 362.675 284.628 362.679 284.695C362.68 284.702 362.681 284.709 362.681 284.715L362.783 284.9C363.128 285.528 363.077 286.164 363.055 286.391C363.025 286.712 362.951 287.039 362.868 287.335L362.462 288.792C362.429 288.911 362.415 289.068 362.474 289.303L362.676 290.11L362.879 290.915C363.097 291.788 363.088 292.685 362.808 293.558L362.571 294.297L362.335 295.037C362.068 295.869 361.599 296.59 360.967 297.181L359.781 298.288C359.467 298.581 359.208 298.873 358.996 299.16L358.558 299.755L358.121 300.349C357.697 300.925 357.186 301.42 356.597 301.827L355.984 302.251L355.37 302.676C355.34 302.697 355.275 302.746 355.208 302.93L355.14 303.111C355.752 303.401 356.288 303.836 356.707 304.42L357.164 305.059L357.622 305.697C357.911 306.101 358.207 306.496 358.508 306.881L359.461 308.104C359.928 308.703 360.276 309.372 360.502 310.098L360.733 310.843L360.965 311.589C361.055 311.88 361.19 312.155 361.378 312.418L361.839 313.067L362.3 313.716C362.924 314.594 363.142 315.617 362.973 316.657L362.842 317.472L362.711 318.285C362.641 318.718 362.615 319.11 362.625 319.464L362.668 320.945C362.671 321.044 362.675 321.126 362.679 321.193C362.68 321.2 362.681 321.207 362.681 321.213L362.783 321.398C363.129 322.026 363.077 322.662 363.055 322.889C363.025 323.21 362.951 323.537 362.868 323.833L362.462 325.29C362.429 325.409 362.415 325.566 362.474 325.801L362.676 326.608L362.879 327.413C363.097 328.286 363.088 329.183 362.808 330.056L362.571 330.795L362.335 331.535C362.068 332.368 361.599 333.088 360.967 333.679L359.781 334.786C359.467 335.08 359.208 335.371 358.996 335.658L358.558 336.253L358.121 336.847C357.697 337.423 357.186 337.918 356.597 338.325L355.984 338.749L355.37 339.174C355.34 339.195 355.275 339.244 355.208 339.428L354.919 340.213L354.631 340.998C354.287 341.931 353.662 342.719 352.742 343.214L352.071 343.575L351.401 343.936C351.06 344.119 350.731 344.335 350.414 344.586L349.803 345.07L349.192 345.553C348.254 346.296 347.134 346.471 346.059 346.235L344.356 345.86C344.243 345.835 344.177 345.836 344.15 345.838C344.127 345.84 344.119 345.843 344.115 345.845L343.441 346.164L342.766 346.483C342.192 346.754 341.593 346.964 340.973 347.113L340.24 347.29L339.507 347.468C338.639 347.677 337.763 347.629 336.925 347.339L336.198 347.087L335.471 346.836C335.307 346.779 335.14 346.762 334.938 346.794L333.382 347.044C332.639 347.163 331.893 347.154 331.155 347.014L330.396 346.869L329.637 346.726C328.548 346.518 327.697 345.886 327.114 345.027L326.878 344.679C326.728 344.863 326.566 345.039 326.389 345.204L325.204 346.312C324.89 346.605 324.63 346.896 324.419 347.184L323.981 347.779L323.544 348.372C323.119 348.948 322.609 349.443 322.02 349.851L321.407 350.275L320.793 350.699C320.763 350.72 320.698 350.77 320.631 350.953L320.342 351.738L320.053 352.524C319.71 353.456 319.085 354.244 318.165 354.739L317.494 355.101L316.824 355.461C316.483 355.645 316.154 355.861 315.837 356.112L315.226 356.595L314.615 357.078C313.677 357.821 312.557 357.997 311.482 357.76L309.779 357.385C309.666 357.36 309.6 357.361 309.573 357.363C309.55 357.365 309.542 357.368 309.538 357.37L308.864 357.69L308.189 358.008C307.615 358.279 307.016 358.489 306.396 358.639L305.663 358.816L304.929 358.993C304.062 359.202 303.185 359.154 302.347 358.864L301.621 358.612L300.894 358.362C300.73 358.305 300.562 358.287 300.361 358.32L298.804 358.57C298.062 358.688 297.316 358.68 296.578 358.539L295.819 358.395L295.06 358.251C293.971 358.044 293.12 357.411 292.537 356.552L292.053 355.84L291.57 355.127C291.359 354.816 291.167 354.634 291.014 354.529L289.841 353.714C289.792 353.681 289.742 353.649 289.691 353.616C289.354 354.069 288.922 354.453 288.39 354.739L287.719 355.101L287.05 355.461C286.709 355.645 286.379 355.861 286.062 356.112L285.452 356.595L284.841 357.078C283.902 357.821 282.783 357.997 281.708 357.76L280.005 357.385C279.892 357.36 279.826 357.361 279.799 357.363C279.776 357.365 279.767 357.368 279.763 357.37L279.09 357.69L278.415 358.008C277.84 358.279 277.242 358.489 276.622 358.639L275.888 358.816L275.155 358.993C274.287 359.202 273.411 359.154 272.573 358.864L271.846 358.612L271.12 358.362C270.956 358.305 270.788 358.287 270.587 358.32L269.03 358.57C268.287 358.688 267.541 358.68 266.803 358.539L266.045 358.395L265.286 358.251C264.196 358.044 263.345 357.411 262.762 356.552L262.279 355.84L261.796 355.127C261.584 354.816 261.392 354.634 261.24 354.529L260.066 353.714C260.018 353.681 259.968 353.649 259.917 353.616C259.58 354.069 259.148 354.453 258.616 354.739L257.945 355.101L257.275 355.461C256.934 355.645 256.605 355.861 256.288 356.112L255.677 356.595L255.066 357.078C254.128 357.821 253.008 357.997 251.933 357.76L250.23 357.385C250.117 357.36 250.051 357.361 250.024 357.363C250.001 357.365 249.993 357.368 249.989 357.37L249.315 357.69L248.64 358.008C248.066 358.279 247.467 358.489 246.847 358.639L246.114 358.816L245.381 358.993C244.513 359.202 243.637 359.154 242.799 358.864L242.072 358.612L241.345 358.362C241.181 358.305 241.013 358.287 240.812 358.32L239.256 358.57C238.513 358.688 237.767 358.68 237.029 358.539L236.27 358.395L235.511 358.251C234.422 358.044 233.571 357.411 232.988 356.552L232.505 355.84L232.021 355.127C231.81 354.816 231.618 354.634 231.466 354.529L230.292 353.714C230.243 353.681 230.193 353.649 230.142 353.616C229.805 354.069 229.373 354.453 228.842 354.739L228.171 355.101L227.501 355.461C227.16 355.645 226.83 355.861 226.513 356.112L225.903 356.595L225.292 357.078C224.354 357.821 223.234 357.997 222.159 357.76L220.456 357.385C220.343 357.36 220.277 357.361 220.25 357.363C220.227 357.365 220.219 357.368 220.215 357.37L219.541 357.69L218.866 358.008C218.292 358.279 217.693 358.489 217.073 358.639L216.34 358.816L215.606 358.993C214.738 359.202 213.862 359.154 213.024 358.864L212.298 358.612L211.571 358.362C211.407 358.305 211.239 358.287 211.038 358.32L209.481 358.57C208.739 358.688 207.993 358.68 207.255 358.539L206.496 358.395L205.737 358.251C204.647 358.044 203.797 357.411 203.214 356.552L202.73 355.84L202.247 355.127C202.035 354.816 201.843 354.634 201.691 354.529L200.517 353.714C200.469 353.681 200.419 353.649 200.368 353.616C200.031 354.069 199.599 354.453 199.067 354.739L198.396 355.101L197.726 355.461C197.385 355.645 197.056 355.861 196.739 356.112L196.129 356.595L195.517 357.078C194.579 357.821 193.459 357.997 192.384 357.76L190.681 357.385C190.568 357.36 190.503 357.361 190.475 357.363C190.452 357.365 190.444 357.368 190.44 357.37L189.766 357.69L189.092 358.008C188.517 358.279 187.919 358.489 187.299 358.639L186.565 358.816L185.832 358.993C184.964 359.202 184.088 359.154 183.25 358.864L182.523 358.612L181.797 358.362C181.632 358.305 181.465 358.287 181.263 358.32L179.707 358.57C178.964 358.688 178.218 358.68 177.48 358.539L176.721 358.395L175.963 358.251C174.873 358.044 174.022 357.411 173.439 356.552L172.956 355.84L172.472 355.127C172.261 354.816 172.069 354.634 171.917 354.529L170.743 353.714C170.695 353.681 170.644 353.649 170.593 353.616C170.256 354.069 169.824 354.453 169.293 354.739L168.622 355.101L167.952 355.461C167.611 355.645 167.282 355.861 166.965 356.112L166.354 356.595L165.743 357.078C164.805 357.821 163.685 357.997 162.61 357.76L160.907 357.385C160.794 357.36 160.728 357.361 160.701 357.363C160.678 357.365 160.67 357.368 160.666 357.37L159.992 357.69L159.317 358.008C158.743 358.279 158.144 358.489 157.524 358.639L156.791 358.816L156.057 358.993C155.19 359.202 154.313 359.154 153.475 358.864L152.749 358.612L152.022 358.362C151.858 358.305 151.69 358.287 151.489 358.32L149.932 358.57C149.19 358.688 148.444 358.68 147.706 358.539L146.947 358.395L146.188 358.251C145.098 358.044 144.248 357.411 143.665 356.552L143.181 355.84L142.698 355.127C142.486 354.816 142.295 354.634 142.142 354.529L140.968 353.714C140.92 353.681 140.87 353.649 140.819 353.616C140.482 354.069 140.05 354.453 139.518 354.739L138.847 355.101L138.177 355.461C137.836 355.645 137.507 355.861 137.19 356.112L136.58 356.595L135.968 357.078C135.03 357.821 133.911 357.997 132.836 357.76L131.133 357.385C131.019 357.36 130.954 357.361 130.926 357.363C130.903 357.365 130.895 357.368 130.891 357.37L130.217 357.69L129.543 358.008C128.968 358.279 128.37 358.489 127.75 358.639L127.016 358.816L126.283 358.993C125.415 359.202 124.539 359.154 123.701 358.864L122.974 358.612L122.248 358.362C122.083 358.305 121.916 358.287 121.715 358.32L120.158 358.57C119.415 358.688 118.669 358.68 117.931 358.539L117.173 358.395L116.414 358.251C115.324 358.044 114.473 357.411 113.89 356.552L113.407 355.84L112.924 355.127C112.712 354.816 112.52 354.634 112.368 354.529L111.194 353.714C111.146 353.681 111.096 353.649 111.045 353.616C110.708 354.069 110.275 354.453 109.744 354.739L109.073 355.101L108.403 355.461C108.062 355.645 107.733 355.861 107.416 356.112L106.805 356.595L106.194 357.078C105.256 357.821 104.136 357.997 103.061 357.76L101.358 357.385C101.245 357.36 101.179 357.361 101.152 357.363C101.129 357.365 101.121 357.368 101.117 357.37L100.443 357.69L99.7683 358.008C99.1939 358.279 98.5954 358.489 97.9753 358.639L97.2419 358.816L96.5085 358.993C95.6407 359.202 94.7646 359.154 93.9265 358.864L93.1999 358.612L92.4734 358.362C92.309 358.305 92.1414 358.287 91.9401 358.32L90.3835 358.57C89.6408 358.688 88.895 358.68 88.1569 358.539L87.3982 358.395L86.6394 358.251C85.5496 358.044 84.699 357.411 84.1159 356.552L83.6325 355.84L83.1491 355.127C82.9376 354.815 82.7458 354.634 82.5935 354.529L81.4196 353.714C81.1582 353.533 80.8565 353.369 80.5085 353.228L79.7956 352.939L79.0837 352.651C78.5324 352.427 77.9882 352.166 77.4519 351.87L76.0398 351.093C75.1558 350.606 74.5005 349.855 74.1491 348.899L73.8767 348.156L73.6032 347.413C73.4756 347.066 73.3154 346.753 73.1237 346.47L72.6941 345.837L72.2653 345.204C71.917 344.69 71.612 344.149 71.3513 343.582L71.029 342.88L70.7058 342.179C70.2938 341.283 70.2199 340.328 70.4294 339.395L70.611 338.587L70.7927 337.779C70.8596 337.48 70.8545 337.254 70.8191 337.076L70.528 335.627C70.4207 335.091 70.3343 334.546 70.2683 333.993L70.0886 332.486C70.011 331.835 70.055 331.189 70.2155 330.561L70.1101 330.541L69.3513 330.398C68.2614 330.19 67.411 329.558 66.8278 328.698L66.3444 327.987L65.861 327.274C65.6495 326.962 65.4578 326.781 65.3054 326.675L64.1316 325.861C63.8701 325.679 63.5684 325.515 63.2204 325.374L62.5075 325.085L61.7956 324.797C61.2443 324.574 60.7002 324.312 60.1638 324.017L58.7517 323.239C57.8677 322.752 57.2124 322.002 56.861 321.045L56.5886 320.303L56.3151 319.56C56.1875 319.212 56.0273 318.899 55.8357 318.616L55.406 317.984L54.9773 317.351C54.6288 316.837 54.3239 316.295 54.0632 315.729L53.7409 315.027L53.4177 314.325C53.0057 313.43 52.9318 312.475 53.1413 311.541L53.323 310.734L53.5046 309.925C53.5715 309.627 53.5665 309.4 53.531 309.223L53.24 307.774C53.1326 307.238 53.0462 306.693 52.9802 306.14L52.8005 304.632C52.7047 303.828 52.7913 303.031 53.0583 302.267L53.3083 301.552L53.5583 300.836C53.7048 300.417 53.8299 299.996 53.9343 299.575L54.114 298.852L54.2927 298.129C54.4657 297.432 54.7502 296.778 55.1403 296.175L55.9167 294.973C55.4054 294.76 54.8995 294.517 54.4011 294.242L52.989 293.465C52.105 292.978 51.4497 292.227 51.0984 291.271L50.8259 290.529L50.5525 289.785C50.4248 289.438 50.2646 289.125 50.073 288.842L49.6433 288.209L49.2146 287.576C48.8661 287.062 48.5612 286.521 48.3005 285.954L47.9782 285.252L47.655 284.551C47.243 283.655 47.1691 282.701 47.3786 281.767L47.5603 280.959L47.7419 280.151C47.8088 279.852 47.8038 279.626 47.7683 279.448L47.4773 277.999C47.3699 277.463 47.2835 276.919 47.2175 276.365L47.0378 274.858C46.942 274.054 47.0286 273.257 47.2956 272.492L47.5456 271.778L47.7956 271.062C47.9421 270.642 48.0672 270.222 48.1716 269.801L48.3513 269.077L48.53 268.355C48.703 267.658 48.9875 267.004 49.3776 266.401L50.1882 265.147C50.2873 264.993 50.3731 264.787 50.4167 264.493L50.5378 263.675L50.6599 262.856L50.6989 262.636C50.7809 262.241 50.9215 261.874 51.1159 261.543C51.11 261.528 51.1041 261.512 51.0984 261.496L50.8259 260.754L50.5525 260.011C50.4248 259.663 50.2646 259.35 50.073 259.068L49.6433 258.435L49.2146 257.802C48.8661 257.288 48.5612 256.747 48.3005 256.18L47.9782 255.478L47.655 254.777C47.243 253.881 47.1691 252.926 47.3786 251.992L47.5603 251.185L47.7419 250.376C47.8088 250.078 47.8038 249.851 47.7683 249.674L47.4773 248.225C47.3699 247.689 47.2835 247.144 47.2175 246.591L47.0378 245.083C46.9419 244.279 47.0286 243.483 47.2956 242.718L47.5456 242.003L47.7956 241.287C47.9421 240.868 48.0672 240.447 48.1716 240.027L48.3513 239.303L48.53 238.58C48.703 237.883 48.9875 237.229 49.3776 236.626L50.1882 235.372C50.2873 235.219 50.3731 235.013 50.4167 234.719L50.5378 233.901L50.6599 233.081L50.6989 232.862C50.7809 232.466 50.9215 232.1 51.1159 231.769C51.11 231.753 51.1041 231.738 51.0984 231.722L50.8259 230.98L50.5525 230.237C50.4248 229.889 50.2646 229.576 50.073 229.293L49.6433 228.66L49.2146 228.028C48.8661 227.514 48.5612 226.972 48.3005 226.405L47.9782 225.703L47.655 225.002C47.243 224.106 47.1691 223.152 47.3786 222.218L47.5603 221.41L47.7419 220.602C47.8088 220.303 47.8038 220.077 47.7683 219.9L47.4773 218.45C47.3699 217.914 47.2835 217.37 47.2175 216.817L47.0378 215.309C46.9419 214.505 47.0286 213.708 47.2956 212.944L47.5456 212.229L47.7956 211.513C47.9421 211.093 48.0672 210.673 48.1716 210.252L48.3513 209.529L48.53 208.806C48.703 208.109 48.9875 207.455 49.3776 206.852L50.1882 205.598C50.2873 205.445 50.3731 205.238 50.4167 204.945L50.5378 204.126L50.6599 203.307L50.6989 203.087C50.7809 202.692 50.9215 202.325 51.1159 201.994C51.11 201.979 51.1041 201.963 51.0984 201.947L50.8259 201.205L50.5525 200.462C50.4248 200.115 50.2646 199.801 50.073 199.519L49.6433 198.886L49.2146 198.253C48.8662 197.739 48.5612 197.198 48.3005 196.631L47.9782 195.929L47.655 195.228C47.243 194.332 47.1691 193.377 47.3786 192.444L47.5603 191.636L47.7419 190.827C47.8088 190.529 47.8038 190.302 47.7683 190.125L47.4773 188.676C47.3699 188.14 47.2835 187.595 47.2175 187.042L47.0378 185.534C46.9419 184.73 47.0286 183.934 47.2956 183.169L47.5456 182.454L47.7956 181.738C47.9421 181.319 48.0672 180.899 48.1716 180.478L48.3513 179.754L48.53 179.031C48.703 178.334 48.9875 177.68 49.3776 177.077L50.1882 175.823C50.2873 175.67 50.3731 175.464 50.4167 175.17L50.5378 174.352L50.6599 173.532L50.6989 173.313C50.7809 172.918 50.9215 172.551 51.1159 172.22C51.11 172.204 51.1041 172.189 51.0984 172.173L50.8259 171.431L50.5525 170.688C50.4248 170.34 50.2646 170.027 50.073 169.744L49.6433 169.112L49.2146 168.479C48.8662 167.965 48.5612 167.423 48.3005 166.857L47.9782 166.154L47.655 165.453C47.243 164.558 47.1691 163.603 47.3786 162.669L47.5603 161.862L47.7419 161.053C47.8088 160.755 47.8038 160.528 47.7683 160.351L47.4773 158.902C47.3699 158.366 47.2835 157.821 47.2175 157.268L47.0378 155.76C46.9419 154.956 47.0286 154.159 47.2956 153.395L47.5456 152.68L47.7956 151.964C47.9421 151.544 48.0672 151.124 48.1716 150.703L48.3513 149.98L48.53 149.257C48.703 148.56 48.9875 147.906 49.3776 147.303L50.1882 146.049C50.2874 145.896 50.3731 145.69 50.4167 145.396L50.5378 144.577L50.6599 143.758L50.6989 143.538C50.7808 143.143 50.9215 142.776 51.1159 142.445C51.11 142.43 51.1041 142.414 51.0984 142.399L50.8259 141.656L50.5525 140.913C50.4248 140.566 50.2646 140.253 50.073 139.97L49.6433 139.337L49.2146 138.704C48.8662 138.19 48.5612 137.649 48.3005 137.082L47.9782 136.38L47.655 135.679C47.243 134.783 47.1691 133.829 47.3786 132.895L47.5603 132.087L47.7419 131.279C47.8088 130.98 47.8038 130.754 47.7683 130.576L47.4773 129.127C47.3699 128.591 47.2835 128.046 47.2175 127.493L47.0378 125.986C46.9419 125.181 47.0286 124.385 47.2956 123.62L47.5456 122.905L47.7956 122.19C47.9421 121.77 48.0671 121.35 48.1716 120.929L48.3513 120.205L48.53 119.483C48.703 118.785 48.9875 118.132 49.3776 117.529L50.1882 116.275C50.2874 116.121 50.3731 115.915 50.4167 115.621L50.5378 114.803L50.6599 113.984L50.6989 113.764C50.7808 113.369 50.9215 113.002 51.1159 112.671C51.11 112.656 51.1041 112.64 51.0984 112.624L50.8259 111.882L50.5525 111.139C50.4248 110.791 50.2646 110.478 50.073 110.195L49.6433 109.563L49.2146 108.93C48.8662 108.416 48.5612 107.874 48.3005 107.308L47.9782 106.606L47.655 105.904C47.243 105.009 47.1691 104.054 47.3786 103.12L47.5603 102.313L47.7419 101.504C47.8088 101.206 47.8037 100.979 47.7683 100.802L47.4773 99.3527C47.3699 98.8168 47.2835 98.272 47.2175 97.7189L47.0378 96.2111C46.9419 95.407 47.0286 94.6106 47.2956 93.8459L47.5456 93.131L47.7956 92.4152C47.9421 91.9956 48.0671 91.5754 48.1716 91.1545L48.3513 90.4308L48.53 89.7082C48.703 89.0111 48.9875 88.3573 49.3776 87.7541L50.1882 86.5002C50.2874 86.3469 50.3731 86.1408 50.4167 85.8469L50.5378 85.0285L50.6599 84.2092L50.6989 83.9894C50.9243 82.9021 51.5944 82.0302 52.6071 81.5266L53.3454 81.1594L54.0847 80.7922C54.5216 80.5749 54.9144 80.3542 55.2644 80.132L55.8864 79.7365L56.5095 79.342C56.7125 79.2131 56.8987 79.043 57.0691 78.8166L57.9948 77.5861C58.3786 77.0761 58.8092 76.603 59.2839 76.1672L59.864 75.6349L60.4441 75.1017C61.1028 74.4971 61.897 74.1274 62.7741 74.008C62.6989 73.5925 62.6354 73.1718 62.5847 72.7463L62.405 71.2385C62.3092 70.4345 62.3958 69.6378 62.6628 68.8732L62.9128 68.1584L63.1628 67.4426C63.3093 67.0231 63.4344 66.6026 63.5388 66.1818L63.7185 65.4582L63.8972 64.7355C64.0702 64.0386 64.3547 63.3845 64.7448 62.7814L65.5554 61.5275C65.6545 61.3742 65.7403 61.168 65.7839 60.8742L65.905 60.0558L66.0271 59.2365L66.0661 59.0168C66.2916 57.9296 66.9617 57.0575 67.9743 56.5539L68.7126 56.1867L69.4519 55.8195C69.8888 55.6022 70.2816 55.3816 70.6316 55.1594L71.2536 54.7639L71.8767 54.3693C72.0797 54.2404 72.2659 54.0703 72.4362 53.8439L73.362 52.6135C73.7457 52.1035 74.1764 51.6302 74.6511 51.1945L75.2312 50.6623L75.8112 50.1291C76.5227 49.4761 77.3919 49.094 78.3532 49.009L79.1394 48.9396L79.9245 48.8693C80.3894 48.8282 80.8339 48.7686 81.2585 48.6906L82.7273 48.4211C83.1297 48.3471 83.5369 48.2443 83.9489 48.1125L84.6843 47.8771L85.4206 47.6418C86.033 47.4459 86.6615 47.3094 87.3034 47.2316L88.0808 47.1379L88.8591 47.0432C89.6411 46.9485 90.4189 47.0097 91.1765 47.2258L91.9284 47.4396L92.6794 47.6545C93.1756 47.7961 93.6696 47.9349 94.1609 48.0715L94.904 48.2785L95.6482 48.4855C96.1865 48.6352 96.7225 48.8032 97.2546 48.9894L97.9909 49.2473L98.7282 49.5051C99.6599 49.8312 100.401 50.4404 100.932 51.2404L101.394 51.9348L101.855 52.6301C101.868 52.6493 101.877 52.6596 101.881 52.6633C101.882 52.6647 101.883 52.6658 101.884 52.6662C101.884 52.6668 101.887 52.6674 101.891 52.6691C101.899 52.6723 101.915 52.679 101.943 52.6857L102.765 52.8849L103.589 53.0832C104.564 53.3187 105.418 53.8519 106.025 54.6984L106.482 55.3371L106.849 55.8488L106.91 55.8195C107.347 55.6022 107.74 55.3816 108.09 55.1594L108.712 54.7639L109.335 54.3693C109.538 54.2404 109.724 54.0703 109.894 53.8439L110.82 52.6135C111.204 52.1035 111.634 51.6303 112.109 51.1945L112.689 50.6623L113.269 50.1291C113.981 49.4761 114.85 49.094 115.811 49.009L116.597 48.9396L117.383 48.8693C117.847 48.8282 118.292 48.7686 118.717 48.6906L120.185 48.4211C120.588 48.3471 120.995 48.2443 121.407 48.1125L122.142 47.8771L122.879 47.6418C123.491 47.4459 124.12 47.3094 124.761 47.2316L125.539 47.1379L126.317 47.0432C127.099 46.9485 127.877 47.0097 128.634 47.2258L129.386 47.4396L130.137 47.6545C130.634 47.7961 131.128 47.9349 131.619 48.0715L132.362 48.2785L133.106 48.4855C133.644 48.6352 134.181 48.8032 134.713 48.9894L135.449 49.2473L136.186 49.5051C137.118 49.8312 137.859 50.4405 138.39 51.2404L138.852 51.9348L139.313 52.6301C139.326 52.6491 139.335 52.6595 139.339 52.6633C139.34 52.6646 139.341 52.6657 139.342 52.6662C139.342 52.6668 139.345 52.6674 139.349 52.6691C139.357 52.6723 139.373 52.679 139.401 52.6857L140.223 52.8849L141.047 53.0832C142.022 53.3187 142.876 53.852 143.483 54.6984L143.94 55.3371L144.307 55.8488L144.368 55.8195C144.805 55.6022 145.198 55.3816 145.548 55.1594L146.17 54.7639L146.793 54.3693C146.996 54.2404 147.182 54.0704 147.352 53.8439L148.278 52.6135C148.662 52.1035 149.092 51.6303 149.567 51.1945L150.147 50.6623L150.727 50.1291C151.439 49.4761 152.308 49.0941 153.269 49.009L154.055 48.9396L154.841 48.8693C155.305 48.8282 155.75 48.7686 156.175 48.6906L157.643 48.4211C158.046 48.3471 158.453 48.2443 158.865 48.1125L159.6 47.8771L160.337 47.6418C160.949 47.4459 161.578 47.3094 162.219 47.2316L162.997 47.1379L163.775 47.0432C164.557 46.9485 165.335 47.0097 166.092 47.2258L166.844 47.4396L167.595 47.6545C168.092 47.796 168.586 47.9349 169.077 48.0715L169.82 48.2785L170.564 48.4855C171.102 48.6352 171.639 48.8032 172.171 48.9894L172.907 49.2473L173.644 49.5051C174.576 49.8311 175.317 50.4405 175.848 51.2404L176.31 51.9348L176.771 52.6301C176.784 52.649 176.793 52.6595 176.797 52.6633C176.798 52.6645 176.799 52.6657 176.8 52.6662C176.8 52.6668 176.804 52.6675 176.807 52.6691C176.815 52.6723 176.831 52.679 176.859 52.6857L177.681 52.8849L178.505 53.0832C179.48 53.3187 180.334 53.852 180.941 54.6984L181.398 55.3371L181.765 55.8498L181.827 55.8195C182.264 55.6023 182.657 55.3815 183.007 55.1594L183.629 54.7639L184.252 54.3693C184.455 54.2404 184.641 54.0702 184.811 53.8439L185.737 52.6135C186.121 52.1036 186.551 51.6302 187.026 51.1945L187.606 50.6623L188.186 50.1291C188.898 49.4763 189.767 49.094 190.728 49.009L191.514 48.9396L192.3 48.8693C192.764 48.8282 193.209 48.7686 193.634 48.6906L195.102 48.4211C195.505 48.3471 195.912 48.2443 196.324 48.1125L197.059 47.8771L197.796 47.6418C198.408 47.4459 199.037 47.3094 199.678 47.2316L200.456 47.1379L201.234 47.0432C202.016 46.9486 202.794 47.0097 203.551 47.2258L204.303 47.4396L205.054 47.6545C205.551 47.7961 206.045 47.9349 206.536 48.0715L207.279 48.2785L208.023 48.4855C208.561 48.6352 209.098 48.8032 209.63 48.9894L210.366 49.2473L211.103 49.5051C212.035 49.8312 212.776 50.4404 213.307 51.2404L213.769 51.9348L214.23 52.6301C214.243 52.6497 214.252 52.6598 214.256 52.6633C214.257 52.665 214.258 52.6659 214.259 52.6662C214.26 52.6668 214.262 52.6674 214.266 52.6691C214.274 52.6724 214.29 52.679 214.318 52.6857L215.14 52.8849L215.964 53.0832C216.939 53.3188 217.793 53.8519 218.4 54.6984L218.857 55.3371L219.224 55.8488L219.285 55.8195C219.722 55.6023 220.115 55.3815 220.465 55.1594L221.087 54.7639L221.71 54.3693C221.913 54.2404 222.099 54.0702 222.269 53.8439L223.195 52.6135C223.579 52.1036 224.009 51.6302 224.484 51.1945L225.064 50.6623L225.644 50.1291C226.356 49.4762 227.225 49.094 228.186 49.009L228.972 48.9396L229.758 48.8693C230.222 48.8282 230.667 48.7686 231.092 48.6906L232.56 48.4211C232.963 48.3471 233.37 48.2443 233.782 48.1125L234.517 47.8771L235.254 47.6418C235.866 47.4459 236.495 47.3094 237.136 47.2316L237.914 47.1379L238.692 47.0432C239.474 46.9485 240.252 47.0097 241.009 47.2258L241.761 47.4396L242.512 47.6545C243.009 47.7961 243.503 47.9349 243.994 48.0715L244.737 48.2785L245.481 48.4855C246.02 48.6352 246.555 48.8032 247.088 48.9894L247.824 49.2473L248.561 49.5051C249.493 49.8312 250.234 50.4404 250.765 51.2404L251.227 51.9348L251.688 52.6301C251.701 52.6496 251.71 52.6597 251.714 52.6633C251.715 52.6649 251.716 52.6659 251.717 52.6662C251.718 52.6668 251.72 52.6674 251.724 52.6691C251.732 52.6724 251.748 52.679 251.776 52.6857L252.598 52.8849L253.422 53.0832C254.397 53.3188 255.251 53.8519 255.858 54.6984L256.315 55.3371L256.682 55.8488L256.743 55.8195C257.18 55.6022 257.573 55.3815 257.923 55.1594L258.545 54.7639L259.168 54.3693C259.371 54.2404 259.557 54.0703 259.727 53.8439L260.653 52.6135C261.037 52.1036 261.467 51.6302 261.942 51.1945L262.522 50.6623L263.102 50.1291C263.814 49.4762 264.683 49.094 265.644 49.009L266.43 48.9396L267.216 48.8693C267.68 48.8282 268.125 48.7686 268.55 48.6906L270.018 48.4211C270.421 48.3471 270.828 48.2443 271.24 48.1125L271.975 47.8771L272.712 47.6418C273.324 47.4459 273.953 47.3094 274.594 47.2316L275.372 47.1379L276.15 47.0432C276.932 46.9485 277.71 47.0096 278.467 47.2258L279.219 47.4396L279.97 47.6545C280.467 47.7961 280.961 47.9349 281.452 48.0715L282.195 48.2785L282.939 48.4855C283.478 48.6352 284.013 48.8032 284.546 48.9894L285.282 49.2473L286.019 49.5051C286.951 49.8312 287.692 50.4404 288.223 51.2404L288.685 51.9348L289.146 52.6301C289.159 52.6494 289.168 52.6597 289.172 52.6633C289.173 52.6648 289.174 52.6658 289.175 52.6662C289.176 52.6668 289.178 52.6674 289.182 52.6691C289.19 52.6724 289.206 52.679 289.234 52.6857L290.056 52.8849L290.88 53.0832C291.855 53.3187 292.709 53.8519 293.316 54.6984L293.773 55.3371L294.14 55.8488L294.201 55.8195C294.638 55.6022 295.031 55.3816 295.381 55.1594L296.003 54.7639L296.626 54.3693C296.829 54.2404 297.015 54.0703 297.185 53.8439L298.111 52.6135C298.495 52.1035 298.925 51.6302 299.4 51.1945L299.98 50.6623L300.56 50.1291C301.272 49.4761 302.141 49.094 303.102 49.009L303.888 48.9396L304.674 48.8693C305.138 48.8282 305.583 48.7686 306.008 48.6906L307.476 48.4211C307.879 48.3471 308.286 48.2443 308.698 48.1125L309.433 47.8771L310.17 47.6418C310.782 47.4459 311.411 47.3094 312.052 47.2316L312.83 47.1379L313.608 47.0432ZM291.979 89.4523C291.949 89.4731 291.885 89.5226 291.817 89.7062L291.528 90.4914L291.24 91.2766C290.897 92.2093 290.272 92.997 289.351 93.4924L288.68 93.8537L288.01 94.2141C287.67 94.3975 287.34 94.6135 287.023 94.8644L286.413 95.3478L285.801 95.8312C284.863 96.5739 283.744 96.7494 282.669 96.5129L280.966 96.1379C280.853 96.113 280.787 96.1141 280.759 96.1164C280.737 96.1183 280.728 96.1213 280.724 96.1232L280.05 96.4426L279.376 96.7609C278.801 97.0323 278.203 97.2423 277.583 97.3918L276.849 97.5685L276.116 97.7463C275.248 97.9554 274.372 97.9073 273.534 97.6174L272.807 97.3654L272.081 97.1144C271.916 97.0577 271.749 97.0403 271.548 97.0724L269.991 97.3224C269.248 97.4414 268.502 97.4326 267.764 97.2922L267.006 97.1476L266.247 97.0041C265.157 96.7968 264.306 96.1643 263.723 95.3049L263.24 94.593L262.757 93.8801C262.545 93.5685 262.353 93.3871 262.201 93.2814L261.027 92.467C260.766 92.2857 260.464 92.1218 260.116 91.9807L259.403 91.6916L258.691 91.4035C258.14 91.1799 257.596 90.9188 257.059 90.6232L255.647 89.8459C255.341 89.6774 255.064 89.4764 254.816 89.2473L254.521 89.4523C254.491 89.4731 254.427 89.5227 254.359 89.7062L254.07 90.4914L253.782 91.2766C253.439 92.2092 252.814 92.997 251.893 93.4924L251.222 93.8537L250.552 94.2141C250.212 94.3975 249.882 94.6136 249.565 94.8644L248.955 95.3478L248.343 95.8312C247.405 96.5738 246.285 96.7494 245.211 96.5129L243.508 96.1379C243.395 96.1131 243.329 96.1141 243.301 96.1164C243.279 96.1183 243.27 96.1213 243.266 96.1232L242.592 96.4426L241.918 96.7609C241.343 97.0323 240.745 97.2423 240.125 97.3918L239.391 97.5685L238.658 97.7463C237.79 97.9554 236.914 97.9073 236.076 97.6174L235.349 97.3654L234.623 97.1144C234.458 97.0577 234.291 97.0403 234.09 97.0724L232.533 97.3224C231.79 97.4414 231.044 97.4325 230.306 97.2922L229.548 97.1476L228.789 97.0041C227.699 96.7968 226.848 96.1643 226.265 95.3049L225.782 94.593L225.299 93.8801C225.087 93.5684 224.895 93.3871 224.743 93.2814L223.569 92.467C223.308 92.2857 223.006 92.1218 222.658 91.9807L221.945 91.6916L221.233 91.4035C220.682 91.1799 220.138 90.9188 219.601 90.6232L218.189 89.8459C217.884 89.6775 217.606 89.4772 217.358 89.2482L217.063 89.4523C217.033 89.473 216.969 89.5227 216.901 89.7062L216.612 90.4914L216.324 91.2766C215.981 92.2092 215.356 92.997 214.435 93.4924L213.764 93.8537L213.094 94.2141C212.754 94.3974 212.424 94.6136 212.107 94.8644L211.497 95.3478L210.885 95.8312C209.947 96.5738 208.827 96.7493 207.753 96.5129L206.05 96.1379C205.937 96.1131 205.871 96.1141 205.843 96.1164C205.821 96.1183 205.812 96.1213 205.808 96.1232L205.134 96.4426L204.46 96.7609C203.885 97.0323 203.287 97.2423 202.667 97.3918L201.933 97.5685L201.2 97.7463C200.332 97.9554 199.456 97.9073 198.618 97.6174L197.891 97.3654L197.165 97.1144C197 97.0577 196.833 97.0403 196.632 97.0724L195.075 97.3224C194.332 97.4414 193.586 97.4325 192.848 97.2922L192.09 97.1476L191.331 97.0041C190.241 96.7968 189.39 96.1643 188.807 95.3049L188.324 94.593L187.841 93.8801C187.629 93.5684 187.437 93.3871 187.285 93.2814L186.111 92.467C185.85 92.2857 185.548 92.1218 185.2 91.9807L184.487 91.6916L183.775 91.4035C183.224 91.18 182.68 90.9187 182.143 90.6232L180.731 89.8459C180.425 89.6773 180.147 89.4766 179.899 89.2473L179.604 89.4523C179.574 89.4731 179.51 89.5226 179.442 89.7062L179.153 90.4914L178.865 91.2766C178.522 92.2094 177.897 92.997 176.976 93.4924L176.305 93.8537L175.635 94.2141C175.294 94.3975 174.965 94.6135 174.648 94.8644L174.038 95.3478L173.426 95.8312C172.488 96.5739 171.369 96.7494 170.294 96.5129L168.591 96.1379C168.478 96.1131 168.412 96.1141 168.384 96.1164C168.361 96.1184 168.353 96.1214 168.349 96.1232L167.675 96.4426L167.001 96.7609C166.426 97.0323 165.828 97.2423 165.208 97.3918L164.474 97.5685L163.741 97.7463C162.873 97.9554 161.997 97.9073 161.159 97.6174L160.432 97.3654L159.706 97.1144C159.542 97.0578 159.374 97.0402 159.173 97.0724L157.616 97.3224C156.873 97.4414 156.127 97.4326 155.389 97.2922L154.631 97.1476L153.872 97.0041C152.782 96.7967 151.931 96.1641 151.348 95.3049L150.865 94.593L150.382 93.8801C150.17 93.5686 149.978 93.3871 149.826 93.2814L148.652 92.467C148.391 92.2858 148.089 92.1217 147.741 91.9807L147.028 91.6916L146.316 91.4035C145.765 91.18 145.221 90.9187 144.684 90.6232L143.272 89.8459C142.967 89.6774 142.689 89.4764 142.441 89.2473L142.146 89.4523C142.116 89.4731 142.052 89.5225 141.984 89.7062L141.695 90.4914L141.407 91.2766C141.064 92.2093 140.439 92.997 139.518 93.4924L138.847 93.8537L138.177 94.2141C137.836 94.3975 137.507 94.6135 137.19 94.8644L136.58 95.3478L135.968 95.8312C135.03 96.5739 133.911 96.7494 132.836 96.5129L131.133 96.1379C131.02 96.113 130.954 96.1141 130.926 96.1164C130.903 96.1184 130.895 96.1214 130.891 96.1232L130.217 96.4426L129.543 96.7609C128.968 97.0324 128.37 97.2423 127.75 97.3918L127.016 97.5685L126.283 97.7463C125.415 97.9554 124.539 97.9073 123.701 97.6174L122.974 97.3654L122.248 97.1144C122.083 97.0577 121.916 97.0402 121.715 97.0724L120.158 97.3224C119.415 97.4414 118.669 97.4326 117.931 97.2922L117.173 97.1476L116.414 97.0041C115.324 96.7967 114.473 96.1642 113.89 95.3049L113.407 94.593L112.924 93.8801C112.712 93.5686 112.52 93.3871 112.368 93.2814L111.194 92.467C110.933 92.2858 110.631 92.1217 110.283 91.9807L109.57 91.6916L108.858 91.4035C108.307 91.18 107.763 90.9187 107.226 90.6232L105.814 89.8459C105.508 89.6774 105.231 89.4764 104.983 89.2473L104.688 89.4523C104.658 89.4731 104.594 89.5226 104.526 89.7062L104.237 90.4914L103.949 91.2766C103.606 92.2093 102.981 92.997 102.06 93.4924L101.389 93.8537L100.719 94.2141C100.378 94.3975 100.049 94.6135 99.7321 94.8644L99.1218 95.3478L98.5105 95.8312C97.9544 96.2714 97.3344 96.5101 96.698 96.5842L96.7341 96.6486C97.0796 97.277 97.0282 97.9133 97.0066 98.1398C96.9758 98.4614 96.9017 98.7877 96.8191 99.0842L96.4128 100.541C96.3798 100.66 96.3665 100.817 96.4255 101.052L96.6276 101.859L96.8298 102.664C97.0486 103.537 97.0394 104.434 96.7595 105.307L96.5222 106.046L96.2859 106.786C96.019 107.619 95.5501 108.339 94.9177 108.93L93.7321 110.037C93.4185 110.33 93.1588 110.622 92.947 110.909L92.5095 111.504L92.3327 111.742C92.3749 111.797 92.4163 111.852 92.4587 111.906L93.4118 113.129C93.8794 113.728 94.2276 114.397 94.4528 115.123L94.6843 115.868L94.9157 116.614C95.006 116.905 95.1417 117.18 95.3288 117.444L95.7898 118.092L96.2507 118.741C96.8746 119.619 97.0928 120.642 96.9245 121.683L96.7937 122.497L96.6618 123.311C96.5919 123.743 96.5657 124.135 96.5759 124.489L96.6189 125.97C96.6217 126.07 96.6257 126.152 96.6306 126.218C96.6311 126.225 96.632 126.232 96.6325 126.238L96.7341 126.423C97.0796 127.051 97.0282 127.688 97.0066 127.914C96.9758 128.236 96.9017 128.562 96.8191 128.859L96.4128 130.316C96.3798 130.434 96.3665 130.591 96.4255 130.826L96.6276 131.633L96.8298 132.439C97.0486 133.311 97.0394 134.208 96.7595 135.081L96.5222 135.82L96.2859 136.561C96.019 137.393 95.5501 138.113 94.9177 138.704L93.7321 139.812C93.4185 140.105 93.1588 140.396 92.947 140.684L92.5095 141.279L92.3327 141.517C92.3749 141.571 92.4163 141.627 92.4587 141.681L93.4118 142.904C93.8794 143.503 94.2276 144.171 94.4528 144.898L94.6843 145.643L94.9157 146.389C95.006 146.68 95.1416 146.955 95.3288 147.218L95.7898 147.866L96.2507 148.516C96.8746 149.394 97.0928 150.416 96.9245 151.457L96.7937 152.272L96.6618 153.085C96.5919 153.517 96.5657 153.91 96.5759 154.264L96.6189 155.744C96.6217 155.844 96.6257 155.926 96.6306 155.992C96.6311 155.999 96.632 156.006 96.6325 156.013L96.7341 156.197C97.0796 156.826 97.0282 157.462 97.0066 157.689C96.9758 158.01 96.9017 158.336 96.8191 158.633L96.4128 160.09C96.3798 160.209 96.3665 160.366 96.4255 160.601L96.6276 161.407L96.8298 162.213C97.0486 163.086 97.0394 163.982 96.7595 164.856L96.5222 165.595L96.2859 166.335C96.019 167.167 95.5501 167.887 94.9177 168.479L93.7321 169.586C93.4185 169.879 93.1588 170.17 92.947 170.458L92.5095 171.053L92.3327 171.291C92.3749 171.346 92.4163 171.401 92.4587 171.455L93.4118 172.678C93.8794 173.277 94.2276 173.946 94.4528 174.672L94.6843 175.417L94.9157 176.163C95.006 176.454 95.1416 176.729 95.3288 176.992L95.7898 177.641L96.2507 178.29C96.8746 179.168 97.0928 180.191 96.9245 181.232L96.7937 182.046L96.6618 182.86C96.5919 183.292 96.5657 183.684 96.5759 184.038L96.6189 185.519C96.6217 185.618 96.6257 185.701 96.6306 185.767C96.6311 185.774 96.632 185.781 96.6325 185.787L96.7341 185.972C97.0796 186.6 97.0282 187.237 97.0066 187.463C96.9758 187.785 96.9017 188.111 96.8191 188.407L96.4128 189.864C96.3798 189.983 96.3665 190.14 96.4255 190.375L96.6276 191.182L96.8298 191.987C97.0486 192.86 97.0394 193.757 96.7595 194.63L96.5222 195.369L96.2859 196.11C96.019 196.942 95.5501 197.662 94.9177 198.253L93.7321 199.361C93.4185 199.654 93.1588 199.945 92.947 200.233L92.5095 200.827L92.3327 201.066C92.3749 201.12 92.4163 201.175 92.4587 201.23L93.4118 202.452C93.8794 203.052 94.2276 203.72 94.4528 204.446L94.6843 205.192L94.9157 205.938C95.006 206.229 95.1416 206.503 95.3288 206.767L95.7898 207.415L96.2507 208.065C96.8746 208.942 97.0928 209.965 96.9245 211.006L96.7937 211.82L96.6618 212.634C96.5919 213.066 96.5657 213.459 96.5759 213.813L96.6189 215.293C96.6217 215.393 96.6257 215.475 96.6306 215.541C96.6311 215.548 96.632 215.555 96.6325 215.562L96.7341 215.746C97.0796 216.375 97.0282 217.011 97.0066 217.237C96.9758 217.559 96.9017 217.885 96.8191 218.182L96.4128 219.639C96.3798 219.757 96.3665 219.914 96.4255 220.15L96.6276 220.956L96.8298 221.762C97.0486 222.634 97.0394 223.531 96.7595 224.404L96.5222 225.144L96.2859 225.884C96.019 226.716 95.5501 227.436 94.9177 228.028L93.7321 229.135C93.4185 229.428 93.1588 229.719 92.947 230.007L92.5095 230.602L92.3327 230.84C92.3749 230.895 92.4163 230.95 92.4587 231.004L93.4118 232.227C93.8794 232.826 94.2276 233.495 94.4528 234.221L94.6843 234.966L94.9157 235.712C95.006 236.003 95.1416 236.278 95.3288 236.541L95.7898 237.19L96.2507 237.839C96.8746 238.717 97.0928 239.74 96.9245 240.78L96.7937 241.595L96.6618 242.408C96.5919 242.841 96.5657 243.233 96.5759 243.587L96.6189 245.068C96.6217 245.167 96.6257 245.249 96.6306 245.316C96.6311 245.323 96.632 245.33 96.6325 245.336L96.7341 245.521C97.0796 246.149 97.0282 246.785 97.0066 247.012C96.9758 247.333 96.9017 247.66 96.8191 247.956L96.4128 249.413C96.3798 249.532 96.3665 249.689 96.4255 249.924L96.6276 250.731L96.8298 251.536C97.0486 252.409 97.0394 253.306 96.7595 254.179L96.5222 254.918L96.2859 255.658C96.019 256.491 95.5501 257.211 94.9177 257.802L93.7321 258.909C93.4185 259.203 93.1588 259.494 92.947 259.781L92.5095 260.376L92.3327 260.614C92.3749 260.669 92.4163 260.724 92.4587 260.779L93.4118 262.001C93.8794 262.601 94.2276 263.269 94.4528 263.995L94.6843 264.74L94.9157 265.487C95.006 265.777 95.1416 266.052 95.3288 266.316L95.7898 266.964L96.2507 267.613C96.8747 268.491 97.0928 269.514 96.9245 270.555L96.7937 271.369L96.6618 272.183C96.5919 272.615 96.5657 273.007 96.5759 273.362L96.6189 274.842C96.6217 274.942 96.6257 275.024 96.6306 275.09C96.6311 275.097 96.632 275.104 96.6325 275.111L96.7341 275.295C97.0796 275.923 97.0282 276.56 97.0066 276.786C96.9758 277.108 96.9017 277.434 96.8191 277.731L96.4128 279.188C96.3798 279.306 96.3665 279.463 96.4255 279.698L96.6276 280.505L96.8298 281.311C97.0486 282.183 97.0393 283.08 96.7595 283.953L96.5222 284.693L96.2859 285.433C96.0892 286.046 95.7813 286.597 95.3806 287.082C95.7755 287.347 96.127 287.683 96.4206 288.092L96.8776 288.731L97.3357 289.369C97.6252 289.773 97.9206 290.167 98.2214 290.553L99.1745 291.776C99.6421 292.375 99.9902 293.044 100.216 293.77L100.447 294.515L100.678 295.261C100.769 295.552 100.904 295.827 101.092 296.09L101.552 296.738L102.013 297.388C102.637 298.266 102.855 299.289 102.687 300.329L102.556 301.144L102.425 301.957C102.355 302.389 102.328 302.782 102.339 303.136L102.382 304.616C102.384 304.716 102.388 304.798 102.393 304.864C102.394 304.872 102.395 304.878 102.395 304.885L102.497 305.07C102.842 305.698 102.791 306.334 102.769 306.561C102.738 306.882 102.664 307.209 102.582 307.505L102.175 308.962C102.145 309.07 102.133 309.209 102.175 309.41L102.588 309.526L103.332 309.733C103.87 309.882 104.406 310.05 104.938 310.237L105.675 310.494L106.412 310.752C107.344 311.078 108.085 311.687 108.616 312.487L109.078 313.182L109.539 313.877C109.552 313.897 109.561 313.907 109.564 313.91C109.566 313.912 109.567 313.913 109.567 313.913C109.568 313.914 109.571 313.914 109.575 313.916C109.582 313.919 109.599 313.926 109.627 313.933L110.449 314.132L110.59 314.165L110.82 313.861C111.204 313.351 111.634 312.877 112.109 312.442L112.689 311.909L113.269 311.376C113.981 310.723 114.85 310.341 115.811 310.256L116.597 310.187L117.383 310.116C117.847 310.075 118.292 310.016 118.717 309.938L120.185 309.668C120.588 309.594 120.995 309.491 121.407 309.36L122.142 309.124L122.879 308.889C123.491 308.693 124.12 308.556 124.761 308.479L125.539 308.385L126.317 308.29C127.099 308.196 127.877 308.257 128.634 308.473L129.386 308.687L130.137 308.902C130.634 309.043 131.128 309.182 131.619 309.319L132.362 309.526L133.106 309.733C133.644 309.882 134.181 310.05 134.713 310.237L135.449 310.494L136.186 310.752C137.118 311.078 137.859 311.687 138.39 312.487L138.852 313.182L139.313 313.877C139.326 313.897 139.335 313.907 139.339 313.91C139.34 313.912 139.341 313.913 139.342 313.913C139.342 313.914 139.345 313.914 139.349 313.916C139.357 313.919 139.373 313.926 139.401 313.933L140.223 314.132L140.364 314.165L140.594 313.861C140.978 313.351 141.409 312.877 141.884 312.442L142.464 311.909L143.044 311.376C143.755 310.723 144.624 310.341 145.586 310.256L146.372 310.187L147.157 310.116C147.622 310.075 148.066 310.016 148.491 309.938L149.96 309.668C150.362 309.594 150.769 309.491 151.181 309.36L151.917 309.124L152.653 308.889C153.265 308.693 153.894 308.556 154.536 308.479L155.313 308.385L156.092 308.29C156.873 308.196 157.651 308.257 158.409 308.473L159.161 308.687L159.912 308.902C160.408 309.043 160.902 309.182 161.393 309.319L162.136 309.526L162.881 309.733C163.419 309.882 163.955 310.05 164.487 310.237L165.223 310.494L165.961 310.752C166.892 311.078 167.634 311.687 168.165 312.487L168.627 313.182L169.088 313.877C169.1 313.896 169.11 313.907 169.113 313.91C169.114 313.912 169.115 313.913 169.116 313.913C169.117 313.914 169.12 313.914 169.124 313.916C169.131 313.919 169.148 313.926 169.175 313.933L169.998 314.132L170.138 314.165L170.369 313.861C170.753 313.351 171.183 312.877 171.658 312.442L172.238 311.909L172.818 311.376C173.529 310.723 174.399 310.341 175.36 310.256L176.146 310.187L176.931 310.116C177.396 310.075 177.841 310.016 178.265 309.938L179.734 309.668C180.136 309.594 180.544 309.491 180.956 309.36L181.691 309.124L182.427 308.889C183.04 308.693 183.668 308.556 184.31 308.479L185.088 308.385L185.866 308.29C186.648 308.196 187.426 308.257 188.183 308.473L188.935 308.687L189.686 308.902C190.182 309.043 190.677 309.182 191.168 309.319L191.911 309.526L192.655 309.733C193.193 309.882 193.729 310.05 194.261 310.237L194.998 310.494L195.735 310.752C196.667 311.078 197.408 311.687 197.939 312.487L198.401 313.182L198.862 313.877C198.875 313.896 198.884 313.907 198.887 313.91C198.889 313.912 198.89 313.913 198.89 313.913C198.891 313.914 198.894 313.914 198.898 313.916C198.905 313.919 198.922 313.926 198.95 313.933L199.772 314.132L199.913 314.165L200.143 313.861C200.527 313.351 200.958 312.877 201.432 312.442L202.012 311.909L202.592 311.376C203.304 310.723 204.173 310.341 205.134 310.256L205.921 310.187L206.706 310.116C207.171 310.075 207.615 310.016 208.04 309.938L209.509 309.668C209.911 309.594 210.318 309.491 210.73 309.36L211.466 309.124L212.202 308.889C212.814 308.693 213.443 308.556 214.085 308.479L214.862 308.385L215.64 308.29C216.422 308.196 217.2 308.257 217.958 308.473L218.71 308.687L219.461 308.902C219.957 309.043 220.451 309.182 220.942 309.319L221.685 309.526L222.429 309.733C222.968 309.882 223.504 310.05 224.036 310.237L224.772 310.494L225.509 310.752C226.441 311.078 227.182 311.687 227.714 312.487L228.175 313.182L228.636 313.877C228.649 313.896 228.658 313.907 228.662 313.91C228.663 313.912 228.664 313.913 228.665 313.913C228.666 313.914 228.669 313.915 228.673 313.916C228.68 313.919 228.696 313.926 228.724 313.933L229.547 314.132L229.687 314.165L229.918 313.861C230.301 313.351 230.732 312.877 231.207 312.442L231.787 311.909L232.367 311.376C233.078 310.723 233.948 310.341 234.909 310.256L235.695 310.187L236.48 310.116C236.945 310.075 237.39 310.016 237.814 309.938L239.283 309.668C239.685 309.594 240.093 309.491 240.505 309.36L241.24 309.124L241.976 308.889C242.589 308.693 243.217 308.556 243.859 308.479L244.636 308.385L245.415 308.29C246.197 308.196 246.975 308.257 247.732 308.473L248.484 308.687L249.235 308.902C249.731 309.043 250.225 309.182 250.717 309.319L251.46 309.526L252.204 309.733C252.742 309.882 253.278 310.05 253.81 310.237L254.547 310.494L255.284 310.752C256.216 311.078 256.957 311.687 257.488 312.487L257.95 313.182L258.411 313.877C258.424 313.896 258.433 313.907 258.436 313.91C258.438 313.912 258.439 313.913 258.439 313.913C258.44 313.914 258.443 313.915 258.447 313.916C258.454 313.919 258.471 313.926 258.499 313.933L259.321 314.132L259.462 314.165L259.692 313.861C260.076 313.351 260.506 312.877 260.981 312.442L261.561 311.909L262.141 311.376C262.853 310.723 263.722 310.341 264.683 310.256L265.469 310.187L266.255 310.116C266.719 310.075 267.164 310.016 267.589 309.938L269.057 309.668C269.46 309.594 269.867 309.491 270.279 309.36L271.014 309.124L271.751 308.889C272.363 308.693 272.992 308.556 273.634 308.479L274.411 308.385L275.189 308.29C275.971 308.196 276.749 308.257 277.507 308.473L278.259 308.687L279.009 308.902C279.506 309.043 280 309.182 280.491 309.319L281.234 309.526L281.978 309.733C282.517 309.882 283.053 310.05 283.585 310.237L284.321 310.494L285.058 310.752C285.99 311.078 286.731 311.687 287.262 312.487L287.724 313.182L288.185 313.877C288.198 313.896 288.207 313.907 288.211 313.91C288.212 313.912 288.213 313.913 288.214 313.913C288.215 313.914 288.218 313.915 288.221 313.916C288.229 313.919 288.245 313.926 288.273 313.933L289.095 314.132L289.236 314.165L289.467 313.861C289.85 313.351 290.281 312.877 290.756 312.442L291.336 311.909L291.916 311.376C292.627 310.723 293.496 310.341 294.458 310.256L295.244 310.187L296.029 310.116C296.494 310.075 296.939 310.016 297.363 309.938L298.832 309.668C299.234 309.594 299.641 309.491 300.053 309.36L300.789 309.124L301.525 308.889C302.137 308.693 302.766 308.556 303.408 308.479L304.185 308.385L304.964 308.29C305.746 308.196 306.523 308.257 307.281 308.473L308.033 308.687L308.784 308.902C309.28 309.043 309.774 309.182 310.265 309.319L311.009 309.526L311.753 309.733C312.291 309.882 312.827 310.05 313.359 310.237L314.095 310.494L314.833 310.752C315.306 310.918 315.729 311.158 316.101 311.457L316.237 311.249C316.336 311.096 316.422 310.89 316.466 310.596L316.587 309.778L316.709 308.958L316.748 308.738C316.973 307.651 317.643 306.779 318.656 306.276L319.394 305.908L320.134 305.541C320.57 305.324 320.963 305.103 321.313 304.881L321.86 304.532C321.385 304.33 320.914 304.103 320.45 303.847L319.038 303.07C318.154 302.582 317.499 301.832 317.147 300.875L316.875 300.133L316.601 299.39C316.474 299.042 316.313 298.729 316.122 298.446L315.692 297.814L315.263 297.181C314.915 296.667 314.61 296.125 314.349 295.559L314.027 294.857L313.704 294.155C313.292 293.26 313.218 292.305 313.427 291.371L313.609 290.564L313.791 289.755C313.858 289.457 313.853 289.23 313.817 289.053L313.526 287.604C313.419 287.068 313.332 286.523 313.266 285.97L313.087 284.462C312.991 283.658 313.077 282.861 313.344 282.097L313.594 281.382L313.844 280.666C313.991 280.247 314.116 279.826 314.22 279.405L314.4 278.682L314.579 277.959C314.752 277.262 315.036 276.608 315.426 276.005L316.237 274.751C316.336 274.598 316.422 274.392 316.466 274.098L316.587 273.279L316.709 272.46L316.748 272.24C316.973 271.153 317.643 270.281 318.656 269.778L319.394 269.41L320.134 269.043C320.57 268.826 320.963 268.605 321.313 268.383L321.859 268.035C321.384 267.833 320.914 267.605 320.45 267.35L319.038 266.572C318.154 266.085 317.499 265.335 317.147 264.378L316.875 263.636L316.601 262.893C316.474 262.545 316.313 262.232 316.122 261.949L315.692 261.317L315.263 260.684C314.915 260.17 314.61 259.628 314.349 259.062L314.027 258.36L313.704 257.658C313.292 256.763 313.218 255.808 313.427 254.874L313.609 254.067L313.791 253.258C313.858 252.96 313.853 252.733 313.817 252.556L313.526 251.107C313.419 250.571 313.332 250.026 313.266 249.473L313.087 247.965C312.991 247.161 313.078 246.364 313.344 245.6L313.594 244.885L313.844 244.169C313.991 243.75 314.116 243.329 314.22 242.908L314.4 242.185L314.579 241.462C314.752 240.765 315.036 240.111 315.426 239.508L316.237 238.254C316.336 238.101 316.422 237.895 316.466 237.601L316.587 236.782L316.709 235.963L316.748 235.743C316.973 234.656 317.643 233.784 318.656 233.28L319.394 232.913L320.134 232.546C320.57 232.329 320.963 232.108 321.313 231.886L321.86 231.537C321.385 231.335 320.914 231.107 320.45 230.852L319.038 230.074C318.154 229.587 317.499 228.837 317.147 227.88L316.875 227.138L316.601 226.395C316.474 226.047 316.313 225.734 316.122 225.451L315.692 224.819L315.263 224.186C314.915 223.672 314.61 223.13 314.349 222.564L314.027 221.862L313.704 221.16C313.292 220.265 313.218 219.31 313.427 218.376L313.609 217.569L313.791 216.76C313.858 216.462 313.853 216.235 313.817 216.058L313.526 214.609C313.419 214.073 313.332 213.528 313.266 212.975L313.087 211.467C312.991 210.663 313.077 209.866 313.344 209.102L313.594 208.387L313.844 207.671C313.991 207.252 314.116 206.831 314.22 206.41L314.4 205.687L314.579 204.964C314.752 204.267 315.036 203.613 315.426 203.01L316.237 201.756C316.336 201.603 316.422 201.397 316.466 201.103L316.587 200.284L316.709 199.465L316.748 199.245C316.973 198.158 317.643 197.286 318.656 196.782L319.394 196.415L320.134 196.048C320.57 195.831 320.963 195.61 321.313 195.388L321.86 195.039C321.385 194.837 320.914 194.609 320.45 194.354L319.038 193.576C318.154 193.089 317.499 192.339 317.147 191.382L316.875 190.64L316.601 189.897C316.474 189.549 316.313 189.236 316.122 188.953L315.692 188.32L315.263 187.688C314.915 187.174 314.61 186.632 314.349 186.066L314.027 185.363L313.704 184.662C313.292 183.767 313.218 182.812 313.427 181.878L313.609 181.07L313.791 180.262C313.858 179.964 313.853 179.737 313.817 179.56L313.526 178.111C313.419 177.575 313.332 177.03 313.266 176.477L313.087 174.969C312.991 174.165 313.077 173.368 313.344 172.604L313.594 171.889L313.844 171.173C313.991 170.754 314.116 170.333 314.22 169.912L314.4 169.189L314.579 168.466C314.752 167.769 315.036 167.115 315.426 166.512L316.237 165.258C316.336 165.105 316.422 164.899 316.466 164.605L316.587 163.786L316.709 162.967L316.748 162.747C316.973 161.66 317.643 160.788 318.656 160.284L319.394 159.917L320.134 159.55C320.57 159.333 320.963 159.112 321.313 158.89L321.859 158.542C321.384 158.34 320.914 158.112 320.45 157.857L319.038 157.079C318.154 156.592 317.499 155.842 317.147 154.885L316.875 154.143L316.601 153.4C316.474 153.052 316.313 152.739 316.122 152.456L315.692 151.823L315.263 151.191C314.915 150.677 314.61 150.135 314.349 149.569L314.027 148.866L313.704 148.165C313.292 147.27 313.218 146.315 313.427 145.381L313.609 144.573L313.791 143.765C313.858 143.467 313.853 143.24 313.817 143.063L313.526 141.613C313.419 141.078 313.332 140.533 313.266 139.98L313.087 138.472C312.991 137.668 313.078 136.871 313.344 136.107L313.594 135.392L313.844 134.676C313.991 134.256 314.116 133.836 314.22 133.415L314.4 132.692L314.579 131.969C314.752 131.272 315.036 130.618 315.426 130.015L316.237 128.761C316.336 128.608 316.422 128.401 316.466 128.108L316.587 127.289L316.709 126.47L316.748 126.25C316.973 125.163 317.643 124.291 318.656 123.787L319.394 123.42L320.134 123.053C320.57 122.836 320.963 122.615 321.313 122.393L321.86 122.044C321.385 121.842 320.914 121.614 320.45 121.359L319.038 120.581C318.154 120.094 317.499 119.344 317.147 118.387L316.875 117.645L316.601 116.902C316.474 116.554 316.313 116.241 316.122 115.958L315.692 115.325L315.263 114.693C314.915 114.179 314.61 113.637 314.349 113.07L314.027 112.368L313.704 111.667C313.292 110.771 313.218 109.817 313.427 108.883L313.609 108.075L313.791 107.267C313.858 106.968 313.853 106.742 313.817 106.565L313.526 105.115C313.419 104.579 313.332 104.035 313.266 103.482L313.087 101.974C312.991 101.17 313.077 100.373 313.344 99.6086L313.594 98.8937L313.775 98.3752L313.704 98.2209C313.633 98.0676 313.573 97.9124 313.522 97.756C312.671 97.9512 311.814 97.9016 310.992 97.6174L310.265 97.3654L309.539 97.1144C309.374 97.0577 309.207 97.0402 309.006 97.0724L307.449 97.3224C306.706 97.4414 305.96 97.4326 305.222 97.2922L304.464 97.1476L303.705 97.0041C302.615 96.7967 301.764 96.1642 301.181 95.3049L300.698 94.593L300.215 93.8801C300.003 93.5685 299.811 93.3871 299.659 93.2814L298.485 92.467C298.224 92.2857 297.922 92.1218 297.574 91.9807L296.861 91.6916L296.149 91.4035C295.598 91.18 295.054 90.9187 294.517 90.6232L293.105 89.8459C292.799 89.6774 292.522 89.4764 292.274 89.2473L291.979 89.4523Z" fill="var(--fill-0, #FFFBFC)"/>
</g>
<defs>
<filter id="filter0_d_373_29797" x="5.0175e-07" y="2.66242e-07" width="410.071" height="406.122" filterUnits="userSpaceOnUse" color-interpolation-filters="sRGB">
<feFlood flood-opacity="0" result="BackgroundImageFix"/>
<feColorMatrix in="SourceAlpha" type="matrix" values="0 0 0 0 0 0 0 0 0 0 0 0 0 0 0 0 0 0 127 0" result="hardAlpha"/>
<feOffset/>
<feGaussianBlur stdDeviation="23.5"/>
<feComposite in2="hardAlpha" operator="out"/>
<feColorMatrix type="matrix" values="0 0 0 0 1 0 0 0 0 0.441106 0 0 0 0 0.576011 0 0 0 0.08 0"/>
<feBlend mode="normal" in2="BackgroundImageFix" result="effect1_dropShadow_373_29797"/>
<feBlend mode="normal" in="SourceGraphic" in2="effect1_dropShadow_373_29797" result="shape"/>
</filter>
</defs>
</svg>
