<svg preserveAspectRatio="none" width="100%" height="100%" overflow="visible" style="display: block;" viewBox="0 0 344.023 320.875" fill="none" xmlns="http://www.w3.org/2000/svg">
<path id="Union" d="M319.492 0.0431354C320.274 -0.0514911 321.052 0.00966646 321.809 0.225753L322.561 0.43962L323.312 0.654464C323.808 0.796028 324.303 0.934935 324.794 1.07146L325.537 1.27849L326.281 1.48552C326.819 1.63515 327.355 1.80321 327.887 1.98942L328.624 2.24724L329.361 2.50505C330.293 2.8312 331.034 3.44042 331.565 4.2404L332.027 4.93474L332.488 5.63005C332.501 5.64929 332.51 5.65971 332.513 5.66325C332.515 5.66464 332.516 5.66578 332.516 5.66618C332.517 5.66671 332.52 5.66752 332.524 5.66911C332.532 5.67237 332.548 5.67904 332.576 5.68571L333.398 5.88493L334.221 6.08317C335.197 6.31878 336.051 6.85191 336.658 7.69841L337.115 8.33708L337.573 8.97575C337.862 9.37931 338.158 9.77396 338.459 10.1593L339.412 11.382C339.879 11.9813 340.228 12.6501 340.453 13.3761L340.684 14.1213L340.916 14.8674C341.006 15.1581 341.142 15.4332 341.329 15.6965L341.79 16.3449L342.251 16.9943C342.875 17.8721 343.093 18.8951 342.925 19.9357L342.794 20.7502L342.662 21.5636C342.592 21.9958 342.566 22.3883 342.576 22.7424L342.619 24.2228C342.622 24.3224 342.626 24.4048 342.631 24.4709C342.631 24.4778 342.632 24.4849 342.633 24.4914L342.734 24.6759C343.079 25.3042 343.028 25.9406 343.007 26.1672C342.976 26.4887 342.902 26.8151 342.819 27.1115L342.413 28.5685C342.38 28.6871 342.367 28.8443 342.425 29.0793L342.628 29.8859L342.83 30.6916C343.049 31.5641 343.039 32.461 342.759 33.3342L342.522 34.0734L342.286 34.8136C342.019 35.6458 341.55 36.366 340.918 36.9572L339.732 38.0646C339.418 38.3578 339.159 38.649 338.947 38.9367L338.509 39.5314L338.249 39.8849C338.319 39.9765 338.388 40.0688 338.459 40.1593L339.412 41.382C339.879 41.9813 340.228 42.6501 340.453 43.3761L340.684 44.1213L340.916 44.8674C341.006 45.1581 341.142 45.4332 341.329 45.6965L341.79 46.3449L342.251 46.9943C342.875 47.8721 343.093 48.8951 342.925 49.9357L342.794 50.7502L342.662 51.5636C342.592 51.9958 342.566 52.3883 342.576 52.7424L342.619 54.2228C342.622 54.3224 342.626 54.4048 342.631 54.4709C342.631 54.4778 342.632 54.4849 342.633 54.4914L342.734 54.6759C343.079 55.3042 343.028 55.9406 343.007 56.1672C342.976 56.4887 342.902 56.815 342.819 57.1115L342.413 58.5685C342.38 58.6871 342.367 58.8443 342.425 59.0793L342.628 59.8859L342.83 60.6916C343.049 61.5641 343.039 62.461 342.759 63.3342L342.522 64.0734L342.286 64.8136C342.019 65.6458 341.55 66.366 340.918 66.9572L339.732 68.0646C339.418 68.3578 339.159 68.649 338.947 68.9367L338.509 69.5314L338.249 69.8849C338.319 69.9765 338.388 70.0688 338.459 70.1593L339.412 71.382C339.879 71.9813 340.228 72.6501 340.453 73.3761L340.684 74.1213L340.916 74.8674C341.006 75.1581 341.142 75.4332 341.329 75.6965L341.79 76.3449L342.251 76.9943C342.875 77.8721 343.093 78.8951 342.925 79.9357L342.794 80.7502L342.662 81.5636C342.592 81.9958 342.566 82.3883 342.576 82.7424L342.619 84.2228C342.622 84.3224 342.626 84.4048 342.631 84.4709C342.631 84.4778 342.632 84.4849 342.633 84.4914L342.734 84.6759C343.079 85.3042 343.028 85.9406 343.007 86.1672C342.976 86.4887 342.902 86.815 342.819 87.1115L342.413 88.5685C342.38 88.6871 342.367 88.8443 342.425 89.0793L342.628 89.8859L342.83 90.6916C343.049 91.5641 343.039 92.461 342.759 93.3342L342.522 94.0734L342.286 94.8136C342.019 95.6458 341.55 96.366 340.918 96.9572L339.732 98.0646C339.418 98.3578 339.159 98.649 338.947 98.9367L338.509 99.5314L338.249 99.8849C338.319 99.9765 338.388 100.069 338.459 100.159L339.412 101.382C339.879 101.981 340.228 102.65 340.453 103.376L340.684 104.121L340.916 104.867C341.006 105.158 341.142 105.433 341.329 105.696L341.79 106.345L342.251 106.994C342.875 107.872 343.093 108.895 342.925 109.936L342.794 110.75L342.662 111.564C342.592 111.996 342.566 112.388 342.576 112.742L342.619 114.223C342.622 114.322 342.626 114.405 342.631 114.471C342.631 114.478 342.632 114.485 342.633 114.491L342.734 114.676C343.079 115.304 343.028 115.941 343.007 116.167C342.976 116.489 342.902 116.815 342.819 117.111L342.413 118.569C342.38 118.687 342.367 118.844 342.425 119.079L342.628 119.886L342.83 120.692C343.049 121.564 343.039 122.461 342.759 123.334L342.522 124.073L342.286 124.814C342.019 125.646 341.55 126.366 340.918 126.957L339.732 128.065C339.418 128.358 339.159 128.649 338.947 128.937L338.509 129.531L338.249 129.885C338.319 129.977 338.388 130.069 338.459 130.159L339.412 131.382C339.879 131.981 340.228 132.65 340.453 133.376L340.684 134.121L340.916 134.867C341.006 135.158 341.142 135.433 341.329 135.696L341.79 136.345L342.251 136.994C342.875 137.872 343.093 138.895 342.925 139.936L342.794 140.75L342.662 141.564C342.592 141.996 342.566 142.388 342.576 142.742L342.619 144.223C342.622 144.322 342.626 144.405 342.631 144.471C342.631 144.478 342.632 144.485 342.633 144.491L342.734 144.676C343.079 145.304 343.028 145.941 343.007 146.167C342.976 146.489 342.902 146.815 342.819 147.111L342.413 148.569C342.38 148.687 342.367 148.844 342.425 149.079L342.628 149.886L342.83 150.692C343.049 151.564 343.039 152.461 342.759 153.334L342.522 154.073L342.286 154.814C342.019 155.646 341.55 156.366 340.918 156.957L339.732 158.065C339.418 158.358 339.159 158.649 338.947 158.937L338.509 159.531L338.249 159.885C338.319 159.977 338.388 160.069 338.459 160.159L339.412 161.382C339.879 161.981 340.228 162.65 340.453 163.376L340.684 164.121L340.916 164.867C341.006 165.158 341.142 165.433 341.329 165.696L341.79 166.345L342.251 166.994C342.875 167.872 343.093 168.895 342.925 169.936L342.794 170.75L342.662 171.564C342.592 171.996 342.566 172.388 342.576 172.742L342.619 174.223C342.622 174.322 342.626 174.405 342.631 174.471C342.631 174.478 342.632 174.485 342.633 174.491L342.734 174.676C343.079 175.304 343.028 175.941 343.007 176.167C342.976 176.489 342.902 176.815 342.819 177.111L342.413 178.569C342.38 178.687 342.367 178.844 342.425 179.079L342.628 179.886L342.83 180.692C343.049 181.564 343.039 182.461 342.759 183.334L342.522 184.073L342.286 184.814C342.019 185.646 341.55 186.366 340.918 186.957L339.732 188.065C339.418 188.358 339.159 188.649 338.947 188.937L338.509 189.531L338.249 189.885C338.319 189.977 338.388 190.069 338.459 190.159L339.412 191.382C339.879 191.981 340.228 192.65 340.453 193.376L340.684 194.121L340.916 194.867C341.006 195.158 341.142 195.433 341.329 195.696L341.79 196.345L342.251 196.994C342.875 197.872 343.093 198.895 342.925 199.936L342.794 200.75L342.662 201.564C342.592 201.996 342.566 202.388 342.576 202.742L342.619 204.223C342.622 204.322 342.626 204.405 342.631 204.471C342.631 204.478 342.632 204.485 342.633 204.491L342.734 204.676C343.079 205.304 343.028 205.941 343.007 206.167C342.976 206.489 342.902 206.815 342.819 207.111L342.413 208.569C342.38 208.687 342.367 208.844 342.425 209.079L342.628 209.886L342.83 210.692C343.049 211.564 343.039 212.461 342.759 213.334L342.522 214.073L342.286 214.814C342.019 215.646 341.55 216.366 340.918 216.957L339.732 218.065C339.418 218.358 339.159 218.649 338.947 218.937L338.509 219.531L338.38 219.706L338.573 219.976C338.862 220.379 339.158 220.774 339.459 221.159L340.412 222.382C340.879 222.981 341.228 223.65 341.453 224.376L341.684 225.121L341.916 225.867C342.006 226.158 342.142 226.433 342.329 226.696L342.79 227.345L343.251 227.994C343.875 228.872 344.093 229.895 343.925 230.936L343.794 231.75L343.662 232.564C343.592 232.996 343.566 233.388 343.576 233.742L343.619 235.223C343.622 235.322 343.626 235.405 343.631 235.471C343.631 235.478 343.632 235.485 343.633 235.491L343.734 235.676C344.079 236.304 344.028 236.941 344.007 237.167C343.976 237.489 343.902 237.815 343.819 238.111L343.413 239.569C343.38 239.687 343.367 239.844 343.425 240.079L343.628 240.886L343.83 241.692C344.049 242.564 344.039 243.461 343.759 244.334L343.522 245.073L343.286 245.814C343.019 246.646 342.55 247.366 341.918 247.957L340.732 249.065C340.418 249.358 340.159 249.649 339.947 249.937L339.509 250.531L339.072 251.125C338.648 251.701 338.137 252.196 337.549 252.604L336.935 253.028L336.321 253.452C336.291 253.473 336.227 253.522 336.159 253.706L335.87 254.491L335.582 255.277C335.239 256.209 334.614 256.997 333.693 257.492L333.022 257.854L332.352 258.214C332.011 258.398 331.682 258.613 331.365 258.864L330.755 259.348L330.143 259.831C329.205 260.574 328.085 260.749 327.01 260.513L325.307 260.138C325.195 260.113 325.129 260.114 325.101 260.116C325.078 260.118 325.07 260.121 325.066 260.123L324.392 260.443L323.717 260.761C323.143 261.032 322.545 261.242 321.925 261.392L321.191 261.569L320.458 261.746C319.59 261.955 318.714 261.907 317.876 261.617L317.149 261.365L316.423 261.114C316.258 261.058 316.091 261.04 315.889 261.072L314.333 261.322C313.59 261.441 312.844 261.432 312.106 261.292L311.347 261.148L310.589 261.004C309.499 260.797 308.648 260.164 308.065 259.305L307.975 259.172L307.755 259.348L307.143 259.831C306.205 260.574 305.085 260.749 304.01 260.513L302.307 260.138C302.195 260.113 302.129 260.114 302.101 260.116C302.078 260.118 302.07 260.121 302.066 260.123L301.392 260.443L300.717 260.761C300.143 261.032 299.545 261.242 298.925 261.392L298.191 261.569L297.458 261.746C296.59 261.955 295.714 261.907 294.876 261.617L294.149 261.365L293.423 261.114C293.258 261.058 293.091 261.04 292.889 261.072L291.333 261.322C290.59 261.441 289.844 261.432 289.106 261.292L288.347 261.148L287.589 261.004C286.499 260.797 285.648 260.164 285.065 259.305L284.582 258.593L284.098 257.88C283.887 257.569 283.695 257.387 283.543 257.281L282.369 256.467C282.273 256.4 282.17 256.337 282.062 256.276C281.716 256.769 281.261 257.187 280.693 257.492L280.022 257.854L279.352 258.214C279.011 258.398 278.682 258.613 278.365 258.864L277.755 259.348L277.143 259.831C276.205 260.574 275.085 260.749 274.01 260.513L272.307 260.138C272.194 260.113 272.129 260.114 272.101 260.116C272.078 260.118 272.07 260.121 272.066 260.123L271.392 260.443L270.717 260.761C270.143 261.032 269.545 261.242 268.925 261.392L268.191 261.569L267.458 261.746C266.59 261.955 265.714 261.907 264.876 261.617L264.149 261.365L263.423 261.114C263.258 261.058 263.091 261.04 262.889 261.072L261.333 261.322C260.59 261.441 259.844 261.433 259.106 261.292L258.347 261.148L257.589 261.004C257.167 260.924 256.782 260.779 256.434 260.583C256.293 260.567 256.151 260.544 256.01 260.513L255.595 260.421L255.619 261.223C255.622 261.322 255.626 261.405 255.631 261.471C255.631 261.478 255.632 261.485 255.633 261.491L255.734 261.676C256.079 262.304 256.028 262.941 256.007 263.167C255.976 263.489 255.902 263.815 255.819 264.111L255.413 265.569C255.38 265.687 255.367 265.844 255.425 266.079L255.628 266.886L255.83 267.692C256.049 268.564 256.039 269.461 255.759 270.334L255.522 271.073L255.286 271.814C255.019 272.646 254.55 273.366 253.918 273.957L252.732 275.065C252.418 275.358 252.159 275.649 251.947 275.937L251.509 276.531L251.072 277.125C250.648 277.701 250.137 278.196 249.549 278.604L248.935 279.028L248.704 279.187L248.916 279.867C249.006 280.158 249.142 280.433 249.329 280.696L249.79 281.345L250.251 281.994C250.875 282.872 251.093 283.895 250.925 284.936L250.794 285.75L250.662 286.564C250.605 286.913 250.578 287.236 250.575 287.534C250.946 288.28 251.059 289.102 250.925 289.936L250.902 290.074C251.056 290.557 251.024 290.989 251.007 291.167C250.976 291.489 250.902 291.815 250.819 292.111L250.582 292.96L250.619 294.223C250.622 294.322 250.626 294.405 250.631 294.471C250.631 294.478 250.632 294.485 250.633 294.491L250.734 294.676C251.079 295.304 251.028 295.941 251.007 296.167C250.996 296.274 250.98 296.38 250.962 296.486C251.016 297.103 250.955 297.724 250.759 298.334L250.522 299.073L250.466 299.245L250.628 299.886L250.83 300.692C251.049 301.564 251.039 302.461 250.759 303.334L250.522 304.073L250.286 304.814C250.019 305.646 249.55 306.366 248.918 306.957L247.732 308.065C247.418 308.358 247.159 308.649 246.947 308.937L246.509 309.531L246.072 310.125C245.648 310.701 245.137 311.196 244.549 311.604L243.935 312.028L243.321 312.452C243.291 312.473 243.227 312.522 243.159 312.706L242.87 313.491L242.582 314.277C242.239 315.209 241.614 315.997 240.693 316.492L240.022 316.854L239.352 317.214C239.011 317.398 238.682 317.613 238.365 317.864L237.755 318.348L237.143 318.831C236.205 319.574 235.085 319.749 234.01 319.513L232.307 319.138C232.194 319.113 232.129 319.114 232.101 319.116C232.078 319.118 232.07 319.121 232.066 319.123L231.392 319.443L230.717 319.761C230.143 320.032 229.545 320.242 228.925 320.392L228.191 320.569L227.458 320.746C226.59 320.955 225.714 320.907 224.876 320.617L224.149 320.365L223.423 320.114C223.258 320.058 223.091 320.04 222.889 320.072L221.333 320.322C220.59 320.441 219.844 320.433 219.106 320.292L218.347 320.148L217.589 320.004C217.167 319.924 216.782 319.779 216.434 319.583C216.293 319.567 216.151 319.544 216.01 319.513L214.307 319.138C214.194 319.113 214.129 319.114 214.101 319.116C214.078 319.118 214.07 319.121 214.066 319.123L213.392 319.443L212.717 319.761C212.143 320.032 211.545 320.242 210.925 320.392L210.191 320.569L209.458 320.746C208.59 320.955 207.714 320.907 206.876 320.617L206.149 320.365L205.423 320.114C205.258 320.058 205.091 320.04 204.889 320.072L203.333 320.322C202.59 320.441 201.844 320.433 201.106 320.292L200.347 320.148L199.589 320.004C199.167 319.924 198.782 319.779 198.434 319.583C198.293 319.567 198.151 319.544 198.01 319.513L196.307 319.138C196.194 319.113 196.129 319.114 196.101 319.116C196.078 319.118 196.07 319.121 196.066 319.123L195.392 319.443L194.717 319.761C194.143 320.032 193.545 320.242 192.925 320.392L192.191 320.569L191.458 320.746C190.59 320.955 189.714 320.907 188.876 320.617L188.149 320.365L187.423 320.114C187.258 320.058 187.091 320.04 186.889 320.072L185.333 320.322C184.59 320.441 183.844 320.433 183.106 320.292L182.347 320.148L181.589 320.004C181.167 319.924 180.782 319.779 180.434 319.583C180.293 319.567 180.151 319.544 180.01 319.513L178.307 319.138C178.194 319.113 178.129 319.114 178.101 319.116C178.078 319.118 178.07 319.121 178.066 319.123L177.392 319.443L176.717 319.761C176.143 320.032 175.545 320.242 174.925 320.392L174.191 320.569L173.458 320.746C172.59 320.955 171.714 320.907 170.876 320.617L170.149 320.365L169.423 320.114C169.258 320.058 169.091 320.04 168.889 320.072L167.333 320.322C166.59 320.441 165.844 320.433 165.106 320.292L164.347 320.148L163.589 320.004C163.167 319.924 162.782 319.779 162.434 319.583C162.293 319.567 162.151 319.544 162.01 319.513L160.307 319.138C160.194 319.113 160.129 319.114 160.101 319.116C160.078 319.118 160.07 319.121 160.066 319.123L159.392 319.443L158.717 319.761C158.143 320.032 157.545 320.242 156.925 320.392L156.191 320.569L155.458 320.746C154.59 320.955 153.714 320.907 152.876 320.617L152.149 320.365L151.423 320.114C151.258 320.058 151.091 320.04 150.889 320.072L149.333 320.322C148.59 320.441 147.844 320.433 147.106 320.292L146.347 320.148L145.589 320.004C145.167 319.924 144.782 319.779 144.434 319.583C144.293 319.567 144.151 319.544 144.01 319.513L142.307 319.138C142.195 319.113 142.129 319.114 142.101 319.116C142.078 319.118 142.07 319.121 142.066 319.123L141.392 319.443L140.717 319.761C140.143 320.032 139.545 320.242 138.925 320.392L138.191 320.569L137.458 320.746C136.59 320.955 135.714 320.907 134.876 320.617L134.149 320.365L133.423 320.114C133.258 320.058 133.091 320.04 132.889 320.072L131.333 320.322C130.59 320.441 129.844 320.433 129.106 320.292L128.347 320.148L127.589 320.004C127.167 319.924 126.782 319.779 126.434 319.583C126.293 319.567 126.151 319.544 126.01 319.513L124.307 319.138C124.195 319.113 124.129 319.114 124.101 319.116C124.078 319.118 124.07 319.121 124.066 319.123L123.392 319.443L122.717 319.761C122.143 320.032 121.545 320.242 120.925 320.392L120.191 320.569L119.458 320.746C118.59 320.955 117.714 320.907 116.876 320.617L116.149 320.365L115.423 320.114C115.258 320.058 115.091 320.04 114.889 320.072L113.333 320.322C112.59 320.441 111.844 320.433 111.106 320.292L110.347 320.148L109.589 320.004C108.499 319.797 107.648 319.164 107.065 318.305L106.582 317.593L106.098 316.88C105.887 316.569 105.695 316.387 105.543 316.281L104.369 315.467C104.108 315.286 103.806 315.122 103.458 314.981L102.745 314.692L102.033 314.403C101.482 314.18 100.937 313.919 100.401 313.623L98.989 312.846C98.1051 312.359 97.4497 311.608 97.0983 310.652L96.8259 309.909L96.5524 309.166C96.4248 308.819 96.2645 308.505 96.0729 308.223L95.6433 307.59L95.2145 306.957C94.8662 306.443 94.5611 305.902 94.3005 305.335L93.9782 304.633L93.655 303.932C93.243 303.036 93.1691 302.081 93.3786 301.148L93.5602 300.34L93.7419 299.531C93.8087 299.233 93.8037 299.006 93.7683 298.829L93.4772 297.38C93.3699 296.844 93.2835 296.299 93.2175 295.746L93.0378 294.238C92.9419 293.434 93.0286 292.638 93.2956 291.873L93.5456 291.158L93.7956 290.443C93.9421 290.023 94.0671 289.603 94.1716 289.182L94.3513 288.458L94.53 287.736C94.7029 287.038 94.9875 286.385 95.3776 285.781L96.1882 284.528C96.2873 284.374 96.373 284.168 96.4167 283.874L96.5378 283.056L96.6599 282.236L96.6989 282.017C96.7179 281.925 96.7411 281.836 96.7663 281.747L96.5524 281.166C96.4248 280.819 96.2645 280.505 96.0729 280.223L95.6433 279.59L95.2145 278.957C94.8662 278.443 94.5611 277.902 94.3005 277.335L93.9782 276.633L93.655 275.932C93.243 275.036 93.1691 274.081 93.3786 273.148L93.5602 272.34L93.7419 271.531C93.8087 271.233 93.8037 271.006 93.7683 270.829L93.4772 269.38C93.3699 268.844 93.2835 268.299 93.2175 267.746L93.0378 266.238C92.9419 265.434 93.0286 264.638 93.2956 263.873L93.4323 263.48C92.9167 263.081 92.5082 262.572 92.2302 261.97L91.7546 262.348L91.1433 262.831C90.2052 263.574 89.0852 263.749 88.0104 263.513L86.3073 263.138C86.1945 263.113 86.1288 263.114 86.1013 263.116C86.0783 263.118 86.0701 263.121 86.0661 263.123L85.3923 263.443L84.7175 263.761C84.1432 264.032 83.5445 264.242 82.9245 264.392L82.1911 264.569L81.4577 264.746C80.59 264.955 79.7137 264.907 78.8757 264.617L78.1491 264.365L77.4225 264.114C77.2582 264.058 77.0906 264.04 76.8893 264.072L75.3327 264.322C74.5901 264.441 73.8441 264.433 73.1061 264.292L72.3474 264.148L71.5886 264.004C70.4989 263.797 69.6482 263.164 69.0651 262.305L68.5817 261.593L68.0983 260.88C67.887 260.569 67.695 260.387 67.5427 260.281L66.3688 259.467C66.1075 259.286 65.8056 259.122 65.4577 258.981L64.7448 258.692L64.4587 258.575C64.0981 259.377 63.5134 260.051 62.6931 260.492L62.0222 260.854L61.3522 261.214C61.0112 261.398 60.682 261.613 60.3649 261.864L59.7546 262.348L59.1433 262.831C58.2052 263.574 57.0852 263.749 56.0104 263.513L54.3073 263.138C54.1945 263.113 54.1288 263.114 54.1013 263.116C54.0783 263.118 54.0701 263.121 54.0661 263.123L53.3923 263.443L52.7175 263.761C52.1432 264.032 51.5445 264.242 50.9245 264.392L50.1911 264.569L49.4577 264.746C48.59 264.955 47.7137 264.907 46.8757 264.617L46.1491 264.365L45.4225 264.114C45.2582 264.058 45.0906 264.04 44.8893 264.072L43.3327 264.322C42.5901 264.441 41.8441 264.433 41.1061 264.292L40.3474 264.148L39.5886 264.004C38.4989 263.797 37.6482 263.164 37.0651 262.305L36.9753 262.172L36.7546 262.348L36.1433 262.831C35.2052 263.574 34.0852 263.749 33.0104 263.513L31.3073 263.138C31.1945 263.113 31.1288 263.114 31.1013 263.116C31.0783 263.118 31.0701 263.121 31.0661 263.123L30.3923 263.443L29.7175 263.761C29.1432 264.032 28.5445 264.242 27.9245 264.392L27.1911 264.569L26.4577 264.746C25.59 264.955 24.7137 264.907 23.8757 264.617L23.1491 264.365L22.4225 264.114C22.2582 264.058 22.0906 264.04 21.8893 264.072L20.3327 264.322C19.5901 264.441 18.8441 264.433 18.1061 264.292L17.3474 264.148L16.5886 264.004C15.4989 263.797 14.6482 263.164 14.0651 262.305L13.5817 261.593L13.0983 260.88C12.887 260.569 12.695 260.387 12.5427 260.281L11.3688 259.467C11.1075 259.286 10.8056 259.122 10.4577 258.981L9.74481 258.692L9.0329 258.403C8.4817 258.18 7.93735 257.919 7.40106 257.623L5.98895 256.846C5.10512 256.359 4.44968 255.608 4.09833 254.652L3.82587 253.909L3.55243 253.166C3.42482 252.819 3.26451 252.505 3.07294 252.223L2.64325 251.59L2.21454 250.957C1.86622 250.443 1.56112 249.902 1.30048 249.335L0.978212 248.633L0.65497 247.932C0.243023 247.036 0.169113 246.081 0.378603 245.148L0.560243 244.34L0.741884 243.531C0.808739 243.233 0.803692 243.006 0.768251 242.829L0.477235 241.38C0.369899 240.844 0.283457 240.299 0.21747 239.746L0.0377823 238.238C-0.0580551 237.434 0.0286267 236.638 0.295595 235.873L0.545595 235.158L0.795595 234.443C0.942077 234.023 1.06714 233.603 1.17157 233.182L1.35126 232.458L1.52997 231.736C1.70295 231.038 1.98747 230.385 2.37763 229.781L3.18817 228.528C3.28733 228.374 3.37302 228.168 3.41669 227.874L3.53778 227.056L3.65985 226.236L3.69892 226.017C3.78826 225.586 3.9479 225.189 4.17059 224.835C4.14527 224.775 4.12111 224.714 4.09833 224.652L3.82587 223.909L3.55243 223.166C3.42482 222.819 3.26451 222.505 3.07294 222.223L2.64325 221.59L2.21454 220.957C1.86622 220.443 1.56112 219.902 1.30048 219.335L0.978212 218.633L0.65497 217.932C0.243023 217.036 0.169113 216.081 0.378603 215.148L0.560243 214.34L0.741884 213.531C0.808739 213.233 0.803692 213.006 0.768251 212.829L0.477235 211.38C0.369899 210.844 0.283457 210.299 0.21747 209.746L0.0377823 208.238C-0.0580551 207.434 0.0286267 206.638 0.295595 205.873L0.545595 205.158L0.795595 204.443C0.942077 204.023 1.06714 203.603 1.17157 203.182L1.35126 202.458L1.52997 201.736C1.70295 201.038 1.98747 200.385 2.37763 199.781L3.18817 198.528C3.28733 198.374 3.37302 198.168 3.41669 197.874L3.53778 197.056L3.65985 196.236L3.69892 196.017C3.78826 195.586 3.9479 195.189 4.17059 194.835C4.14527 194.775 4.12111 194.714 4.09833 194.652L3.82587 193.909L3.55243 193.166C3.42482 192.819 3.26451 192.505 3.07294 192.223L2.64325 191.59L2.21454 190.957C1.86622 190.443 1.56112 189.902 1.30048 189.335L0.978212 188.633L0.65497 187.932C0.243023 187.036 0.169113 186.081 0.378603 185.148L0.560243 184.34L0.741884 183.531C0.808739 183.233 0.803692 183.006 0.768251 182.829L0.477235 181.38C0.369899 180.844 0.283457 180.299 0.21747 179.746L0.0377823 178.238C-0.0580551 177.434 0.0286267 176.638 0.295595 175.873L0.545595 175.158L0.795595 174.443C0.942077 174.023 1.06714 173.603 1.17157 173.182L1.35126 172.458L1.52997 171.736C1.70295 171.038 1.98747 170.385 2.37763 169.781L3.18817 168.528C3.28733 168.374 3.37302 168.168 3.41669 167.874L3.53778 167.056L3.65985 166.236L3.69892 166.017C3.78826 165.586 3.9479 165.189 4.17059 164.835C4.14527 164.775 4.12111 164.714 4.09833 164.652L3.82587 163.909L3.55243 163.166C3.42482 162.819 3.26451 162.505 3.07294 162.223L2.64325 161.59L2.21454 160.957C1.86622 160.443 1.56112 159.902 1.30048 159.335L0.978212 158.633L0.65497 157.932C0.243024 157.036 0.169115 156.081 0.378603 155.148L0.560243 154.34L0.741884 153.531C0.808738 153.233 0.803691 153.006 0.768251 152.829L0.477235 151.38C0.369899 150.844 0.283457 150.299 0.21747 149.746L0.0377823 148.238C-0.0580548 147.434 0.0286285 146.638 0.295595 145.873L0.545595 145.158L0.795595 144.443C0.942076 144.023 1.06714 143.603 1.17157 143.182L1.35126 142.458L1.52997 141.736C1.70295 141.038 1.98747 140.385 2.37763 139.781L3.18817 138.528C3.28733 138.374 3.37302 138.168 3.41669 137.874L3.53778 137.056L3.65985 136.236L3.69892 136.017C3.78826 135.586 3.9479 135.189 4.17059 134.835C4.14527 134.775 4.12111 134.714 4.09833 134.652L3.82587 133.909L3.55243 133.166C3.42482 132.819 3.26451 132.505 3.07294 132.223L2.64325 131.59L2.21454 130.957C1.86622 130.443 1.56112 129.902 1.30048 129.335L0.978212 128.633L0.65497 127.932C0.243024 127.036 0.169115 126.081 0.378603 125.148L0.560243 124.34L0.741884 123.531C0.808738 123.233 0.803691 123.006 0.768251 122.829L0.477235 121.38C0.369899 120.844 0.283457 120.299 0.21747 119.746L0.0377823 118.238C-0.0580548 117.434 0.0286285 116.638 0.295595 115.873L0.545595 115.158L0.795595 114.443C0.942076 114.023 1.06714 113.603 1.17157 113.182L1.35126 112.458L1.52997 111.736C1.70295 111.038 1.98747 110.385 2.37763 109.781L3.18817 108.528C3.28733 108.374 3.37302 108.168 3.41669 107.874L3.53778 107.056L3.65985 106.236L3.69892 106.017C3.78826 105.586 3.9479 105.189 4.17059 104.835C4.14527 104.775 4.12111 104.714 4.09833 104.652L3.82587 103.909L3.55243 103.166C3.42482 102.819 3.26451 102.505 3.07294 102.223L2.64325 101.59L2.21454 100.957C1.86622 100.443 1.56112 99.9017 1.30048 99.3351L0.978212 98.633L0.65497 97.9318C0.243024 97.0362 0.169115 96.0813 0.378603 95.1476L0.560243 94.34L0.741884 93.5314C0.808738 93.2333 0.803691 93.0064 0.768251 92.8293L0.477235 91.38C0.369899 90.8442 0.283457 90.2992 0.21747 89.7463L0.0377823 88.2384C-0.0580548 87.4344 0.0286285 86.6378 0.295595 85.8732L0.545595 85.1584L0.795595 84.4425C0.942076 84.023 1.06714 83.6026 1.17157 83.1818L1.35126 82.4582L1.52997 81.7355C1.70295 81.0384 1.98747 80.3845 2.37763 79.7814L3.18817 78.5275C3.28733 78.3742 3.37302 78.1681 3.41669 77.8742L3.53778 77.0558L3.65985 76.2365L3.69892 76.0168C3.78826 75.5858 3.9479 75.1889 4.17059 74.8351C4.14527 74.7748 4.12111 74.7136 4.09833 74.6515L3.82587 73.9093L3.55243 73.1662C3.42482 72.8188 3.26451 72.5054 3.07294 72.2228L2.64325 71.59L2.21454 70.9572C1.86622 70.4434 1.56112 69.9017 1.30048 69.3351L0.978212 68.633L0.65497 67.9318C0.243024 67.0362 0.169115 66.0813 0.378603 65.1476L0.560243 64.34L0.741884 63.5314C0.808738 63.2333 0.803691 63.0064 0.768251 62.8293L0.477235 61.38C0.369899 60.8442 0.283457 60.2992 0.21747 59.7463L0.0377823 58.2384C-0.0580548 57.4344 0.0286285 56.6378 0.295595 55.8732L0.545595 55.1584L0.795595 54.4425C0.942076 54.023 1.06714 53.6026 1.17157 53.1818L1.35126 52.4582L1.52997 51.7355C1.70295 51.0384 1.98747 50.3845 2.37763 49.7814L3.18817 48.5275C3.28733 48.3742 3.37302 48.1681 3.41669 47.8742L3.53778 47.0558L3.65985 46.2365L3.69892 46.0168C3.86784 45.2019 4.28637 44.5077 4.91181 43.9992C4.56188 43.6144 4.28612 43.1628 4.09833 42.6515L3.82587 41.9093L3.55243 41.1662C3.42482 40.8188 3.26451 40.5054 3.07294 40.2228L2.64325 39.59L2.21454 38.9572C1.86622 38.4434 1.56112 37.9017 1.30048 37.3351L0.978212 36.633L0.65497 35.9318C0.243024 35.0362 0.169116 34.0813 0.378603 33.1476L0.560243 32.34L0.741884 31.5314C0.808738 31.2333 0.80369 31.0064 0.768251 30.8293L0.477235 29.38C0.369899 28.8442 0.283457 28.2992 0.21747 27.7463L0.0377823 26.2384C-0.0580547 25.4344 0.0286289 24.6378 0.295595 23.8732L0.545595 23.1584L0.795595 22.4425C0.942076 22.023 1.06714 21.6026 1.17157 21.1818L1.35126 20.4582L1.52997 19.7355C1.70295 19.0384 1.98747 18.3845 2.37763 17.7814L3.18817 16.5275C3.28733 16.3742 3.37302 16.1681 3.41669 15.8742L3.53778 15.0558L3.65985 14.2365L3.69892 14.0168C3.92432 12.9295 4.59447 12.0575 5.60712 11.5539L6.3454 11.1867L7.08466 10.8195C7.13369 10.7951 7.18127 10.7688 7.22919 10.7443C7.56481 10.2469 8.03046 9.84067 8.60712 9.55388L9.3454 9.18669L10.0847 8.8195C10.0861 8.8188 10.0872 8.8173 10.0886 8.81657L10.9948 7.61345C11.3786 7.10342 11.8091 6.63029 12.2839 6.1945L12.864 5.66228L13.444 5.12907C14.0019 4.61698 14.6574 4.27386 15.3776 4.10759L15.864 3.66228L16.444 3.12907C17.1555 2.47604 18.0246 2.09403 18.986 2.00896L19.7722 1.93962L20.5573 1.86931C21.0221 1.82823 21.4668 1.76857 21.8913 1.6906L23.36 1.42107C23.7624 1.34712 24.1698 1.24427 24.5817 1.11247L25.3171 0.87712L26.0534 0.641768C26.6657 0.445871 27.2943 0.309362 27.9362 0.231612L28.7136 0.137862L29.4919 0.0431354C30.2738 -0.0514929 31.0518 0.00966546 31.8093 0.225753L32.5612 0.43962L33.3122 0.654464C33.8083 0.796029 34.3025 0.934934 34.7936 1.07146L35.5368 1.27849L36.2809 1.48552C36.8192 1.63515 37.3554 1.80321 37.8874 1.98942L38.6237 2.24724L39.361 2.50505C40.2926 2.8312 41.034 3.44042 41.5651 4.2404L42.027 4.93474L42.488 5.63005C42.5008 5.64929 42.51 5.65971 42.5134 5.66325C42.5147 5.66464 42.5159 5.66578 42.5163 5.66618C42.5175 5.66671 42.5205 5.66752 42.5241 5.66911C42.5316 5.67237 42.5483 5.67904 42.5759 5.68571L43.3981 5.88493L43.7302 5.96403L43.9948 5.61345C44.3786 5.10342 44.8091 4.63029 45.2839 4.1945L45.864 3.66228L46.444 3.12907C47.1555 2.47604 48.0246 2.09403 48.986 2.00896L49.7722 1.93962L50.5573 1.86931C51.0221 1.82823 51.4668 1.76857 51.8913 1.6906L53.36 1.42107C53.7624 1.34712 54.1698 1.24427 54.5817 1.11247L55.3171 0.87712L56.0534 0.641768C56.6657 0.445871 57.2943 0.309362 57.9362 0.231612L58.7136 0.137862L59.4919 0.0431354C60.2738 -0.051493 61.0518 0.00966542 61.8093 0.225753L62.5612 0.43962L63.3122 0.654464C63.8083 0.796029 64.3025 0.934934 64.7936 1.07146L65.5368 1.27849L66.2809 1.48552C66.8192 1.63515 67.3554 1.80321 67.8874 1.98942L68.6237 2.24724L69.361 2.50505C70.2926 2.8312 71.034 3.44042 71.5651 4.2404L72.027 4.93474L72.488 5.63005C72.5008 5.64929 72.51 5.65971 72.5134 5.66325C72.5147 5.66464 72.5159 5.66578 72.5163 5.66618C72.5175 5.66671 72.5205 5.66752 72.5241 5.66911C72.5316 5.67237 72.5483 5.67904 72.5759 5.68571L73.3981 5.88493L73.7302 5.96403L73.9948 5.61345C74.3786 5.10342 74.8091 4.63029 75.2839 4.1945L75.864 3.66228L76.444 3.12907C77.1555 2.47604 78.0246 2.09403 78.986 2.00896L79.7722 1.93962L80.5573 1.86931C81.0221 1.82823 81.4668 1.76857 81.8913 1.6906L83.36 1.42107C83.7624 1.34712 84.1698 1.24427 84.5817 1.11247L85.3171 0.87712L86.0534 0.641768C86.6657 0.445871 87.2943 0.309363 87.9362 0.231612L88.7136 0.137862L89.4919 0.0431354C90.2738 -0.0514937 91.0518 0.00966507 91.8093 0.225753L92.5612 0.43962L93.3122 0.654464C93.8083 0.796029 94.3025 0.934933 94.7936 1.07146L95.5368 1.27849L96.2809 1.48552C96.8192 1.63515 97.3554 1.8032 97.8874 1.98942L98.6237 2.24724L99.361 2.50505C100.293 2.8312 101.034 3.44042 101.565 4.2404L102.027 4.93474L102.488 5.63005C102.501 5.64929 102.51 5.65971 102.513 5.66325C102.515 5.66464 102.516 5.66578 102.516 5.66618C102.517 5.66671 102.52 5.66752 102.524 5.66911C102.532 5.67237 102.548 5.67904 102.576 5.68571L103.398 5.88493L103.73 5.96403L103.995 5.61345C104.379 5.10342 104.809 4.63029 105.284 4.1945L105.864 3.66228L106.444 3.12907C107.155 2.47604 108.025 2.09403 108.986 2.00896L109.772 1.93962L110.557 1.86931C111.022 1.82823 111.467 1.76857 111.891 1.6906L113.36 1.42107C113.762 1.34712 114.17 1.24427 114.582 1.11247L115.317 0.87712L116.053 0.641768C116.666 0.445871 117.294 0.309363 117.936 0.231612L118.714 0.137862L119.492 0.0431354C120.274 -0.0514937 121.052 0.00966507 121.809 0.225753L122.561 0.43962L123.312 0.654464C123.808 0.796029 124.303 0.934933 124.794 1.07146L125.537 1.27849L126.281 1.48552C126.819 1.63515 127.355 1.8032 127.887 1.98942L128.624 2.24724L129.361 2.50505C130.293 2.8312 131.034 3.44042 131.565 4.2404L132.027 4.93474L132.488 5.63005C132.501 5.64929 132.51 5.65971 132.513 5.66325C132.515 5.66464 132.516 5.66578 132.516 5.66618C132.517 5.66671 132.52 5.66752 132.524 5.66911C132.532 5.67237 132.548 5.67904 132.576 5.68571L133.398 5.88493L133.73 5.96403L133.995 5.61345C134.379 5.10342 134.809 4.63029 135.284 4.1945L135.864 3.66228L136.444 3.12907C137.155 2.47604 138.025 2.09403 138.986 2.00896L139.772 1.93962L140.557 1.86931C141.022 1.82823 141.467 1.76857 141.891 1.6906L143.36 1.42107C143.762 1.34712 144.17 1.24427 144.582 1.11247L145.317 0.87712L146.053 0.641768C146.666 0.445871 147.294 0.309363 147.936 0.231612L148.714 0.137862L149.492 0.0431354C150.274 -0.0514937 151.052 0.00966507 151.809 0.225753L152.561 0.43962L153.312 0.654464C153.808 0.796029 154.303 0.934933 154.794 1.07146L155.537 1.27849L156.281 1.48552C156.819 1.63515 157.355 1.8032 157.887 1.98942L158.624 2.24724L159.361 2.50505C160.293 2.8312 161.034 3.44042 161.565 4.2404L162.027 4.93474L162.488 5.63005C162.501 5.64929 162.51 5.65971 162.513 5.66325C162.515 5.66464 162.516 5.66578 162.516 5.66618C162.517 5.66671 162.52 5.66752 162.524 5.66911C162.532 5.67237 162.548 5.67904 162.576 5.68571L163.398 5.88493L163.73 5.96403L163.995 5.61345C164.379 5.10342 164.809 4.63028 165.284 4.1945L165.864 3.66228L166.444 3.12907C167.155 2.47604 168.025 2.09403 168.986 2.00896L169.772 1.93962L170.557 1.86931C171.022 1.82823 171.467 1.76857 171.891 1.6906L173.36 1.42107C173.762 1.34712 174.17 1.24428 174.582 1.11247L175.317 0.87712L176.053 0.641768C176.666 0.445868 177.294 0.309363 177.936 0.231612L178.714 0.137862L179.492 0.0431354C180.274 -0.0514963 181.052 0.00966369 181.809 0.225753L182.561 0.43962L183.312 0.654464C183.808 0.796031 184.303 0.934932 184.794 1.07146L185.537 1.27849L186.281 1.48552C186.819 1.63516 187.355 1.8032 187.887 1.98942L188.624 2.24724L189.361 2.50505C190.293 2.8312 191.034 3.44041 191.565 4.2404L192.027 4.93474L192.488 5.63005C192.501 5.6493 192.51 5.65971 192.513 5.66325C192.515 5.66465 192.516 5.66579 192.516 5.66618C192.517 5.66671 192.52 5.66751 192.524 5.66911C192.532 5.67237 192.548 5.67904 192.576 5.68571L193.398 5.88493L193.73 5.96403L193.995 5.61345C194.379 5.10342 194.809 4.63028 195.284 4.1945L195.864 3.66228L196.444 3.12907C197.155 2.47604 198.025 2.09403 198.986 2.00896L199.772 1.93962L200.557 1.86931C201.022 1.82823 201.467 1.76857 201.891 1.6906L203.36 1.42107C203.762 1.34712 204.17 1.24428 204.582 1.11247L205.317 0.87712L206.053 0.641768C206.666 0.445868 207.294 0.309363 207.936 0.231612L208.714 0.137862L209.492 0.0431354C210.274 -0.0514963 211.052 0.00966369 211.809 0.225753L212.561 0.43962L213.312 0.654464C213.808 0.796031 214.303 0.934932 214.794 1.07146L215.537 1.27849L216.281 1.48552C216.819 1.63516 217.355 1.8032 217.887 1.98942L218.624 2.24724L219.361 2.50505C220.293 2.8312 221.034 3.44041 221.565 4.2404L222.027 4.93474L222.488 5.63005C222.501 5.6493 222.51 5.65971 222.513 5.66325C222.515 5.66465 222.516 5.66579 222.516 5.66618C222.517 5.66671 222.52 5.66751 222.524 5.66911C222.532 5.67237 222.548 5.67904 222.576 5.68571L223.398 5.88493L223.73 5.96403L223.995 5.61345C224.379 5.10342 224.809 4.63028 225.284 4.1945L225.864 3.66228L226.444 3.12907C227.155 2.47604 228.025 2.09403 228.986 2.00896L229.772 1.93962L230.557 1.86931C231.022 1.82823 231.467 1.76857 231.891 1.6906L233.36 1.42107C233.762 1.34712 234.17 1.24428 234.582 1.11247L235.317 0.87712L236.053 0.641768C236.666 0.445868 237.294 0.309363 237.936 0.231612L238.714 0.137862L239.492 0.0431354C240.274 -0.0514963 241.052 0.00966369 241.809 0.225753L242.561 0.43962L243.312 0.654464C243.808 0.796031 244.303 0.934932 244.794 1.07146L245.537 1.27849L246.281 1.48552C246.819 1.63516 247.355 1.8032 247.887 1.98942L248.624 2.24724L249.361 2.50505C250.293 2.8312 251.034 3.44041 251.565 4.2404L252.027 4.93474L252.488 5.63005C252.501 5.6493 252.51 5.65971 252.513 5.66325C252.515 5.66465 252.516 5.66579 252.516 5.66618C252.517 5.66671 252.52 5.66751 252.524 5.66911C252.532 5.67237 252.548 5.67904 252.576 5.68571L253.398 5.88493L253.73 5.96403L253.995 5.61345C254.379 5.10342 254.809 4.63028 255.284 4.1945L255.864 3.66228L256.444 3.12907C257.155 2.47604 258.025 2.09403 258.986 2.00896L259.772 1.93962L260.557 1.86931C261.022 1.82823 261.467 1.76857 261.891 1.6906L263.36 1.42107C263.762 1.34712 264.17 1.24428 264.582 1.11247L265.317 0.87712L266.053 0.641768C266.666 0.445868 267.294 0.309363 267.936 0.231612L268.714 0.137862L269.492 0.0431354C270.274 -0.0514963 271.052 0.00966369 271.809 0.225753L272.561 0.43962L273.312 0.654464C273.808 0.796031 274.303 0.934932 274.794 1.07146L275.537 1.27849L276.281 1.48552C276.819 1.63516 277.355 1.8032 277.887 1.98942L278.624 2.24724L279.361 2.50505C280.293 2.8312 281.034 3.44041 281.565 4.2404L282.027 4.93474L282.488 5.63005C282.501 5.6493 282.51 5.65971 282.513 5.66325C282.515 5.66465 282.516 5.66579 282.516 5.66618C282.517 5.66671 282.52 5.66751 282.524 5.66911C282.532 5.67237 282.548 5.67904 282.576 5.68571L283.398 5.88493L283.73 5.96403L283.995 5.61345C284.379 5.10342 284.809 4.63029 285.284 4.1945L285.864 3.66228L286.444 3.12907C287.155 2.47604 288.025 2.09403 288.986 2.00896L289.772 1.93962L290.557 1.86931C291.022 1.82823 291.467 1.76857 291.891 1.6906L293.36 1.42107C293.762 1.34712 294.17 1.24427 294.582 1.11247L295.317 0.87712L296.053 0.641768C296.666 0.445873 297.294 0.309362 297.936 0.231612L298.714 0.137862L299.492 0.0431354C300.274 -0.0514911 301.052 0.00966646 301.809 0.225753L302.561 0.43962L303.312 0.654464C303.808 0.796028 304.303 0.934935 304.794 1.07146L305.537 1.27849L306.281 1.48552C306.819 1.63515 307.355 1.80321 307.887 1.98942L308.283 2.12712C308.511 2.06913 308.746 2.03023 308.986 2.00896L309.772 1.93962L310.557 1.86931C311.022 1.82823 311.467 1.76857 311.891 1.6906L313.36 1.42107C313.762 1.34712 314.17 1.24427 314.582 1.11247L315.317 0.87712L316.053 0.641768C316.666 0.445873 317.294 0.309362 317.936 0.231612L318.714 0.137862L319.492 0.0431354Z" fill="var(--fill-0, white)"/>
</svg>
