<svg preserveAspectRatio="none" width="100%" height="100%" overflow="visible" style="display: block;" viewBox="0 0 338.023 343.098" fill="none" xmlns="http://www.w3.org/2000/svg">
<path id="Union" d="M251.143 0.0431246C251.925 -0.0514933 252.703 0.00967736 253.461 0.225742L254.213 0.439609L254.964 0.654453C255.46 0.79603 255.954 0.934912 256.445 1.07144L257.188 1.27848L257.932 1.48551C258.471 1.63515 259.007 1.80318 259.539 1.98941L260.275 2.24723L261.012 2.50504C261.944 2.83113 262.685 3.44048 263.216 4.24039L263.678 4.93473L264.139 5.63004C264.152 5.64913 264.161 5.65952 264.165 5.66324C264.166 5.6646 264.167 5.66572 264.168 5.66617C264.169 5.66674 264.172 5.6674 264.175 5.6691C264.183 5.67232 264.199 5.67896 264.227 5.6857L265.049 5.88492L265.873 6.08316C266.848 6.31872 267.702 6.852 268.309 7.6984L268.766 8.33707L269.224 8.97574C269.514 9.37931 269.809 9.77393 270.11 10.1593L270.466 10.6144L270.558 10.6418L271.309 10.8566C271.805 10.9982 272.3 11.1371 272.791 11.2736L273.534 11.4806L274.278 11.6877C274.816 11.8373 275.352 12.0053 275.884 12.1916L276.621 12.4494L277.358 12.7072C278.29 13.0333 279.031 13.6426 279.562 14.4425L280.024 15.1369L280.485 15.8322C280.498 15.8513 280.507 15.8618 280.51 15.8654C280.512 15.8667 280.513 15.8679 280.513 15.8683C280.514 15.8689 280.517 15.8696 280.521 15.8712C280.529 15.8745 280.545 15.8812 280.573 15.8879L281.395 16.0871L282.218 16.2853C283.194 16.5209 284.048 17.0541 284.655 17.9005L285.112 18.5392L285.57 19.1779C285.859 19.5814 286.155 19.9761 286.456 20.3615L287.409 21.5841C287.876 22.1834 288.225 22.8522 288.45 23.5783L288.681 24.3234L288.913 25.0695C289.003 25.3602 289.139 25.6354 289.326 25.8986L289.787 26.547L290.248 27.1964C290.872 28.0742 291.09 29.0972 290.922 30.1379L290.791 30.9523L290.659 31.7658C290.589 32.1979 290.563 32.5905 290.573 32.9445L290.616 34.425C290.619 34.5245 290.623 34.6069 290.628 34.673C290.628 34.68 290.629 34.6871 290.63 34.6935L290.731 34.8781C291.077 35.5062 291.025 36.1426 291.004 36.3693C290.973 36.6908 290.899 37.0172 290.816 37.3136L290.41 38.7707C290.377 38.8893 290.364 39.0465 290.423 39.2814L290.625 40.088L290.827 40.8937C291.046 41.7662 291.036 42.6631 290.757 43.5363L290.519 44.2755L290.283 45.0158C290.016 45.848 289.547 46.5681 288.915 47.1593L287.729 48.2668C287.461 48.5178 287.232 48.7677 287.039 49.0148C287.658 49.3607 288.17 49.8504 288.565 50.4455L289.027 51.1398L289.488 51.8351C289.501 51.8541 289.51 51.8647 289.513 51.8683C289.515 51.8696 289.516 51.8708 289.516 51.8712C289.517 51.8718 289.521 51.8726 289.524 51.8742C289.532 51.8774 289.548 51.8841 289.576 51.8908L290.398 52.09L291.221 52.2882C292.197 52.5238 293.051 53.057 293.658 53.9035L294.115 54.5421L294.573 55.1808C294.862 55.5843 295.158 55.9791 295.459 56.3644L296.412 57.5871C296.879 58.1863 297.228 58.8552 297.453 59.5812L297.684 60.3263L297.916 61.0724C298.006 61.363 298.142 61.6384 298.329 61.9015L298.79 62.55L299.251 63.1994C299.874 64.0771 300.093 65.1002 299.924 66.1408L299.794 66.9552L299.662 67.7687C299.592 68.2007 299.566 68.5935 299.576 68.9474L299.619 70.4279C299.622 70.5273 299.626 70.6099 299.631 70.6759C299.631 70.6828 299.632 70.6901 299.632 70.6964L299.734 70.881C300.079 71.5091 300.028 72.1455 300.007 72.3722C299.976 72.6936 299.902 73.0202 299.819 73.3166L299.413 74.7736C299.38 74.8921 299.367 75.0496 299.425 75.2843L299.628 76.091L299.83 76.8966C300.048 77.7691 300.039 78.6661 299.759 79.5392L299.522 80.2785L299.286 81.0187C299.019 81.8508 298.55 82.5711 297.918 83.1623L296.732 84.2697C296.419 84.5628 296.159 84.8541 295.947 85.1418L295.726 85.4406C296.491 85.7215 297.158 86.2057 297.658 86.9025L298.115 87.5412L298.573 88.1798C298.862 88.5834 299.158 88.978 299.459 89.3634L300.412 90.5861C300.879 91.1854 301.228 91.8542 301.453 92.5802L301.684 93.3254L301.916 94.0714C302.006 94.3622 302.142 94.6373 302.329 94.9005L302.79 95.549L303.251 96.1984C303.875 97.0762 304.093 98.0992 303.924 99.1398L303.794 99.9543L303.662 100.768C303.592 101.2 303.566 101.592 303.576 101.946L303.619 103.427C303.622 103.527 303.626 103.609 303.631 103.675C303.631 103.682 303.632 103.689 303.632 103.695L303.734 103.88C304.079 104.508 304.028 105.144 304.007 105.371C304.003 105.409 303.997 105.447 303.992 105.486C304.187 105.436 304.384 105.38 304.582 105.317L305.317 105.081L306.053 104.846C306.666 104.65 307.294 104.513 307.936 104.436L308.714 104.342L309.492 104.247C310.274 104.153 311.052 104.214 311.809 104.43L312.561 104.644L313.312 104.859C313.808 105 314.303 105.139 314.794 105.276L315.537 105.483L316.281 105.69C316.819 105.839 317.355 106.007 317.887 106.194L318.624 106.451L319.361 106.709C320.293 107.035 321.034 107.645 321.565 108.444L322.027 109.139L322.488 109.834C322.5 109.853 322.51 109.863 322.513 109.867C322.514 109.868 322.516 109.87 322.516 109.87C322.517 109.871 322.52 109.872 322.524 109.873C322.531 109.876 322.548 109.883 322.576 109.89L323.398 110.089L324.221 110.287C325.197 110.523 326.051 111.056 326.658 111.902L327.115 112.541L327.573 113.18C327.862 113.583 328.158 113.978 328.459 114.363L329.412 115.586C329.879 116.185 330.228 116.854 330.453 117.58L330.684 118.325L330.916 119.071C331.006 119.362 331.142 119.637 331.329 119.901L331.79 120.549L332.251 121.198C332.875 122.076 333.093 123.099 332.924 124.14L332.794 124.954L332.662 125.768C332.592 126.2 332.566 126.592 332.576 126.946L332.619 128.427C332.622 128.526 332.626 128.609 332.631 128.675C332.631 128.682 332.632 128.689 332.632 128.695L332.734 128.88C333.079 129.508 333.028 130.144 333.007 130.371C332.976 130.693 332.902 131.019 332.819 131.316L332.413 132.773C332.38 132.891 332.367 133.049 332.425 133.283L332.628 134.09L332.83 134.896C333.049 135.768 333.039 136.665 332.759 137.538L332.522 138.277L332.286 139.018C332.023 139.839 331.562 140.549 330.942 141.136C331.207 141.355 331.447 141.61 331.658 141.903L332.115 142.542L332.573 143.181C332.862 143.584 333.158 143.979 333.459 144.364L334.412 145.587C334.879 146.186 335.228 146.855 335.453 147.581L335.684 148.326L335.916 149.072C336.006 149.363 336.142 149.638 336.329 149.902L336.79 150.55L337.251 151.199C337.875 152.077 338.093 153.1 337.924 154.141L337.794 154.955L337.662 155.769C337.592 156.201 337.566 156.593 337.576 156.947L337.619 158.428C337.622 158.527 337.626 158.61 337.631 158.676C337.631 158.683 337.632 158.69 337.632 158.696L337.734 158.881C338.08 159.509 338.028 160.145 338.007 160.372C337.976 160.694 337.902 161.02 337.819 161.317L337.413 162.774C337.38 162.892 337.367 163.05 337.425 163.284L337.628 164.091L337.83 164.897C338.049 165.769 338.039 166.666 337.759 167.539L337.522 168.278L337.286 169.019C337.019 169.851 336.55 170.571 335.918 171.162L334.732 172.27C334.419 172.563 334.159 172.854 333.947 173.142L333.509 173.736L333.072 174.33C332.648 174.906 332.137 175.401 331.549 175.809L330.935 176.233L330.321 176.657C330.291 176.678 330.226 176.728 330.159 176.911L329.87 177.696L329.582 178.482C329.543 178.586 329.5 178.688 329.455 178.788C329.917 179.067 330.325 179.437 330.659 179.902L331.116 180.541L331.574 181.18C331.863 181.583 332.159 181.978 332.46 182.363L333.413 183.586C333.88 184.185 334.228 184.854 334.454 185.58L334.685 186.325L334.917 187.071C335.007 187.362 335.143 187.637 335.33 187.901L335.791 188.549L336.252 189.198C336.876 190.076 337.094 191.099 336.925 192.14L336.795 192.954L336.663 193.768C336.593 194.2 336.567 194.592 336.577 194.946L336.62 196.427C336.623 196.526 336.627 196.609 336.632 196.675C336.632 196.682 336.633 196.689 336.633 196.695L336.735 196.88C337.08 197.508 337.029 198.144 337.007 198.371C336.977 198.693 336.903 199.019 336.82 199.316L336.414 200.773C336.381 200.891 336.368 201.049 336.426 201.283L336.629 202.09L336.831 202.896C337.05 203.768 337.04 204.665 336.76 205.538L336.523 206.277L336.287 207.018C336.02 207.85 335.551 208.57 334.919 209.161L333.733 210.269C333.42 210.562 333.16 210.853 332.948 211.141L332.577 211.644C332.574 211.747 332.574 211.849 332.577 211.946L332.62 213.427C332.623 213.527 332.627 213.609 332.632 213.675C332.632 213.682 332.633 213.689 332.633 213.695L332.735 213.88C333.08 214.508 333.029 215.144 333.007 215.371C332.977 215.693 332.903 216.019 332.82 216.316L332.414 217.773C332.381 217.891 332.368 218.048 332.426 218.283L332.629 219.09L332.831 219.896C333.05 220.768 333.04 221.665 332.76 222.538L332.523 223.277L332.287 224.018C332.02 224.85 331.551 225.57 330.919 226.161L329.733 227.269C329.42 227.562 329.16 227.853 328.948 228.141L328.51 228.736L328.073 229.329C327.649 229.905 327.138 230.4 326.549 230.808L325.936 231.232L325.322 231.656C325.292 231.677 325.228 231.727 325.16 231.91L324.871 232.695L324.583 233.481C324.24 234.413 323.614 235.201 322.694 235.696L322.023 236.058L321.353 236.418C321.012 236.602 320.683 236.818 320.366 237.069L319.756 237.552L319.144 238.035C318.206 238.778 317.086 238.953 316.011 238.717L314.308 238.342C314.196 238.317 314.13 238.318 314.102 238.32C314.08 238.322 314.071 238.325 314.067 238.327L313.393 238.647L312.718 238.965C312.144 239.236 311.545 239.446 310.925 239.596L310.192 239.773L309.459 239.95C308.591 240.159 307.715 240.111 306.877 239.821L306.15 239.569L305.424 239.319C305.259 239.262 305.091 239.244 304.89 239.277L303.334 239.527C302.591 239.645 301.845 239.637 301.107 239.496L300.966 239.469C300.939 239.827 300.873 240.185 300.759 240.538L300.522 241.277L300.286 242.018C300.019 242.85 299.55 243.57 298.918 244.161L297.732 245.269C297.419 245.562 297.159 245.853 296.947 246.141L296.509 246.736L296.072 247.329C295.648 247.906 295.137 248.4 294.549 248.808L293.935 249.232L293.321 249.656C293.291 249.677 293.227 249.727 293.159 249.91L292.87 250.695L292.582 251.481C292.239 252.413 291.614 253.201 290.693 253.696L290.022 254.058L289.352 254.418C289.011 254.602 288.682 254.818 288.365 255.069L287.755 255.552L287.143 256.035C286.912 256.218 286.669 256.366 286.42 256.483C286.43 256.515 286.443 256.547 286.453 256.58L286.684 257.325L286.916 258.071C287.006 258.362 287.142 258.637 287.329 258.901L287.79 259.549L288.251 260.198C288.875 261.076 289.093 262.099 288.924 263.14L288.794 263.954L288.662 264.768C288.592 265.2 288.566 265.592 288.576 265.946L288.619 267.427C288.622 267.526 288.626 267.609 288.631 267.675C288.631 267.682 288.632 267.689 288.632 267.695L288.734 267.88C289.079 268.508 289.028 269.145 289.007 269.371C288.976 269.693 288.902 270.019 288.819 270.316L288.413 271.773C288.38 271.891 288.367 272.049 288.425 272.283L288.628 273.09L288.83 273.896C289.049 274.768 289.039 275.665 288.759 276.538L288.522 277.277L288.286 278.018C288.019 278.85 287.55 279.57 286.918 280.161L285.732 281.269C285.419 281.562 285.159 281.853 284.947 282.141L284.509 282.736L284.072 283.329C283.648 283.905 283.137 284.4 282.549 284.808L281.935 285.232L281.321 285.656C281.291 285.677 281.226 285.727 281.159 285.91L280.925 286.542C281.717 287.04 282.265 287.769 282.578 288.619L282.866 289.404L283.155 290.19C283.222 290.373 283.287 290.423 283.317 290.444L283.931 290.868L284.545 291.292C285.133 291.699 285.644 292.194 286.068 292.771L286.506 293.364L286.943 293.959C287.155 294.247 287.415 294.538 287.728 294.831L288.914 295.939C289.546 296.53 290.015 297.25 290.282 298.082L290.518 298.822L290.756 299.562C291.035 300.435 291.045 301.332 290.826 302.204L290.624 303.01L290.422 303.817C290.363 304.051 290.376 304.209 290.409 304.327L290.815 305.784C290.898 306.081 290.972 306.407 291.003 306.729C291.024 306.955 291.076 307.592 290.73 308.22L290.629 308.404C290.628 308.411 290.627 308.418 290.627 308.425C290.622 308.491 290.618 308.573 290.615 308.673L290.572 310.153C290.562 310.507 290.588 310.9 290.658 311.332L290.79 312.146L290.921 312.96C291.089 314.001 290.871 315.024 290.247 315.902L289.786 316.551L289.325 317.199C289.138 317.463 289.002 317.738 288.912 318.028L288.68 318.775L288.449 319.52C288.224 320.246 287.875 320.915 287.408 321.514L286.455 322.736C286.154 323.122 285.858 323.516 285.569 323.92L285.111 324.559L284.654 325.197C284.047 326.044 283.193 326.577 282.217 326.813L281.394 327.011L280.572 327.21C280.544 327.217 280.527 327.224 280.52 327.227C280.516 327.228 280.513 327.229 280.512 327.23C280.512 327.23 280.511 327.231 280.509 327.233C280.506 327.236 280.497 327.246 280.484 327.266L280.023 327.961L279.561 328.655C279.03 329.455 278.289 330.065 277.357 330.391L276.62 330.649L275.883 330.906C275.351 331.093 274.815 331.261 274.277 331.41L273.533 331.617L272.79 331.824C272.299 331.961 271.804 332.1 271.308 332.241L270.557 332.456L270.465 332.483L270.109 332.939C269.808 333.324 269.513 333.719 269.223 334.122L268.765 334.761L268.308 335.4C267.701 336.246 266.847 336.779 265.872 337.015L265.049 337.213L264.226 337.412C264.198 337.419 264.182 337.426 264.174 337.429C264.171 337.431 264.168 337.431 264.167 337.432C264.166 337.432 264.165 337.433 264.164 337.435C264.16 337.438 264.151 337.448 264.138 337.468L263.677 338.163L263.216 338.858C262.684 339.658 261.943 340.267 261.011 340.593L260.274 340.851L259.538 341.109C259.006 341.295 258.47 341.463 257.931 341.612L257.187 341.819L256.444 342.027C255.953 342.163 255.459 342.302 254.963 342.444L254.212 342.658L253.46 342.872C252.702 343.088 251.924 343.15 251.142 343.055L250.364 342.96L249.587 342.866C248.945 342.789 248.316 342.652 247.704 342.456L246.967 342.221L246.232 341.986C245.82 341.854 245.413 341.751 245.01 341.677L243.542 341.407C243.117 341.329 242.672 341.27 242.208 341.229L241.423 341.158L240.636 341.089C239.675 341.004 238.806 340.622 238.094 339.969L237.514 339.436L236.934 338.903C236.46 338.468 236.029 337.994 235.645 337.485L234.719 336.254C234.549 336.028 234.363 335.857 234.16 335.729L233.537 335.334L232.915 334.939C232.565 334.717 232.172 334.496 231.735 334.278L231.674 334.248L231.307 334.761L230.85 335.4C230.243 336.246 229.389 336.779 228.414 337.015L227.591 337.213L226.768 337.412C226.741 337.419 226.724 337.426 226.716 337.429C226.713 337.43 226.71 337.431 226.709 337.432C226.708 337.432 226.707 337.433 226.706 337.435C226.702 337.438 226.693 337.449 226.68 337.468L226.219 338.163L225.757 338.858C225.226 339.658 224.485 340.267 223.553 340.593L222.816 340.851L222.08 341.109C221.548 341.295 221.012 341.463 220.473 341.612L219.729 341.819L218.986 342.027C218.495 342.163 218.001 342.302 217.505 342.444L216.754 342.658L216.002 342.872C215.244 343.088 214.466 343.149 213.684 343.055L212.906 342.96L212.129 342.866C211.487 342.789 210.858 342.652 210.246 342.456L209.509 342.221L208.774 341.986C208.362 341.854 207.955 341.751 207.552 341.677L206.084 341.407C205.659 341.329 205.214 341.27 204.75 341.229L203.965 341.158L203.178 341.089C202.217 341.004 201.348 340.622 200.636 339.969L200.056 339.436L199.476 338.903C199.002 338.468 198.571 337.994 198.187 337.485L197.261 336.254C197.091 336.028 196.905 335.858 196.702 335.729L196.079 335.334L195.457 334.939C195.107 334.716 194.714 334.496 194.277 334.278L194.216 334.248L193.849 334.761L193.392 335.4C192.785 336.246 191.931 336.779 190.956 337.015L190.132 337.213L189.31 337.412C189.283 337.419 189.266 337.426 189.258 337.429C189.255 337.43 189.252 337.431 189.251 337.432C189.25 337.432 189.249 337.433 189.248 337.435C189.244 337.438 189.235 337.449 189.222 337.468L188.761 338.163L188.299 338.858C187.768 339.658 187.027 340.267 186.095 340.593L185.358 340.851L184.622 341.109C184.09 341.295 183.554 341.463 183.015 341.612L182.271 341.819L181.528 342.027C181.037 342.163 180.543 342.302 180.047 342.444L179.296 342.658L178.544 342.872C177.786 343.088 177.008 343.149 176.226 343.055L175.448 342.96L174.671 342.866C174.029 342.789 173.4 342.652 172.788 342.456L172.051 342.221L171.316 341.986C170.904 341.854 170.497 341.751 170.094 341.677L170.042 341.667L169.99 341.677C169.588 341.751 169.18 341.854 168.768 341.986L168.033 342.221L167.297 342.456C166.684 342.652 166.056 342.789 165.414 342.866L164.636 342.96L163.858 343.055C163.076 343.149 162.298 343.088 161.541 342.872L160.789 342.658L160.038 342.444C159.542 342.302 159.047 342.163 158.556 342.027L157.813 341.819L157.069 341.612C156.531 341.463 155.995 341.295 155.463 341.109L154.726 340.851L153.989 340.593C153.058 340.267 152.316 339.657 151.785 338.858L151.323 338.163L150.862 337.468C150.849 337.449 150.84 337.438 150.837 337.435C150.835 337.433 150.834 337.432 150.834 337.432C150.832 337.431 150.829 337.43 150.826 337.429C150.818 337.426 150.801 337.419 150.774 337.412L149.952 337.213L149.129 337.015C148.153 336.779 147.299 336.246 146.692 335.4L146.235 334.761L145.867 334.248L145.807 334.278C145.37 334.496 144.978 334.716 144.628 334.939L144.006 335.334L143.382 335.729C143.179 335.858 142.993 336.028 142.823 336.254L141.897 337.485C141.513 337.995 141.083 338.468 140.608 338.903L140.028 339.436L139.448 339.969C138.736 340.622 137.867 341.004 136.906 341.089L136.12 341.158L135.335 341.229C134.87 341.27 134.425 341.329 134.001 341.407L132.532 341.677C132.13 341.751 131.722 341.854 131.31 341.986L130.575 342.221L129.839 342.456C129.226 342.652 128.598 342.789 127.956 342.866L127.178 342.96L126.4 343.055C125.618 343.149 124.84 343.088 124.083 342.872L123.331 342.658L122.58 342.444C122.084 342.302 121.589 342.163 121.098 342.027L120.355 341.819L119.611 341.612C119.073 341.463 118.536 341.295 118.005 341.109L117.268 340.851L116.531 340.593C115.6 340.267 114.858 339.657 114.327 338.858L113.865 338.163L113.404 337.468C113.391 337.449 113.382 337.438 113.379 337.435C113.377 337.433 113.376 337.432 113.376 337.432C113.374 337.431 113.371 337.43 113.368 337.429C113.36 337.426 113.343 337.419 113.316 337.412L112.494 337.213L111.671 337.015C110.695 336.779 109.841 336.246 109.234 335.4L108.777 334.761L108.409 334.248L108.349 334.278C107.912 334.496 107.52 334.716 107.17 334.939L106.548 335.334L105.924 335.729C105.721 335.858 105.535 336.028 105.365 336.254L104.439 337.485C104.055 337.995 103.625 338.468 103.15 338.903L102.57 339.436L101.99 339.969C101.278 340.622 100.409 341.004 99.4479 341.089L98.6618 341.158L97.8766 341.229C97.4118 341.27 96.9672 341.329 96.5427 341.407L95.0739 341.677C94.6715 341.751 94.2642 341.854 93.8522 341.986L93.1169 342.221L92.3805 342.456C91.7682 342.652 91.1397 342.789 90.4977 342.866L89.7204 342.96L88.9421 343.055C88.1601 343.149 87.3822 343.088 86.6247 342.872L85.8727 342.658L85.1218 342.444C84.6257 342.302 84.1314 342.163 83.6403 342.027L82.8971 341.819L82.153 341.612C81.6148 341.463 81.0786 341.295 80.5466 341.109L79.8102 340.851L79.0729 340.593C78.1414 340.267 77.3999 339.658 76.8688 338.858L76.4069 338.163L75.946 337.468C75.9331 337.449 75.9239 337.438 75.9206 337.435C75.9192 337.433 75.918 337.432 75.9177 337.432C75.9163 337.431 75.9133 337.43 75.9098 337.429C75.9022 337.426 75.8854 337.419 75.8581 337.412L75.0358 337.213L74.2126 337.015C73.423 336.824 72.713 336.438 72.1491 335.849C71.8568 335.811 71.5663 335.752 71.279 335.67L70.527 335.456L69.7761 335.241C69.2799 335.1 68.7857 334.961 68.2946 334.824L67.5514 334.617L66.8073 334.41C66.269 334.261 65.7329 334.093 65.2009 333.906L64.4645 333.649L63.7272 333.391C62.7957 333.065 62.0542 332.455 61.5231 331.655L61.0612 330.961L60.6003 330.266C60.5873 330.246 60.5782 330.236 60.5749 330.233C60.5733 330.231 60.5723 330.23 60.5719 330.23C60.5707 330.229 60.5678 330.228 60.5641 330.227C60.5566 330.223 60.5399 330.217 60.5124 330.21L59.6901 330.011L58.8669 329.813C57.8916 329.577 57.0374 329.044 56.4303 328.197L55.9733 327.559L55.5153 326.92C55.2259 326.516 54.9303 326.122 54.6296 325.736L53.6764 324.514C53.209 323.915 52.8607 323.246 52.6354 322.52L52.404 321.775L52.1725 321.028C52.0823 320.738 51.9466 320.463 51.7594 320.199L51.2985 319.551L50.8376 318.902C50.2138 318.024 49.9956 317.001 50.1637 315.96L50.2946 315.146L50.4264 314.332C50.4963 313.9 50.5225 313.507 50.5124 313.153L50.4694 311.673C50.4665 311.574 50.4625 311.491 50.4577 311.425C50.4572 311.418 50.4563 311.411 50.4557 311.404L50.3542 311.22C50.0089 310.592 50.06 309.956 50.0817 309.729C50.1125 309.407 50.1866 309.081 50.2692 308.784L50.6755 307.327C50.7084 307.209 50.7216 307.051 50.6628 306.817L50.4606 306.01L50.2585 305.204C50.0397 304.332 50.049 303.435 50.3288 302.562L50.5661 301.822L50.8024 301.082C51.0692 300.25 51.5383 299.53 52.1706 298.939L52.5202 298.611L52.2145 298.16C51.8662 297.647 51.5611 297.105 51.3005 296.538L50.9782 295.836L50.655 295.135C50.2431 294.239 50.1692 293.284 50.3786 292.351L50.5602 291.543L50.7419 290.735C50.8087 290.437 50.8037 290.209 50.7682 290.032L50.4772 288.583C50.3699 288.047 50.2834 287.502 50.2175 286.949L50.0378 285.442C49.942 284.638 50.0287 283.841 50.2956 283.076L50.5456 282.361L50.7956 281.646C50.942 281.226 51.0671 280.806 51.1716 280.385L51.3512 279.661L51.53 278.939C51.7029 278.242 51.9876 277.588 52.3776 276.985L53.1882 275.731C53.2873 275.577 53.373 275.371 53.4167 275.077L53.5378 274.259L53.6598 273.44L53.6989 273.22C53.8678 272.405 54.2864 271.711 54.9118 271.202C54.5619 270.818 54.2861 270.366 54.0983 269.855L53.8259 269.112L53.5524 268.369C53.4248 268.022 53.2645 267.709 53.0729 267.426L52.6432 266.793L52.2145 266.16C51.8662 265.646 51.5611 265.105 51.3005 264.538L50.9782 263.836L50.655 263.135C50.243 262.239 50.1691 261.284 50.3786 260.351L50.5602 259.543L50.7419 258.735C50.8087 258.436 50.8037 258.21 50.7682 258.032L50.4772 256.583C50.3699 256.047 50.2834 255.502 50.2175 254.949L50.0378 253.442C49.942 252.638 50.0286 251.841 50.2956 251.076L50.4235 250.708L50.3688 250.67C50.1075 250.489 49.8055 250.325 49.4577 250.184L48.7448 249.895L48.0329 249.607C47.4817 249.383 46.9373 249.122 46.4011 248.826L44.9889 248.049C44.1052 247.562 43.4496 246.811 43.0983 245.855L42.8259 245.112L42.5524 244.369C42.4248 244.022 42.2645 243.708 42.0729 243.426L41.6432 242.793L41.2145 242.16C40.8663 241.647 40.5611 241.105 40.3005 240.538L39.9782 239.836L39.655 239.135C39.3266 238.421 39.215 237.669 39.2887 236.92L39.1442 237.035C38.2061 237.778 37.0862 237.953 36.0114 237.717L34.3083 237.342C34.1955 237.317 34.1296 237.318 34.1022 237.32C34.0794 237.322 34.071 237.325 34.0671 237.327L33.3932 237.647L32.7184 237.965C32.1442 238.236 31.5454 238.446 30.9255 238.596L30.1921 238.773L29.4587 238.95C28.591 239.159 27.7146 239.111 26.8766 238.821L26.1501 238.569L25.4235 238.319C25.2593 238.262 25.0915 238.244 24.8903 238.277L23.3337 238.527C22.5911 238.645 21.845 238.637 21.1071 238.496L20.3483 238.352L19.5895 238.208C18.4999 238.001 17.6491 237.368 17.0661 236.509L16.5827 235.797L16.0993 235.084C15.8878 234.773 15.696 234.591 15.5436 234.486L14.3698 233.671C14.1085 233.49 13.8065 233.326 13.4587 233.185L12.7458 232.896L12.0339 232.608C11.4827 232.384 10.9383 232.123 10.402 231.827L8.98992 231.05C8.10616 230.563 7.45057 229.812 7.09929 228.856L6.82683 228.113L6.55339 227.37C6.42575 227.023 6.26553 226.71 6.0739 226.427L5.64421 225.794L5.2155 225.161C4.86718 224.647 4.56208 224.106 4.30144 223.539L3.97918 222.837L3.65593 222.136C3.24406 221.24 3.1701 220.285 3.37957 219.352L3.56121 218.544L3.74285 217.736C3.8097 217.437 3.80469 217.21 3.76921 217.033L3.4782 215.584C3.37087 215.048 3.28442 214.503 3.21843 213.95L3.03875 212.443C2.94294 211.639 3.02964 210.842 3.29656 210.077L3.54656 209.362L3.79656 208.647C3.94301 208.227 4.06811 207.807 4.17253 207.386L4.35222 206.662L4.53093 205.94C4.6634 205.406 4.8611 204.897 5.12175 204.417C4.67046 203.99 4.3222 203.464 4.09832 202.855L3.82585 202.112L3.55242 201.369C3.42478 201.022 3.26454 200.709 3.07293 200.426L2.64324 199.793L2.21453 199.16C1.86621 198.647 1.5611 198.105 1.30046 197.538L0.978199 196.836L0.654956 196.135C0.243077 195.239 0.169064 194.284 0.378589 193.351L0.56023 192.543L0.74187 191.735C0.808722 191.436 0.803725 191.21 0.768238 191.032L0.477222 189.583C0.369889 189.047 0.283438 188.502 0.217456 187.949L0.0377688 186.442C-0.0580308 185.638 0.0285955 184.841 0.295581 184.076L0.545581 183.361L0.795581 182.646C0.942064 182.226 1.06713 181.806 1.17156 181.385L1.35125 180.661L1.52996 179.939C1.70295 179.242 1.98747 178.588 2.37761 177.985L3.18816 176.731C3.28732 176.577 3.37303 176.371 3.41668 176.077L3.53777 175.259L3.65984 174.44L3.6989 174.22C3.92434 173.133 4.59453 172.261 5.6071 171.757L6.34539 171.39L7.08464 171.023C7.52161 170.805 7.91432 170.585 8.26433 170.362L8.35027 170.307C8.03167 170.158 7.71446 169.999 7.40105 169.826L5.98894 169.049C5.10515 168.562 4.4496 167.811 4.09832 166.855L3.82585 166.112L3.55242 165.369C3.42479 165.022 3.26453 164.709 3.07293 164.426L2.64324 163.793L2.21453 163.16C1.86622 162.647 1.56109 162.105 1.30046 161.538L0.978199 160.836L0.654956 160.135C0.243104 159.239 0.169069 158.284 0.378589 157.351L0.56023 156.543L0.74187 155.735C0.808711 155.436 0.803723 155.21 0.768238 155.032L0.477222 153.583C0.369895 153.047 0.283435 152.502 0.217456 151.949L0.0377688 150.442C-0.0580184 149.638 0.0286026 148.841 0.295581 148.076L0.545581 147.361L0.795581 146.646C0.942058 146.226 1.06713 145.806 1.17156 145.385L1.35125 144.661L1.52996 143.939C1.70295 143.242 1.98747 142.588 2.37761 141.985L3.18816 140.731C3.28731 140.577 3.37303 140.371 3.41668 140.077L3.53777 139.259L3.65984 138.44L3.6989 138.22C3.91774 137.165 4.55595 136.313 5.51921 135.803C5.22979 135.005 5.19476 134.17 5.37859 133.351L5.56023 132.543L5.74187 131.735C5.80873 131.436 5.80373 131.21 5.76824 131.032L5.47722 129.583C5.36988 129.047 5.28344 128.502 5.21746 127.949L5.03777 126.442C4.94196 125.638 5.02861 124.841 5.29558 124.076L5.54558 123.361L5.79558 122.646C5.94206 122.226 6.06713 121.806 6.17156 121.385L6.35125 120.661L6.52996 119.939C6.70294 119.242 6.98749 118.588 7.37761 117.985L8.18816 116.731C8.28731 116.577 8.37302 116.371 8.41668 116.077L8.53777 115.259L8.65984 114.44L8.6989 114.22C8.92433 113.133 9.59457 112.261 10.6071 111.757L11.3454 111.39L12.0846 111.023C12.5216 110.805 12.9143 110.585 13.2643 110.362L13.8864 109.967L14.5094 109.572C14.7125 109.444 14.8987 109.273 15.069 109.047L15.9948 107.817C16.3785 107.307 16.8092 106.833 17.2839 106.398L17.8639 105.865L18.444 105.332C19.1554 104.679 20.0247 104.297 20.986 104.212L21.7721 104.143L22.5573 104.072C23.0221 104.031 23.4668 103.972 23.8913 103.894L25.36 103.624C25.7624 103.55 26.1698 103.447 26.5817 103.316L27.3171 103.08L28.0534 102.845C28.6657 102.649 29.2943 102.512 29.9362 102.435L30.7136 102.341L31.4919 102.246C32.2738 102.152 33.0518 102.213 33.8093 102.429L34.5612 102.643L35.3122 102.858C35.7616 102.986 36.2096 103.111 36.655 103.236L37.0846 103.023C37.5216 102.805 37.9143 102.585 38.2643 102.362L38.8864 101.967L39.5094 101.572C39.7125 101.444 39.8987 101.273 40.069 101.047L40.9948 99.8166C41.3785 99.3066 41.8092 98.8334 42.2839 98.3976L42.8639 97.8654L43.444 97.3322C44.1554 96.6792 45.0247 96.2972 45.986 96.2121L46.7721 96.1427L47.5573 96.0724C48.0221 96.0313 48.4668 95.9717 48.8913 95.8937L50.36 95.6242C50.7624 95.5502 51.1698 95.4474 51.5817 95.3156L52.3171 95.0802L53.0534 94.8449C53.6657 94.649 54.2944 94.5125 54.9362 94.4347L55.7096 94.341L55.5524 93.9132C55.4248 93.5658 55.2645 93.2525 55.0729 92.9699L54.6432 92.3371L54.2145 91.7043C53.8662 91.1905 53.5611 90.6488 53.3005 90.0822L52.9782 89.38L52.655 88.6789C52.2431 87.7832 52.1691 86.8283 52.3786 85.8947L52.5602 85.0871L52.7419 84.2785C52.8087 83.9803 52.8037 83.7535 52.7682 83.5763L52.4772 82.1271C52.3699 81.5913 52.2834 81.0463 52.2175 80.4933L52.0378 78.9855C51.942 78.1815 52.0286 77.3849 52.2956 76.6203L52.5456 75.9054L52.7956 75.1896C52.9421 74.7701 53.0671 74.3497 53.1716 73.9289L53.3512 73.2052L53.53 72.4826C53.7029 71.7856 53.9875 71.1316 54.3776 70.5285L55.1882 69.2746C55.2873 69.1213 55.373 68.9152 55.4167 68.6212L55.5378 67.8029L55.6598 66.9836L55.6989 66.7638C55.7808 66.3688 55.9214 66.0019 56.1159 65.6711C56.11 65.6556 56.104 65.6398 56.0983 65.6242L55.8259 64.882L55.5524 64.1388C55.4248 63.7914 55.2645 63.4781 55.0729 63.1955L54.6432 62.5627L54.2145 61.9298C53.8662 61.4161 53.5611 60.8744 53.3005 60.3078L52.9782 59.6056L52.655 58.9045C52.2431 58.0088 52.1691 57.0539 52.3786 56.1203L52.5602 55.3127L52.7419 54.5041C52.8087 54.2059 52.8037 53.979 52.7682 53.8019L52.4772 52.3527C52.3699 51.8169 52.2834 51.2719 52.2175 50.7189L52.0378 49.2111C51.942 48.4071 52.0286 47.6104 52.2956 46.8459L52.5456 46.131L52.7956 45.4152C52.9421 44.9957 53.0671 44.5753 53.1716 44.1545L53.3512 43.4308L53.53 42.7082C53.7029 42.0111 53.9875 41.3572 54.3776 40.7541L55.1882 39.5002C55.2873 39.3469 55.373 39.1408 55.4167 38.8468L55.5378 38.0285L55.6598 37.2091L55.6989 36.9894C55.802 36.4925 55.9989 36.041 56.278 35.6486C56.2487 35.2168 56.2819 34.7815 56.3786 34.3507L56.5602 33.5431L56.7419 32.7345C56.8087 32.4363 56.8037 32.2095 56.7682 32.0324L56.4772 30.5832C56.3699 30.0473 56.2834 29.5024 56.2175 28.9494L56.0378 27.4416C55.942 26.6376 56.0286 25.8409 56.2956 25.0763L56.5456 24.3615L56.7956 23.6457C56.9421 23.2261 57.0671 22.8057 57.1716 22.3849L57.3512 21.6613L57.53 20.9386C57.7029 20.2416 57.9875 19.5876 58.3776 18.9845L59.1882 17.7306C59.2873 17.5773 59.373 17.3712 59.4167 17.0773L59.5378 16.2589L59.6598 15.4396L59.6989 15.2199C59.9243 14.1327 60.5945 13.2606 61.6071 12.757L62.3454 12.3898L63.0846 12.0226C63.5216 11.8053 63.9143 11.5847 64.2643 11.3625L64.8864 10.967L65.5094 10.5724C65.7125 10.4435 65.8987 10.2735 66.069 10.047L66.9948 8.81656C67.3785 8.30656 67.8092 7.83338 68.2839 7.39762L68.8639 6.86539L69.444 6.33219C70.1554 5.6792 71.0247 5.29717 71.986 5.21207L72.7721 5.14273L73.5573 5.07242C74.0221 5.03134 74.4668 4.97168 74.8913 4.89371L76.36 4.62418C76.7624 4.55024 77.1697 4.4474 77.5817 4.31559L78.3171 4.08023L79.0534 3.84488C79.6657 3.64897 80.2943 3.51248 80.9362 3.43473L81.7136 3.34098L82.4919 3.24625C83.2738 3.15159 84.0517 3.2128 84.8093 3.42887L85.5612 3.64273L86.3122 3.85758C86.8083 3.99915 87.3025 4.13804 87.7936 4.27457L88.5368 4.4816L89.2809 4.68863C89.8192 4.83827 90.3553 5.00631 90.8874 5.19254L91.6237 5.45035L92.361 5.70816C93.2927 6.03427 94.034 6.64354 94.5651 7.44352L95.027 8.13785L95.2009 8.40055C95.2219 8.38741 95.2436 8.37561 95.2643 8.36246L95.8864 7.96695L96.5094 7.57242C96.7125 7.44353 96.8987 7.27336 97.069 7.04703L97.9948 5.81656C98.3785 5.30663 98.8092 4.83333 99.2839 4.39762L99.8639 3.86539L100.444 3.33219C101.155 2.67926 102.025 2.29721 102.986 2.21207L103.772 2.14273L104.557 2.07242C105.022 2.03135 105.467 1.97166 105.891 1.89371L107.36 1.62418C107.762 1.55026 108.17 1.44735 108.582 1.31559L109.317 1.08023L110.053 0.844882C110.666 0.649003 111.294 0.51249 111.936 0.434726L112.714 0.340976L113.492 0.24625C114.274 0.151604 115.052 0.212854 115.809 0.428867L116.561 0.642734L117.312 0.857578C117.808 0.999133 118.303 1.13806 118.794 1.27457L119.537 1.4816L120.281 1.68863C120.819 1.83825 121.355 2.00634 121.887 2.19254L122.624 2.45035L123.361 2.70816C124.293 3.03426 125.034 3.64357 125.565 4.44352L126.027 5.13785L126.488 5.83316C126.501 5.85216 126.51 5.8626 126.513 5.86637C126.515 5.86764 126.516 5.8688 126.516 5.8693C126.517 5.86985 126.52 5.87061 126.524 5.87223C126.531 5.87543 126.548 5.8821 126.576 5.88883L127.398 6.08805L128.221 6.28629C128.338 6.31454 128.454 6.34711 128.567 6.38394L128.995 5.81656C129.378 5.30663 129.809 4.83333 130.284 4.39762L130.864 3.86539L131.444 3.33219C132.155 2.67928 133.025 2.29723 133.986 2.21207L134.772 2.14273L135.557 2.07242C136.022 2.03135 136.467 1.97165 136.891 1.89371L138.36 1.62418C138.762 1.55026 139.17 1.44735 139.582 1.31559L140.317 1.08023L141.053 0.844882C141.666 0.649011 142.294 0.512492 142.936 0.434726L143.714 0.340976L144.492 0.24625C145.274 0.151609 146.052 0.212881 146.809 0.428867L147.561 0.642734L148.312 0.857578C148.808 0.999122 149.303 1.13807 149.794 1.27457L150.537 1.4816L151.281 1.68863C151.819 1.83824 152.355 2.00636 152.887 2.19254L153.624 2.45035L154.361 2.70816C155.293 3.03424 156.034 3.64363 156.565 4.44352L157.027 5.13785L157.488 5.83316C157.5 5.85198 157.51 5.86251 157.513 5.86637C157.515 5.86756 157.516 5.86877 157.516 5.8693C157.517 5.86985 157.52 5.87065 157.524 5.87223C157.531 5.87542 157.548 5.88211 157.576 5.88883L158.398 6.08805L159.221 6.28629C159.497 6.35294 159.764 6.4441 160.017 6.55875L160.729 5.61344C161.113 5.10346 161.544 4.63024 162.018 4.19449L162.598 3.66227L163.178 3.12906C163.89 2.47612 164.759 2.09407 165.72 2.00894L166.507 1.93961L167.292 1.8693C167.756 1.82822 168.201 1.76855 168.626 1.69059L170.094 1.42105C170.497 1.34712 170.904 1.24426 171.316 1.11246L172.051 0.877109L172.788 0.641757C173.4 0.445865 174.029 0.309363 174.671 0.231601L175.448 0.137851L176.226 0.0431246C177.008 -0.0515195 177.786 0.00973936 178.544 0.225742L179.296 0.439609L180.047 0.654453C180.543 0.796004 181.037 0.934936 181.528 1.07144L182.271 1.27848L183.015 1.48551C183.554 1.63512 184.09 1.80323 184.622 1.98941L185.358 2.24723L186.095 2.50504C187.027 2.8311 187.768 3.44057 188.299 4.24039L188.761 4.93473L189.222 5.63004C189.235 5.64873 189.244 5.65933 189.248 5.66324C189.249 5.66438 189.25 5.66562 189.251 5.66617C189.252 5.66672 189.255 5.66751 189.258 5.6691C189.266 5.6723 189.283 5.67898 189.31 5.6857L190.132 5.88492L190.956 6.08316C191.931 6.31868 192.785 6.8521 193.392 7.6984L193.849 8.33707L194.216 8.84879L194.277 8.81949C194.714 8.60218 195.107 8.38154 195.457 8.15934L196.079 7.76383L196.702 7.3693C196.905 7.24037 197.091 7.07034 197.261 6.84391L198.187 5.61344C198.571 5.10346 199.002 4.63024 199.476 4.19449L200.056 3.66227L200.636 3.12906C201.348 2.47612 202.217 2.09407 203.178 2.00894L203.965 1.93961L204.75 1.8693C205.214 1.82822 205.659 1.76855 206.084 1.69059L207.552 1.42105C207.955 1.34712 208.362 1.24426 208.774 1.11246L209.509 0.877109L210.246 0.641757C210.858 0.445865 211.487 0.309363 212.129 0.231601L212.906 0.137851L213.684 0.0431246C214.466 -0.0515195 215.244 0.00973936 216.002 0.225742L216.754 0.439609L217.505 0.654453C218.001 0.796004 218.495 0.934936 218.986 1.07144L219.729 1.27848L220.473 1.48551C221.012 1.63512 221.548 1.80323 222.08 1.98941L222.816 2.24723L223.553 2.50504C224.485 2.8311 225.226 3.44057 225.757 4.24039L226.219 4.93473L226.68 5.63004C226.693 5.64873 226.702 5.65933 226.706 5.66324C226.707 5.66438 226.708 5.66562 226.709 5.66617C226.71 5.66672 226.713 5.66751 226.716 5.6691C226.724 5.6723 226.741 5.67898 226.768 5.6857L227.591 5.88492L228.414 6.08316C229.389 6.31868 230.243 6.8521 230.85 7.6984L231.307 8.33707L231.674 8.84977L231.736 8.81949C232.173 8.60222 232.566 8.38149 232.916 8.15934L233.538 7.76383L234.161 7.3693C234.364 7.24039 234.55 7.07023 234.72 6.84391L235.646 5.61344C236.03 5.10355 236.461 4.63017 236.935 4.19449L237.515 3.66227L238.095 3.12906C238.807 2.47621 239.676 2.09401 240.637 2.00894L241.424 1.93961L242.209 1.8693C242.673 1.82821 243.118 1.76855 243.543 1.69059L245.011 1.42105C245.414 1.34711 245.821 1.24425 246.233 1.11246L246.968 0.877109L247.705 0.641757C248.317 0.445889 248.946 0.309346 249.588 0.231601L250.365 0.137851L251.143 0.0431246Z" fill="var(--fill-0, white)"/>
</svg>
