<svg width="613" height="970" viewBox="0 0 613 970" fill="none" xmlns="http://www.w3.org/2000/svg">
<g filter="url(#filter0_g_148_19237)">
<path d="M306.418 422.339C319.595 422.339 331.464 427.927 339.792 436.86C341.478 436.671 343.191 436.57 344.927 436.57C370.125 436.57 390.552 456.998 390.552 482.195C390.552 486.634 389.916 490.923 388.734 494.98C404.611 502.119 415.667 518.074 415.667 536.611C415.667 538.347 415.566 540.059 415.377 541.744C424.311 550.073 429.899 561.943 429.899 575.12C429.899 588.341 424.273 600.245 415.288 608.577C415.537 610.505 415.667 612.471 415.667 614.467C415.667 633.004 404.611 648.958 388.734 656.098C389.916 660.154 390.552 664.444 390.552 668.882C390.552 694.08 370.125 714.507 344.927 714.507C343.191 714.507 341.479 714.407 339.793 714.218C331.465 723.151 319.595 728.739 306.418 728.739C293.198 728.739 281.293 723.114 272.96 714.129C271.032 714.377 269.067 714.507 267.072 714.507C241.874 714.507 221.447 694.08 221.447 668.882C221.447 664.444 222.082 660.154 223.264 656.098C207.387 648.958 196.331 633.004 196.331 614.467C196.331 612.471 196.461 610.505 196.709 608.577C187.725 600.245 182.1 588.34 182.1 575.12C182.1 561.944 187.688 550.074 196.62 541.745C196.432 540.06 196.331 538.347 196.331 536.611C196.331 518.074 207.387 502.12 223.264 494.98C222.082 490.923 221.447 486.633 221.447 482.195C221.447 456.998 241.874 436.57 267.072 436.57C269.067 436.57 271.032 436.7 272.96 436.948C281.293 427.964 293.198 422.339 306.418 422.339Z" fill="white"/>
</g>
<g filter="url(#filter1_g_148_19237)">
<path d="M218.768 424.079C222.129 423.038 225.378 425.539 226.302 428.524C228.174 434.568 220.331 442.42 220.162 442.473C219.992 442.525 209.086 440.477 207.214 434.432C206.29 431.447 207.559 427.548 210.92 426.508C212.85 425.91 214.415 426.497 215.412 427.129C215.878 426.044 216.838 424.676 218.768 424.079Z" fill="white"/>
</g>
<g filter="url(#filter2_g_148_19237)">
<path d="M410.056 710.098C413.386 711.236 414.54 715.17 413.53 718.127C411.483 724.115 400.522 725.844 400.354 725.787C400.186 725.73 392.576 717.653 394.622 711.665C395.632 708.708 398.953 706.304 402.283 707.442C404.195 708.095 405.114 709.49 405.548 710.589C406.564 709.985 408.144 709.445 410.056 710.098Z" fill="white"/>
</g>
<g filter="url(#filter3_g_148_19237)">
<path d="M456.385 527.148C458.729 527.949 459.541 530.719 458.83 532.8C457.39 537.015 449.673 538.233 449.555 538.192C449.437 538.152 444.08 532.467 445.52 528.251C446.231 526.17 448.569 524.477 450.913 525.278C452.259 525.738 452.906 526.72 453.211 527.494C453.926 527.069 455.039 526.688 456.385 527.148Z" fill="white"/>
</g>
<g filter="url(#filter4_g_148_19237)">
<path d="M231.923 813.038C234.97 811.278 238.693 812.997 240.255 815.703C243.419 821.183 237.511 830.577 237.358 830.665C237.204 830.754 226.115 831.173 222.951 825.693C221.388 822.987 221.761 818.904 224.809 817.145C226.559 816.135 228.214 816.36 229.327 816.756C229.541 815.594 230.173 814.048 231.923 813.038Z" fill="white"/>
</g>
<g filter="url(#filter5_g_148_19237)">
<path d="M422.596 432.967C426.421 433.822 428.176 438.038 427.416 441.434C425.878 448.312 413.952 451.558 413.759 451.514C413.566 451.471 404.16 443.454 405.698 436.576C406.458 433.18 409.842 430.114 413.667 430.97C415.863 431.461 417.05 432.894 417.664 434.057C418.715 433.266 420.4 432.476 422.596 432.967Z" fill="white"/>
</g>
<g filter="url(#filter6_g_148_19237)">
<path d="M231.245 407.52C233.528 406.814 235.734 408.512 236.361 410.539C237.632 414.643 232.307 419.975 232.192 420.011C232.077 420.046 224.671 418.655 223.4 414.551C222.773 412.524 223.634 409.876 225.916 409.17C227.227 408.764 228.289 409.162 228.967 409.592C229.283 408.855 229.935 407.926 231.245 407.52Z" fill="white"/>
</g>
<g filter="url(#filter7_g_148_19237)">
<circle cx="202.5" cy="668.339" r="3.2" stroke="white" stroke-width="2.4"/>
</g>
<g filter="url(#filter8_g_148_19237)">
<circle cx="371.3" cy="417.939" r="3.2" stroke="white" stroke-width="2.4"/>
</g>
<g filter="url(#filter9_g_148_19237)">
<circle cx="454.9" cy="373.539" r="4.4" stroke="white" stroke-width="2.4"/>
</g>
<g filter="url(#filter10_g_148_19237)">
<circle cx="379.3" cy="732.339" r="2.4" stroke="white" stroke-width="2.4"/>
</g>
<g filter="url(#filter11_g_148_19237)">
<circle cx="403.3" cy="321.139" r="2.4" stroke="white" stroke-width="2.4"/>
</g>
<g filter="url(#filter12_g_148_19237)">
<circle cx="442.5" cy="421.939" r="2.4" stroke="white" stroke-width="2.4"/>
</g>
<g filter="url(#filter13_g_148_19237)">
<path d="M199.773 481.803C199.761 481.72 199.556 480.304 198.962 477.992C198.265 475.274 195.167 474.228 194.161 474.257C192.49 474.304 191.102 474.878 189.745 475.562C188.333 476.274 187.607 477.123 187.217 477.729C186.856 478.29 187.172 479.236 187.43 480.135C187.549 480.548 187.907 480.775 188.227 480.901C188.851 481.145 189.864 480.921 190.941 480.637C192.418 480.248 192.33 478.302 192.364 476.889C192.386 475.963 192.01 475.187 191.583 474.631C190.583 473.33 189.68 471.951 187.756 471.422C186.361 471.039 185.12 470.743 183.229 470.867C181.16 471.146 179.043 471.986 178.397 472.313C178.071 472.467 177.746 472.598 176.718 473.343" stroke="#FFF0B0" stroke-width="2.4" stroke-linecap="round"/>
</g>
<g filter="url(#filter14_g_148_19237)">
<path d="M428.675 681.244C428.686 681.147 428.874 679.493 428.891 676.715C428.912 673.451 425.736 671.355 424.596 671.089C422.701 670.647 420.969 670.881 419.24 671.249C417.44 671.631 416.371 672.372 415.752 672.938C415.18 673.462 415.255 674.621 415.279 675.709C415.29 676.209 415.626 676.57 415.949 676.807C416.578 677.267 417.786 677.314 419.082 677.314C420.858 677.315 421.337 675.099 421.794 673.518C422.093 672.483 421.899 671.498 421.583 670.746C420.844 668.986 420.236 667.166 418.229 666.001C416.773 665.156 415.464 664.455 413.299 664.034C410.888 663.735 408.256 664.053 407.433 664.229C407.02 664.306 406.616 664.357 405.238 664.89" stroke="#FFF0B0" stroke-width="2.4" stroke-linecap="round"/>
</g>
<g filter="url(#filter15_g_148_19237)">
<path d="M295.184 773.543C295.278 773.569 296.886 773.999 299.631 774.428C302.856 774.931 305.398 772.101 305.83 771.012C306.548 769.203 306.573 767.456 306.465 765.691C306.353 763.854 305.779 762.687 305.31 761.992C304.876 761.348 303.72 761.251 302.64 761.114C302.144 761.051 301.737 761.329 301.455 761.614C300.907 762.168 300.681 763.356 300.489 764.637C300.226 766.394 302.347 767.195 303.843 767.881C304.822 768.33 305.825 768.284 306.615 768.083C308.466 767.612 310.355 767.281 311.805 765.467C312.856 764.153 313.743 762.962 314.479 760.883C315.132 758.542 315.207 755.893 315.155 755.053C315.14 754.633 315.149 754.225 314.825 752.784" stroke="white" stroke-width="2.4" stroke-linecap="round"/>
</g>
<g filter="url(#filter16_g_148_19237)">
<path d="M288.273 369.622C288.337 369.548 289.429 368.292 291.017 366.012C292.882 363.334 291.452 359.808 290.663 358.943C289.352 357.505 287.792 356.717 286.158 356.04C284.458 355.336 283.158 355.341 282.327 355.457C281.559 355.565 280.964 356.562 280.368 357.473C280.094 357.891 280.166 358.379 280.298 358.757C280.556 359.493 281.525 360.216 282.593 360.95C284.057 361.956 285.706 360.401 286.978 359.357C287.81 358.674 288.209 357.752 288.374 356.954C288.762 355.084 289.292 353.241 288.298 351.143C287.576 349.622 286.895 348.303 285.349 346.73C283.531 345.117 281.182 343.889 280.404 343.568C280.02 343.397 279.658 343.21 278.22 342.869" stroke="white" stroke-width="2.4" stroke-linecap="round"/>
</g>
<g filter="url(#filter17_g_148_19237)">
<circle cx="424.5" cy="692.739" r="1.2" stroke="#FFF0B0" stroke-width="2.4"/>
</g>
<g filter="url(#filter18_g_148_19237)">
<circle cx="170.1" cy="597.539" r="1.2" stroke="#FFF0B0" stroke-width="2.4"/>
</g>
<g filter="url(#filter19_g_148_19237)">
<circle cx="205.3" cy="327.139" r="1.2" stroke="#FFF0B0" stroke-width="2.4"/>
</g>
<g filter="url(#filter20_g_148_19237)">
<circle cx="438.9" cy="479.139" r="1.2" stroke="#FFF0B0" stroke-width="2.4"/>
</g>
<g filter="url(#filter21_g_148_19237)">
<circle cx="168.1" cy="425.939" r="3.2" stroke="#FFF0B0" stroke-width="2.4"/>
</g>
<g filter="url(#filter22_g_148_19237)">
<circle cx="156.9" cy="781.939" r="3.2" stroke="#FFF0B0" stroke-width="2.4"/>
</g>
<g filter="url(#filter23_g_148_19237)">
<path d="M223.14 718.012C225.01 718.609 225.74 721.558 224.77 724.597C224.699 724.821 224.619 725.038 224.535 725.249C224.756 725.302 224.98 725.363 225.203 725.435C228.243 726.404 230.224 728.707 229.627 730.578C229.031 732.449 226.082 733.179 223.042 732.21C222.818 732.138 222.601 732.058 222.39 731.973C222.336 732.195 222.275 732.418 222.204 732.642C221.234 735.682 218.932 737.662 217.061 737.066C215.19 736.469 214.46 733.521 215.43 730.481C215.501 730.257 215.58 730.039 215.665 729.827C215.443 729.774 215.22 729.714 214.997 729.643C211.957 728.673 209.977 726.37 210.574 724.5C211.17 722.629 214.118 721.898 217.158 722.868C217.381 722.939 217.599 723.019 217.81 723.104C217.863 722.882 217.925 722.66 217.996 722.436C218.966 719.396 221.269 717.415 223.14 718.012Z" fill="#FFF0B0"/>
</g>
<g filter="url(#filter24_g_148_19237)">
<path d="M400.504 394.744C402.231 395.295 402.905 398.016 402.01 400.822C401.944 401.029 401.87 401.229 401.791 401.424C401.996 401.473 402.203 401.53 402.409 401.595C405.215 402.491 407.043 404.616 406.492 406.343C405.941 408.07 403.22 408.744 400.414 407.849C400.208 407.784 400.008 407.709 399.812 407.631C399.763 407.835 399.707 408.042 399.641 408.249C398.746 411.054 396.62 412.883 394.893 412.332C393.167 411.781 392.493 409.059 393.388 406.254C393.454 406.047 393.526 405.846 393.605 405.65C393.401 405.602 393.195 405.545 392.989 405.48C390.183 404.584 388.355 402.459 388.906 400.733C389.457 399.006 392.178 398.331 394.984 399.227C395.19 399.292 395.39 399.366 395.585 399.444C395.634 399.24 395.691 399.034 395.757 398.828C396.652 396.022 398.777 394.193 400.504 394.744Z" fill="#FFF0B0"/>
</g>
<g filter="url(#filter25_g_148_19237)">
<path d="M180.905 710.245C181.276 709.281 181.462 708.798 181.729 708.658C181.962 708.537 182.238 708.537 182.47 708.658C182.738 708.798 182.924 709.281 183.295 710.245L183.388 710.487C183.568 710.956 183.658 711.191 183.799 711.388C183.923 711.563 184.076 711.716 184.251 711.84C184.448 711.981 184.683 712.071 185.152 712.251L185.394 712.344C186.358 712.715 186.841 712.901 186.98 713.169C187.102 713.401 187.102 713.677 186.98 713.909C186.841 714.177 186.358 714.363 185.394 714.734L185.152 714.827C184.683 715.007 184.448 715.097 184.251 715.238C184.076 715.362 183.923 715.515 183.799 715.69C183.658 715.887 183.568 716.122 183.388 716.591L183.295 716.833C182.924 717.797 182.738 718.28 182.47 718.42C182.238 718.541 181.962 718.541 181.73 718.42C181.462 718.28 181.276 717.797 180.905 716.833L180.812 716.591C180.632 716.122 180.542 715.887 180.401 715.69C180.277 715.515 180.124 715.362 179.949 715.238C179.752 715.097 179.517 715.007 179.048 714.827L178.806 714.734C177.842 714.363 177.359 714.177 177.219 713.909C177.098 713.677 177.098 713.401 177.219 713.169C177.359 712.901 177.842 712.715 178.806 712.344L179.048 712.251C179.517 712.071 179.752 711.981 179.949 711.84C180.124 711.716 180.277 711.563 180.401 711.388C180.542 711.191 180.632 710.956 180.812 710.487L180.905 710.245Z" fill="white"/>
</g>
<g filter="url(#filter26_g_148_19237)">
<path d="M443.305 747.045C443.676 746.081 443.862 745.598 444.13 745.459C444.362 745.337 444.638 745.337 444.87 745.459C445.138 745.598 445.324 746.081 445.695 747.045L445.788 747.287C445.968 747.756 446.058 747.991 446.199 748.188C446.323 748.363 446.476 748.516 446.651 748.64C446.848 748.781 447.083 748.871 447.552 749.051L447.794 749.144C448.758 749.515 449.241 749.701 449.38 749.969C449.502 750.201 449.502 750.477 449.38 750.709C449.241 750.977 448.758 751.163 447.794 751.534L447.552 751.627C447.083 751.807 446.848 751.897 446.651 752.038C446.476 752.162 446.323 752.315 446.199 752.49C446.058 752.687 445.968 752.922 445.788 753.391L445.695 753.633C445.324 754.597 445.138 755.08 444.87 755.22C444.638 755.341 444.362 755.341 444.13 755.22C443.862 755.08 443.676 754.597 443.305 753.633L443.212 753.391C443.032 752.922 442.942 752.687 442.801 752.49C442.677 752.315 442.524 752.162 442.349 752.038C442.152 751.897 441.917 751.807 441.448 751.627L441.206 751.534C440.242 751.163 439.759 750.977 439.619 750.709C439.498 750.477 439.498 750.201 439.619 749.969C439.759 749.701 440.242 749.515 441.206 749.144L441.448 749.051C441.917 748.871 442.152 748.781 442.349 748.64C442.524 748.516 442.677 748.363 442.801 748.188C442.942 747.991 443.032 747.756 443.212 747.287L443.305 747.045Z" fill="white"/>
</g>
<g filter="url(#filter27_g_148_19237)">
<path d="M181.705 514.245C182.076 513.281 182.262 512.798 182.53 512.658C182.762 512.537 183.038 512.537 183.27 512.658C183.538 512.798 183.724 513.281 184.095 514.245L184.188 514.487C184.368 514.956 184.458 515.191 184.599 515.388C184.723 515.563 184.876 515.716 185.051 515.84C185.248 515.981 185.483 516.071 185.952 516.251L186.194 516.344C187.158 516.715 187.641 516.901 187.781 517.169C187.902 517.401 187.902 517.677 187.781 517.909C187.641 518.177 187.158 518.363 186.194 518.734L185.952 518.827C185.483 519.007 185.248 519.097 185.051 519.238C184.876 519.362 184.723 519.515 184.599 519.69C184.458 519.887 184.368 520.122 184.188 520.591L184.095 520.833C183.724 521.797 183.538 522.28 183.27 522.42C183.038 522.541 182.762 522.541 182.53 522.42C182.262 522.28 182.076 521.797 181.705 520.833L181.612 520.591C181.432 520.122 181.342 519.887 181.201 519.69C181.077 519.515 180.924 519.362 180.749 519.238C180.552 519.097 180.317 519.007 179.848 518.827L179.606 518.734C178.642 518.363 178.159 518.177 178.019 517.909C177.898 517.677 177.898 517.401 178.019 517.169C178.159 516.901 178.642 516.715 179.606 516.344L179.848 516.251C180.317 516.071 180.552 515.981 180.749 515.84C180.924 515.716 181.077 515.563 181.201 515.388C181.342 515.191 181.432 514.956 181.612 514.487L181.705 514.245Z" fill="white"/>
</g>
<g filter="url(#filter28_g_148_19237)">
<path d="M417.305 482.245C417.676 481.281 417.862 480.798 418.13 480.658C418.362 480.537 418.638 480.537 418.87 480.658C419.138 480.798 419.324 481.281 419.695 482.245L420.351 483.952C420.61 484.626 420.74 484.963 420.942 485.247C421.121 485.499 421.34 485.718 421.592 485.897C421.876 486.099 422.213 486.229 422.887 486.488L424.594 487.144C425.558 487.515 426.041 487.701 426.181 487.969C426.302 488.201 426.302 488.477 426.181 488.709C426.041 488.977 425.558 489.163 424.594 489.534L422.887 490.19C422.213 490.449 421.876 490.579 421.592 490.781C421.34 490.96 421.121 491.179 420.942 491.431C420.74 491.715 420.611 492.052 420.351 492.726L419.695 494.433C419.324 495.397 419.138 495.88 418.871 496.02C418.638 496.141 418.362 496.141 418.13 496.02C417.862 495.88 417.676 495.397 417.305 494.433L416.649 492.726C416.39 492.052 416.26 491.715 416.058 491.431C415.879 491.179 415.66 490.96 415.408 490.781C415.125 490.579 414.787 490.449 414.113 490.19L412.406 489.534C411.442 489.163 410.959 488.977 410.82 488.709C410.698 488.477 410.698 488.201 410.82 487.969C410.959 487.701 411.442 487.515 412.406 487.144L414.113 486.488C414.787 486.229 415.125 486.099 415.408 485.897C415.66 485.718 415.879 485.499 416.058 485.247C416.26 484.963 416.39 484.626 416.649 483.952L417.305 482.245Z" fill="white"/>
</g>
<g filter="url(#filter29_g_148_19237)">
<path d="M326.505 801.445C326.876 800.481 327.062 799.998 327.33 799.859C327.562 799.737 327.838 799.737 328.07 799.859C328.338 799.998 328.524 800.481 328.895 801.445L329.149 802.105C329.352 802.633 329.453 802.897 329.611 803.119C329.751 803.316 329.923 803.488 330.12 803.628C330.342 803.786 330.606 803.887 331.134 804.09L331.794 804.344C332.758 804.715 333.241 804.901 333.381 805.169C333.502 805.401 333.502 805.677 333.381 805.91C333.241 806.177 332.758 806.363 331.794 806.734L331.134 806.988C330.606 807.191 330.342 807.292 330.12 807.45C329.923 807.59 329.751 807.762 329.611 807.959C329.453 808.181 329.352 808.445 329.149 808.973L328.895 809.633C328.524 810.597 328.338 811.08 328.07 811.22C327.838 811.341 327.562 811.341 327.33 811.22C327.062 811.08 326.876 810.597 326.505 809.633L326.251 808.973C326.048 808.445 325.947 808.181 325.789 807.959C325.649 807.762 325.477 807.59 325.28 807.45C325.058 807.292 324.794 807.191 324.266 806.988L323.606 806.734C322.642 806.363 322.159 806.177 322.019 805.91C321.898 805.677 321.898 805.401 322.019 805.169C322.159 804.901 322.642 804.715 323.606 804.344L324.266 804.09C324.794 803.887 325.058 803.786 325.28 803.628C325.477 803.488 325.649 803.316 325.789 803.119C325.947 802.897 326.048 802.633 326.251 802.105L326.505 801.445Z" fill="white"/>
</g>
<g filter="url(#filter30_g_148_19237)">
<path d="M307.305 403.045C307.676 402.081 307.862 401.598 308.13 401.459C308.362 401.337 308.638 401.337 308.87 401.459C309.138 401.598 309.324 402.081 309.695 403.045L309.788 403.287C309.968 403.756 310.058 403.991 310.199 404.188C310.323 404.363 310.476 404.516 310.651 404.64C310.848 404.781 311.083 404.871 311.552 405.051L311.794 405.144C312.758 405.515 313.241 405.701 313.38 405.969C313.502 406.201 313.502 406.477 313.38 406.709C313.241 406.977 312.758 407.163 311.794 407.534L311.552 407.627C311.083 407.807 310.848 407.897 310.651 408.038C310.476 408.162 310.323 408.315 310.199 408.49C310.058 408.687 309.968 408.922 309.788 409.391L309.695 409.633C309.324 410.597 309.138 411.08 308.87 411.22C308.638 411.341 308.362 411.341 308.13 411.22C307.862 411.08 307.676 410.597 307.305 409.633L307.212 409.391C307.032 408.922 306.942 408.687 306.801 408.49C306.677 408.315 306.524 408.162 306.349 408.038C306.152 407.897 305.917 407.807 305.448 407.627L305.206 407.534C304.242 407.163 303.759 406.977 303.619 406.709C303.498 406.477 303.498 406.201 303.619 405.969C303.759 405.701 304.242 405.515 305.206 405.144L305.448 405.051C305.917 404.871 306.152 404.781 306.349 404.64C306.524 404.516 306.677 404.363 306.801 404.188C306.942 403.991 307.032 403.756 307.212 403.287L307.305 403.045Z" fill="white"/>
</g>
<g filter="url(#filter31_g_148_19237)">
<circle cx="436.9" cy="812.339" r="3.2" stroke="#FFF0B0" stroke-width="2.4"/>
</g>
<defs>
<filter id="filter0_g_148_19237" x="178.9" y="419.139" width="254.199" height="312.8" filterUnits="userSpaceOnUse" color-interpolation-filters="sRGB">
<feFlood flood-opacity="0" result="BackgroundImageFix"/>
<feBlend mode="normal" in="SourceGraphic" in2="BackgroundImageFix" result="shape"/>
<feTurbulence type="fractalNoise" baseFrequency="0.99900001287460327 0.99900001287460327" numOctaves="3" seed="4547" />
<feDisplacementMap in="shape" scale="6.4000000953674316" xChannelSelector="R" yChannelSelector="G" result="displacedImage" width="100%" height="100%" />
<feMerge result="effect1_texture_148_19237">
<feMergeNode in="displacedImage"/>
</feMerge>
</filter>
<filter id="filter1_g_148_19237" x="205.721" y="422.639" width="22.0693" height="21.0348" filterUnits="userSpaceOnUse" color-interpolation-filters="sRGB">
<feFlood flood-opacity="0" result="BackgroundImageFix"/>
<feBlend mode="normal" in="SourceGraphic" in2="BackgroundImageFix" result="shape"/>
<feTurbulence type="fractalNoise" baseFrequency="0.99900001287460327 0.99900001287460327" numOctaves="3" seed="1765" />
<feDisplacementMap in="shape" scale="2.4000000953674316" xChannelSelector="R" yChannelSelector="G" result="displacedImage" width="100%" height="100%" />
<feMerge result="effect1_texture_148_19237">
<feMergeNode in="displacedImage"/>
</feMerge>
</filter>
<filter id="filter2_g_148_19237" x="393.073" y="705.954" width="22.0106" height="21.0347" filterUnits="userSpaceOnUse" color-interpolation-filters="sRGB">
<feFlood flood-opacity="0" result="BackgroundImageFix"/>
<feBlend mode="normal" in="SourceGraphic" in2="BackgroundImageFix" result="shape"/>
<feTurbulence type="fractalNoise" baseFrequency="0.99900001287460327 0.99900001287460327" numOctaves="3" seed="1765" />
<feDisplacementMap in="shape" scale="2.4000000953674316" xChannelSelector="R" yChannelSelector="G" result="displacedImage" width="100%" height="100%" />
<feMerge result="effect1_texture_148_19237">
<feMergeNode in="displacedImage"/>
</feMerge>
</filter>
<filter id="filter3_g_148_19237" x="444.074" y="523.876" width="16.2047" height="15.5177" filterUnits="userSpaceOnUse" color-interpolation-filters="sRGB">
<feFlood flood-opacity="0" result="BackgroundImageFix"/>
<feBlend mode="normal" in="SourceGraphic" in2="BackgroundImageFix" result="shape"/>
<feTurbulence type="fractalNoise" baseFrequency="0.99900001287460327 0.99900001287460327" numOctaves="3" seed="1765" />
<feDisplacementMap in="shape" scale="2.4000000953674316" xChannelSelector="R" yChannelSelector="G" result="displacedImage" width="100%" height="100%" />
<feMerge result="effect1_texture_148_19237">
<feMergeNode in="displacedImage"/>
</feMerge>
</filter>
<filter id="filter4_g_148_19237" x="220.848" y="811.123" width="21.5371" height="20.7861" filterUnits="userSpaceOnUse" color-interpolation-filters="sRGB">
<feFlood flood-opacity="0" result="BackgroundImageFix"/>
<feBlend mode="normal" in="SourceGraphic" in2="BackgroundImageFix" result="shape"/>
<feTurbulence type="fractalNoise" baseFrequency="0.99900001287460327 0.99900001287460327" numOctaves="3" seed="1765" />
<feDisplacementMap in="shape" scale="2.4000000953674316" xChannelSelector="R" yChannelSelector="G" result="displacedImage" width="100%" height="100%" />
<feMerge result="effect1_texture_148_19237">
<feMergeNode in="displacedImage"/>
</feMerge>
</filter>
<filter id="filter5_g_148_19237" x="404.328" y="429.624" width="24.4619" height="23.0905" filterUnits="userSpaceOnUse" color-interpolation-filters="sRGB">
<feFlood flood-opacity="0" result="BackgroundImageFix"/>
<feBlend mode="normal" in="SourceGraphic" in2="BackgroundImageFix" result="shape"/>
<feTurbulence type="fractalNoise" baseFrequency="0.99900001287460327 0.99900001287460327" numOctaves="3" seed="1765" />
<feDisplacementMap in="shape" scale="2.4000000953674316" xChannelSelector="R" yChannelSelector="G" result="displacedImage" width="100%" height="100%" />
<feMerge result="effect1_texture_148_19237">
<feMergeNode in="displacedImage"/>
</feMerge>
</filter>
<filter id="filter6_g_148_19237" x="222.001" y="406.157" width="15.7563" height="15.0538" filterUnits="userSpaceOnUse" color-interpolation-filters="sRGB">
<feFlood flood-opacity="0" result="BackgroundImageFix"/>
<feBlend mode="normal" in="SourceGraphic" in2="BackgroundImageFix" result="shape"/>
<feTurbulence type="fractalNoise" baseFrequency="0.99900001287460327 0.99900001287460327" numOctaves="3" seed="1765" />
<feDisplacementMap in="shape" scale="2.4000000953674316" xChannelSelector="R" yChannelSelector="G" result="displacedImage" width="100%" height="100%" />
<feMerge result="effect1_texture_148_19237">
<feMergeNode in="displacedImage"/>
</feMerge>
</filter>
<filter id="filter7_g_148_19237" x="197.3" y="663.139" width="10.4" height="10.4" filterUnits="userSpaceOnUse" color-interpolation-filters="sRGB">
<feFlood flood-opacity="0" result="BackgroundImageFix"/>
<feBlend mode="normal" in="SourceGraphic" in2="BackgroundImageFix" result="shape"/>
<feTurbulence type="fractalNoise" baseFrequency="0.99900001287460327 0.99900001287460327" numOctaves="3" seed="1765" />
<feDisplacementMap in="shape" scale="1.6000000238418579" xChannelSelector="R" yChannelSelector="G" result="displacedImage" width="100%" height="100%" />
<feMerge result="effect1_texture_148_19237">
<feMergeNode in="displacedImage"/>
</feMerge>
</filter>
<filter id="filter8_g_148_19237" x="366.1" y="412.739" width="10.4" height="10.4" filterUnits="userSpaceOnUse" color-interpolation-filters="sRGB">
<feFlood flood-opacity="0" result="BackgroundImageFix"/>
<feBlend mode="normal" in="SourceGraphic" in2="BackgroundImageFix" result="shape"/>
<feTurbulence type="fractalNoise" baseFrequency="0.99900001287460327 0.99900001287460327" numOctaves="3" seed="1765" />
<feDisplacementMap in="shape" scale="1.6000000238418579" xChannelSelector="R" yChannelSelector="G" result="displacedImage" width="100%" height="100%" />
<feMerge result="effect1_texture_148_19237">
<feMergeNode in="displacedImage"/>
</feMerge>
</filter>
<filter id="filter9_g_148_19237" x="448.5" y="367.139" width="12.8" height="12.8" filterUnits="userSpaceOnUse" color-interpolation-filters="sRGB">
<feFlood flood-opacity="0" result="BackgroundImageFix"/>
<feBlend mode="normal" in="SourceGraphic" in2="BackgroundImageFix" result="shape"/>
<feTurbulence type="fractalNoise" baseFrequency="0.99900001287460327 0.99900001287460327" numOctaves="3" seed="1765" />
<feDisplacementMap in="shape" scale="1.6000000238418579" xChannelSelector="R" yChannelSelector="G" result="displacedImage" width="100%" height="100%" />
<feMerge result="effect1_texture_148_19237">
<feMergeNode in="displacedImage"/>
</feMerge>
</filter>
<filter id="filter10_g_148_19237" x="374.9" y="727.939" width="8.79995" height="8.8" filterUnits="userSpaceOnUse" color-interpolation-filters="sRGB">
<feFlood flood-opacity="0" result="BackgroundImageFix"/>
<feBlend mode="normal" in="SourceGraphic" in2="BackgroundImageFix" result="shape"/>
<feTurbulence type="fractalNoise" baseFrequency="0.99900001287460327 0.99900001287460327" numOctaves="3" seed="1765" />
<feDisplacementMap in="shape" scale="1.6000000238418579" xChannelSelector="R" yChannelSelector="G" result="displacedImage" width="100%" height="100%" />
<feMerge result="effect1_texture_148_19237">
<feMergeNode in="displacedImage"/>
</feMerge>
</filter>
<filter id="filter11_g_148_19237" x="398.9" y="316.739" width="8.79995" height="8.80001" filterUnits="userSpaceOnUse" color-interpolation-filters="sRGB">
<feFlood flood-opacity="0" result="BackgroundImageFix"/>
<feBlend mode="normal" in="SourceGraphic" in2="BackgroundImageFix" result="shape"/>
<feTurbulence type="fractalNoise" baseFrequency="0.99900001287460327 0.99900001287460327" numOctaves="3" seed="1765" />
<feDisplacementMap in="shape" scale="1.6000000238418579" xChannelSelector="R" yChannelSelector="G" result="displacedImage" width="100%" height="100%" />
<feMerge result="effect1_texture_148_19237">
<feMergeNode in="displacedImage"/>
</feMerge>
</filter>
<filter id="filter12_g_148_19237" x="438.1" y="417.539" width="8.79995" height="8.80001" filterUnits="userSpaceOnUse" color-interpolation-filters="sRGB">
<feFlood flood-opacity="0" result="BackgroundImageFix"/>
<feBlend mode="normal" in="SourceGraphic" in2="BackgroundImageFix" result="shape"/>
<feTurbulence type="fractalNoise" baseFrequency="0.99900001287460327 0.99900001287460327" numOctaves="3" seed="1765" />
<feDisplacementMap in="shape" scale="1.6000000238418579" xChannelSelector="R" yChannelSelector="G" result="displacedImage" width="100%" height="100%" />
<feMerge result="effect1_texture_148_19237">
<feMergeNode in="displacedImage"/>
</feMerge>
</filter>
<filter id="filter13_g_148_19237" x="174.718" y="468.838" width="27.0558" height="14.9644" filterUnits="userSpaceOnUse" color-interpolation-filters="sRGB">
<feFlood flood-opacity="0" result="BackgroundImageFix"/>
<feBlend mode="normal" in="SourceGraphic" in2="BackgroundImageFix" result="shape"/>
<feTurbulence type="fractalNoise" baseFrequency="0.99900001287460327 0.99900001287460327" numOctaves="3" seed="5133" />
<feDisplacementMap in="shape" scale="1.6000000238418579" xChannelSelector="R" yChannelSelector="G" result="displacedImage" width="100%" height="100%" />
<feMerge result="effect1_texture_148_19237">
<feMergeNode in="displacedImage"/>
</feMerge>
</filter>
<filter id="filter14_g_148_19237" x="403.237" y="661.911" width="27.6543" height="21.3332" filterUnits="userSpaceOnUse" color-interpolation-filters="sRGB">
<feFlood flood-opacity="0" result="BackgroundImageFix"/>
<feBlend mode="normal" in="SourceGraphic" in2="BackgroundImageFix" result="shape"/>
<feTurbulence type="fractalNoise" baseFrequency="0.99900001287460327 0.99900001287460327" numOctaves="3" seed="5133" />
<feDisplacementMap in="shape" scale="1.6000000238418579" xChannelSelector="R" yChannelSelector="G" result="displacedImage" width="100%" height="100%" />
<feMerge result="effect1_texture_148_19237">
<feMergeNode in="displacedImage"/>
</feMerge>
</filter>
<filter id="filter15_g_148_19237" x="293.184" y="750.783" width="23.9844" height="25.704" filterUnits="userSpaceOnUse" color-interpolation-filters="sRGB">
<feFlood flood-opacity="0" result="BackgroundImageFix"/>
<feBlend mode="normal" in="SourceGraphic" in2="BackgroundImageFix" result="shape"/>
<feTurbulence type="fractalNoise" baseFrequency="0.99900001287460327 0.99900001287460327" numOctaves="3" seed="5133" />
<feDisplacementMap in="shape" scale="1.6000000238418579" xChannelSelector="R" yChannelSelector="G" result="displacedImage" width="100%" height="100%" />
<feMerge result="effect1_texture_148_19237">
<feMergeNode in="displacedImage"/>
</feMerge>
</filter>
<filter id="filter16_g_148_19237" x="276.22" y="340.869" width="17.7133" height="30.753" filterUnits="userSpaceOnUse" color-interpolation-filters="sRGB">
<feFlood flood-opacity="0" result="BackgroundImageFix"/>
<feBlend mode="normal" in="SourceGraphic" in2="BackgroundImageFix" result="shape"/>
<feTurbulence type="fractalNoise" baseFrequency="0.99900001287460327 0.99900001287460327" numOctaves="3" seed="5133" />
<feDisplacementMap in="shape" scale="1.6000000238418579" xChannelSelector="R" yChannelSelector="G" result="displacedImage" width="100%" height="100%" />
<feMerge result="effect1_texture_148_19237">
<feMergeNode in="displacedImage"/>
</feMerge>
</filter>
<filter id="filter17_g_148_19237" x="421.3" y="689.539" width="6.40005" height="6.4" filterUnits="userSpaceOnUse" color-interpolation-filters="sRGB">
<feFlood flood-opacity="0" result="BackgroundImageFix"/>
<feBlend mode="normal" in="SourceGraphic" in2="BackgroundImageFix" result="shape"/>
<feTurbulence type="fractalNoise" baseFrequency="0.99900001287460327 0.99900001287460327" numOctaves="3" seed="1765" />
<feDisplacementMap in="shape" scale="1.6000000238418579" xChannelSelector="R" yChannelSelector="G" result="displacedImage" width="100%" height="100%" />
<feMerge result="effect1_texture_148_19237">
<feMergeNode in="displacedImage"/>
</feMerge>
</filter>
<filter id="filter18_g_148_19237" x="166.9" y="594.339" width="6.40005" height="6.39999" filterUnits="userSpaceOnUse" color-interpolation-filters="sRGB">
<feFlood flood-opacity="0" result="BackgroundImageFix"/>
<feBlend mode="normal" in="SourceGraphic" in2="BackgroundImageFix" result="shape"/>
<feTurbulence type="fractalNoise" baseFrequency="0.99900001287460327 0.99900001287460327" numOctaves="3" seed="1765" />
<feDisplacementMap in="shape" scale="1.6000000238418579" xChannelSelector="R" yChannelSelector="G" result="displacedImage" width="100%" height="100%" />
<feMerge result="effect1_texture_148_19237">
<feMergeNode in="displacedImage"/>
</feMerge>
</filter>
<filter id="filter19_g_148_19237" x="202.1" y="323.939" width="6.40005" height="6.39999" filterUnits="userSpaceOnUse" color-interpolation-filters="sRGB">
<feFlood flood-opacity="0" result="BackgroundImageFix"/>
<feBlend mode="normal" in="SourceGraphic" in2="BackgroundImageFix" result="shape"/>
<feTurbulence type="fractalNoise" baseFrequency="0.99900001287460327 0.99900001287460327" numOctaves="3" seed="1765" />
<feDisplacementMap in="shape" scale="1.6000000238418579" xChannelSelector="R" yChannelSelector="G" result="displacedImage" width="100%" height="100%" />
<feMerge result="effect1_texture_148_19237">
<feMergeNode in="displacedImage"/>
</feMerge>
</filter>
<filter id="filter20_g_148_19237" x="435.7" y="475.939" width="6.40005" height="6.39999" filterUnits="userSpaceOnUse" color-interpolation-filters="sRGB">
<feFlood flood-opacity="0" result="BackgroundImageFix"/>
<feBlend mode="normal" in="SourceGraphic" in2="BackgroundImageFix" result="shape"/>
<feTurbulence type="fractalNoise" baseFrequency="0.99900001287460327 0.99900001287460327" numOctaves="3" seed="1765" />
<feDisplacementMap in="shape" scale="1.6000000238418579" xChannelSelector="R" yChannelSelector="G" result="displacedImage" width="100%" height="100%" />
<feMerge result="effect1_texture_148_19237">
<feMergeNode in="displacedImage"/>
</feMerge>
</filter>
<filter id="filter21_g_148_19237" x="162.9" y="420.739" width="10.4" height="10.4" filterUnits="userSpaceOnUse" color-interpolation-filters="sRGB">
<feFlood flood-opacity="0" result="BackgroundImageFix"/>
<feBlend mode="normal" in="SourceGraphic" in2="BackgroundImageFix" result="shape"/>
<feTurbulence type="fractalNoise" baseFrequency="0.99900001287460327 0.99900001287460327" numOctaves="3" seed="1765" />
<feDisplacementMap in="shape" scale="1.6000000238418579" xChannelSelector="R" yChannelSelector="G" result="displacedImage" width="100%" height="100%" />
<feMerge result="effect1_texture_148_19237">
<feMergeNode in="displacedImage"/>
</feMerge>
</filter>
<filter id="filter22_g_148_19237" x="151.7" y="776.739" width="10.4" height="10.4" filterUnits="userSpaceOnUse" color-interpolation-filters="sRGB">
<feFlood flood-opacity="0" result="BackgroundImageFix"/>
<feBlend mode="normal" in="SourceGraphic" in2="BackgroundImageFix" result="shape"/>
<feTurbulence type="fractalNoise" baseFrequency="0.99900001287460327 0.99900001287460327" numOctaves="3" seed="1765" />
<feDisplacementMap in="shape" scale="1.6000000238418579" xChannelSelector="R" yChannelSelector="G" result="displacedImage" width="100%" height="100%" />
<feMerge result="effect1_texture_148_19237">
<feMergeNode in="displacedImage"/>
</feMerge>
</filter>
<filter id="filter23_g_148_19237" x="209.667" y="717.106" width="20.8661" height="20.866" filterUnits="userSpaceOnUse" color-interpolation-filters="sRGB">
<feFlood flood-opacity="0" result="BackgroundImageFix"/>
<feBlend mode="normal" in="SourceGraphic" in2="BackgroundImageFix" result="shape"/>
<feTurbulence type="fractalNoise" baseFrequency="0.99900001287460327 0.99900001287460327" numOctaves="3" seed="1765" />
<feDisplacementMap in="shape" scale="1.6000000238418579" xChannelSelector="R" yChannelSelector="G" result="displacedImage" width="100%" height="100%" />
<feMerge result="effect1_texture_148_19237">
<feMergeNode in="displacedImage"/>
</feMerge>
</filter>
<filter id="filter24_g_148_19237" x="388.008" y="393.846" width="19.3826" height="19.3835" filterUnits="userSpaceOnUse" color-interpolation-filters="sRGB">
<feFlood flood-opacity="0" result="BackgroundImageFix"/>
<feBlend mode="normal" in="SourceGraphic" in2="BackgroundImageFix" result="shape"/>
<feTurbulence type="fractalNoise" baseFrequency="0.99900001287460327 0.99900001287460327" numOctaves="3" seed="1765" />
<feDisplacementMap in="shape" scale="1.6000000238418579" xChannelSelector="R" yChannelSelector="G" result="displacedImage" width="100%" height="100%" />
<feMerge result="effect1_texture_148_19237">
<feMergeNode in="displacedImage"/>
</feMerge>
</filter>
<filter id="filter25_g_148_19237" x="176.329" y="707.768" width="11.5429" height="11.5429" filterUnits="userSpaceOnUse" color-interpolation-filters="sRGB">
<feFlood flood-opacity="0" result="BackgroundImageFix"/>
<feBlend mode="normal" in="SourceGraphic" in2="BackgroundImageFix" result="shape"/>
<feTurbulence type="fractalNoise" baseFrequency="0.99900001287460327 0.99900001287460327" numOctaves="3" seed="1765" />
<feDisplacementMap in="shape" scale="1.6000000238418579" xChannelSelector="R" yChannelSelector="G" result="displacedImage" width="100%" height="100%" />
<feMerge result="effect1_texture_148_19237">
<feMergeNode in="displacedImage"/>
</feMerge>
</filter>
<filter id="filter26_g_148_19237" x="438.729" y="744.568" width="11.5429" height="11.5429" filterUnits="userSpaceOnUse" color-interpolation-filters="sRGB">
<feFlood flood-opacity="0" result="BackgroundImageFix"/>
<feBlend mode="normal" in="SourceGraphic" in2="BackgroundImageFix" result="shape"/>
<feTurbulence type="fractalNoise" baseFrequency="0.99900001287460327 0.99900001287460327" numOctaves="3" seed="1765" />
<feDisplacementMap in="shape" scale="1.6000000238418579" xChannelSelector="R" yChannelSelector="G" result="displacedImage" width="100%" height="100%" />
<feMerge result="effect1_texture_148_19237">
<feMergeNode in="displacedImage"/>
</feMerge>
</filter>
<filter id="filter27_g_148_19237" x="177.129" y="511.768" width="11.5429" height="11.5429" filterUnits="userSpaceOnUse" color-interpolation-filters="sRGB">
<feFlood flood-opacity="0" result="BackgroundImageFix"/>
<feBlend mode="normal" in="SourceGraphic" in2="BackgroundImageFix" result="shape"/>
<feTurbulence type="fractalNoise" baseFrequency="0.99900001287460327 0.99900001287460327" numOctaves="3" seed="1765" />
<feDisplacementMap in="shape" scale="1.6000000238418579" xChannelSelector="R" yChannelSelector="G" result="displacedImage" width="100%" height="100%" />
<feMerge result="effect1_texture_148_19237">
<feMergeNode in="displacedImage"/>
</feMerge>
</filter>
<filter id="filter28_g_148_19237" x="409.929" y="479.768" width="17.1428" height="17.1429" filterUnits="userSpaceOnUse" color-interpolation-filters="sRGB">
<feFlood flood-opacity="0" result="BackgroundImageFix"/>
<feBlend mode="normal" in="SourceGraphic" in2="BackgroundImageFix" result="shape"/>
<feTurbulence type="fractalNoise" baseFrequency="0.99900001287460327 0.99900001287460327" numOctaves="3" seed="1765" />
<feDisplacementMap in="shape" scale="1.6000000238418579" xChannelSelector="R" yChannelSelector="G" result="displacedImage" width="100%" height="100%" />
<feMerge result="effect1_texture_148_19237">
<feMergeNode in="displacedImage"/>
</feMerge>
</filter>
<filter id="filter29_g_148_19237" x="321.129" y="798.968" width="13.1428" height="13.1429" filterUnits="userSpaceOnUse" color-interpolation-filters="sRGB">
<feFlood flood-opacity="0" result="BackgroundImageFix"/>
<feBlend mode="normal" in="SourceGraphic" in2="BackgroundImageFix" result="shape"/>
<feTurbulence type="fractalNoise" baseFrequency="0.99900001287460327 0.99900001287460327" numOctaves="3" seed="1765" />
<feDisplacementMap in="shape" scale="1.6000000238418579" xChannelSelector="R" yChannelSelector="G" result="displacedImage" width="100%" height="100%" />
<feMerge result="effect1_texture_148_19237">
<feMergeNode in="displacedImage"/>
</feMerge>
</filter>
<filter id="filter30_g_148_19237" x="302.729" y="400.568" width="11.5429" height="11.5429" filterUnits="userSpaceOnUse" color-interpolation-filters="sRGB">
<feFlood flood-opacity="0" result="BackgroundImageFix"/>
<feBlend mode="normal" in="SourceGraphic" in2="BackgroundImageFix" result="shape"/>
<feTurbulence type="fractalNoise" baseFrequency="0.99900001287460327 0.99900001287460327" numOctaves="3" seed="1765" />
<feDisplacementMap in="shape" scale="1.6000000238418579" xChannelSelector="R" yChannelSelector="G" result="displacedImage" width="100%" height="100%" />
<feMerge result="effect1_texture_148_19237">
<feMergeNode in="displacedImage"/>
</feMerge>
</filter>
<filter id="filter31_g_148_19237" x="431.7" y="807.139" width="10.4" height="10.4" filterUnits="userSpaceOnUse" color-interpolation-filters="sRGB">
<feFlood flood-opacity="0" result="BackgroundImageFix"/>
<feBlend mode="normal" in="SourceGraphic" in2="BackgroundImageFix" result="shape"/>
<feTurbulence type="fractalNoise" baseFrequency="0.99900001287460327 0.99900001287460327" numOctaves="3" seed="1765" />
<feDisplacementMap in="shape" scale="1.6000000238418579" xChannelSelector="R" yChannelSelector="G" result="displacedImage" width="100%" height="100%" />
<feMerge result="effect1_texture_148_19237">
<feMergeNode in="displacedImage"/>
</feMerge>
</filter>
</defs>
</svg>
