<svg width="375" height="812" viewBox="0 0 375 812" fill="none" xmlns="http://www.w3.org/2000/svg">
<g filter="url(#filter0_g_148_20125)">
<path d="M99.4676 322.14C102.829 321.099 106.078 323.6 107.002 326.585C108.873 332.629 101.031 340.481 100.862 340.533C100.692 340.586 89.7855 338.538 87.9144 332.493C86.9904 329.508 88.2587 325.609 91.6203 324.569C93.5503 323.971 95.1147 324.558 96.1123 325.19C96.5781 324.105 97.5376 322.737 99.4676 322.14Z" fill="white"/>
</g>
<g filter="url(#filter1_g_148_20125)">
<path d="M291.556 602.559C294.886 603.697 296.04 607.631 295.03 610.588C292.983 616.576 282.022 618.305 281.854 618.248C281.686 618.191 274.076 610.114 276.122 604.126C277.132 601.169 280.453 598.765 283.783 599.903C285.695 600.556 286.614 601.951 287.048 603.05C288.064 602.446 289.644 601.906 291.556 602.559Z" fill="white"/>
</g>
<g filter="url(#filter2_g_148_20125)">
<path d="M337.885 419.609C340.229 420.41 341.041 423.18 340.33 425.261C338.889 429.476 331.173 430.694 331.055 430.653C330.937 430.613 325.579 424.928 327.02 420.712C327.731 418.631 330.069 416.938 332.413 417.739C333.759 418.199 334.406 419.181 334.711 419.955C335.426 419.53 336.539 419.149 337.885 419.609Z" fill="white"/>
</g>
<g filter="url(#filter3_g_148_20125)">
<path d="M113.423 705.499C116.47 703.739 120.193 705.458 121.755 708.164C124.919 713.644 119.011 723.038 118.858 723.126C118.704 723.215 107.615 723.634 104.451 718.154C102.888 715.448 103.261 711.365 106.309 709.606C108.059 708.596 109.714 708.821 110.827 709.217C111.041 708.055 111.673 706.509 113.423 705.499Z" fill="white"/>
</g>
<g filter="url(#filter4_g_148_20125)">
<path d="M288.896 319.028C292.721 319.883 294.476 324.099 293.717 327.495C292.178 334.373 280.252 337.619 280.059 337.575C279.866 337.532 270.46 329.515 271.998 322.637C272.758 319.241 276.142 316.175 279.967 317.031C282.163 317.522 283.35 318.955 283.964 320.118C285.015 319.327 286.7 318.537 288.896 319.028Z" fill="white"/>
</g>
<g filter="url(#filter5_g_148_20125)">
<path d="M113.545 303.981C115.828 303.275 118.034 304.973 118.662 307C119.932 311.104 114.607 316.436 114.492 316.472C114.377 316.507 106.971 315.116 105.7 311.012C105.073 308.985 105.934 306.337 108.216 305.631C109.527 305.225 110.589 305.623 111.267 306.053C111.583 305.316 112.235 304.387 113.545 303.981Z" fill="white"/>
</g>
<g filter="url(#filter6_g_148_20125)">
<circle cx="84" cy="577.6" r="3.2" stroke="white" stroke-width="2.4"/>
</g>
<g filter="url(#filter7_g_148_20125)">
<circle cx="230.4" cy="327.2" r="3.2" stroke="white" stroke-width="2.4"/>
</g>
<g filter="url(#filter8_g_148_20125)">
<circle cx="336.4" cy="266" r="4.4" stroke="white" stroke-width="2.4"/>
</g>
<g filter="url(#filter9_g_148_20125)">
<circle cx="260.8" cy="624.8" r="2.4" stroke="white" stroke-width="2.4"/>
</g>
<g filter="url(#filter10_g_148_20125)">
<circle cx="284.8" cy="213.6" r="2.4" stroke="white" stroke-width="2.4"/>
</g>
<g filter="url(#filter11_g_148_20125)">
<circle cx="324" cy="314.4" r="2.4" stroke="white" stroke-width="2.4"/>
</g>
<g filter="url(#filter12_g_148_20125)">
<path d="M250.994 308.142C250.958 308.067 250.33 306.782 249.517 304.537C248.562 301.899 250.531 299.29 251.378 298.746C252.785 297.843 254.255 297.535 255.762 297.336C257.329 297.128 258.408 297.42 259.071 297.701C259.686 297.961 259.958 298.92 260.251 299.809C260.386 300.217 260.218 300.606 260.024 300.891C259.647 301.444 258.683 301.83 257.633 302.202C256.195 302.713 255.17 301.056 254.346 299.907C253.806 299.155 253.68 298.302 253.719 297.602C253.812 295.964 253.781 294.316 255.072 292.795C256.008 291.692 256.866 290.748 258.498 289.785C260.365 288.849 262.587 288.35 263.305 288.256C263.661 288.2 264.003 288.125 265.273 288.161" stroke="#FFF0B0" stroke-width="2.4" stroke-linecap="round"/>
</g>
<g filter="url(#filter13_g_148_20125)">
<path d="M328.575 592.905C328.586 592.808 328.774 591.154 328.791 588.376C328.812 585.112 325.636 583.016 324.496 582.75C322.601 582.308 320.869 582.542 319.139 582.91C317.34 583.292 316.271 584.033 315.652 584.599C315.08 585.123 315.154 586.282 315.179 587.37C315.19 587.87 315.526 588.231 315.849 588.468C316.478 588.928 317.686 588.975 318.982 588.975C320.758 588.976 321.236 586.76 321.693 585.179C321.992 584.144 321.799 583.159 321.483 582.407C320.744 580.647 320.136 578.827 318.129 577.662C316.673 576.817 315.364 576.116 313.199 575.695C310.787 575.396 308.156 575.714 307.333 575.89C306.919 575.967 306.515 576.018 305.137 576.551" stroke="#FFF0B0" stroke-width="2.4" stroke-linecap="round"/>
</g>
<g filter="url(#filter14_g_148_20125)">
<path d="M176.684 666.004C176.778 666.03 178.386 666.46 181.131 666.889C184.356 667.392 186.899 664.562 187.33 663.473C188.048 661.664 188.073 659.917 187.965 658.152C187.853 656.315 187.279 655.148 186.81 654.453C186.377 653.809 185.22 653.712 184.14 653.575C183.644 653.512 183.237 653.79 182.955 654.075C182.407 654.629 182.181 655.817 181.99 657.098C181.727 658.855 183.847 659.656 185.343 660.342C186.322 660.791 187.325 660.745 188.115 660.544C189.966 660.073 191.855 659.742 193.305 657.928C194.356 656.614 195.243 655.423 195.979 653.344C196.632 651.003 196.707 648.354 196.655 647.514C196.64 647.094 196.649 646.686 196.325 645.245" stroke="white" stroke-width="2.4" stroke-linecap="round"/>
</g>
<g filter="url(#filter15_g_148_20125)">
<path d="M175.373 278.083C175.437 278.009 176.529 276.753 178.117 274.473C179.983 271.795 178.552 268.269 177.763 267.404C176.452 265.966 174.892 265.178 173.258 264.501C171.558 263.797 170.258 263.802 169.427 263.918C168.659 264.026 168.064 265.023 167.468 265.934C167.194 266.352 167.266 266.84 167.399 267.218C167.656 267.954 168.625 268.677 169.693 269.411C171.157 270.417 172.806 268.862 174.078 267.818C174.911 267.135 175.309 266.213 175.475 265.415C175.862 263.545 176.392 261.702 175.398 259.604C174.677 258.083 173.995 256.764 172.449 255.191C170.631 253.578 168.282 252.35 167.504 252.029C167.12 251.858 166.758 251.671 165.321 251.33" stroke="white" stroke-width="2.4" stroke-linecap="round"/>
</g>
<g filter="url(#filter16_g_148_20125)">
<circle cx="324.4" cy="604.4" r="1.2" stroke="#FFF0B0" stroke-width="2.4"/>
</g>
<g filter="url(#filter17_g_148_20125)">
<circle cx="51.6" cy="490" r="1.2" stroke="#FFF0B0" stroke-width="2.4"/>
</g>
<g filter="url(#filter18_g_148_20125)">
<circle cx="86.8" cy="219.6" r="1.2" stroke="#FFF0B0" stroke-width="2.4"/>
</g>
<g filter="url(#filter19_g_148_20125)">
<circle cx="320.4" cy="371.6" r="1.2" stroke="#FFF0B0" stroke-width="2.4"/>
</g>
<g filter="url(#filter20_g_148_20125)">
<circle cx="49.6" cy="318.4" r="3.2" stroke="#FFF0B0" stroke-width="2.4"/>
</g>
<g filter="url(#filter21_g_148_20125)">
<circle cx="38.4" cy="674.4" r="3.2" stroke="#FFF0B0" stroke-width="2.4"/>
</g>
<g filter="url(#filter22_g_148_20125)">
<path d="M104.639 610.473C106.51 611.07 107.24 614.018 106.271 617.058C106.199 617.281 106.119 617.499 106.034 617.71C106.256 617.763 106.479 617.824 106.703 617.896C109.743 618.866 111.723 621.168 111.127 623.039C110.53 624.91 107.582 625.641 104.542 624.671C104.318 624.599 104.101 624.519 103.889 624.434C103.836 624.656 103.775 624.88 103.704 625.104C102.734 628.143 100.431 630.124 98.5605 629.527C96.6899 628.93 95.9592 625.982 96.9289 622.942C97.0003 622.718 97.0799 622.5 97.165 622.289C96.9436 622.236 96.7204 622.176 96.4971 622.104C93.4571 621.134 91.476 618.831 92.0728 616.961C92.6696 615.09 95.6184 614.36 98.6584 615.329C98.8817 615.401 99.0988 615.48 99.31 615.565C99.3632 615.343 99.4244 615.12 99.4957 614.896C100.466 611.857 102.768 609.877 104.639 610.473Z" fill="#FFF0B0"/>
</g>
<g filter="url(#filter23_g_148_20125)">
<path d="M166.004 310.405C167.731 310.956 168.405 313.678 167.51 316.484C167.444 316.69 167.37 316.889 167.292 317.084C167.497 317.133 167.703 317.191 167.909 317.257C170.715 318.152 172.543 320.278 171.993 322.005C171.441 323.731 168.72 324.405 165.915 323.51C165.708 323.444 165.507 323.37 165.312 323.292C165.263 323.496 165.207 323.703 165.141 323.91C164.246 326.715 162.12 328.543 160.394 327.992C158.667 327.441 157.993 324.721 158.888 321.915C158.954 321.709 159.027 321.507 159.105 321.312C158.901 321.263 158.695 321.206 158.488 321.141C155.683 320.245 153.854 318.12 154.405 316.394C154.956 314.667 157.677 313.993 160.483 314.888C160.689 314.953 160.89 315.026 161.085 315.104C161.134 314.9 161.192 314.695 161.257 314.489C162.152 311.683 164.277 309.855 166.004 310.405Z" fill="#FFF0B0"/>
</g>
<g filter="url(#filter24_g_148_20125)">
<path d="M62.4053 602.706C62.7763 601.742 62.9618 601.259 63.2296 601.119C63.4616 600.998 63.7384 600.998 63.9705 601.119C64.2382 601.259 64.4237 601.742 64.7947 602.706L64.8877 602.948C65.0682 603.417 65.1584 603.652 65.2987 603.849C65.4231 604.024 65.5759 604.177 65.7509 604.301C65.9482 604.442 66.1829 604.532 66.6521 604.712L66.8938 604.805C67.8584 605.176 68.3406 605.362 68.4805 605.63C68.6018 605.862 68.6018 606.138 68.4805 606.37C68.3406 606.638 67.8584 606.824 66.8938 607.195L66.6521 607.288C66.1829 607.468 65.9482 607.558 65.7509 607.699C65.5759 607.823 65.4231 607.976 65.2987 608.151C65.1584 608.348 65.0682 608.583 64.8877 609.052L64.7947 609.294C64.4237 610.258 64.2382 610.741 63.9705 610.88C63.7384 611.002 63.4616 611.002 63.2296 610.88C62.9618 610.741 62.7763 610.258 62.4053 609.294L62.3124 609.052C62.1319 608.583 62.0416 608.348 61.9013 608.151C61.7769 607.976 61.6241 607.823 61.4492 607.699C61.2518 607.558 61.0172 607.468 60.5479 607.288L60.3062 607.195C59.3417 606.824 58.8594 606.638 58.7195 606.37C58.5982 606.138 58.5982 605.862 58.7195 605.63C58.8594 605.362 59.3417 605.176 60.3062 604.805L60.5479 604.712C61.0172 604.532 61.2518 604.442 61.4492 604.301C61.6241 604.177 61.7769 604.024 61.9013 603.849C62.0416 603.652 62.1319 603.417 62.3124 602.948L62.4053 602.706Z" fill="white"/>
</g>
<g filter="url(#filter25_g_148_20125)">
<path d="M324.805 639.506C325.176 638.542 325.362 638.059 325.63 637.92C325.862 637.798 326.138 637.798 326.37 637.92C326.638 638.059 326.824 638.542 327.195 639.506L327.288 639.748C327.468 640.217 327.558 640.452 327.699 640.649C327.823 640.824 327.976 640.977 328.151 641.101C328.348 641.242 328.583 641.332 329.052 641.512L329.294 641.605C330.258 641.976 330.741 642.162 330.88 642.43C331.002 642.662 331.002 642.938 330.88 643.17C330.741 643.438 330.258 643.624 329.294 643.995L329.052 644.088C328.583 644.268 328.348 644.358 328.151 644.499C327.976 644.623 327.823 644.776 327.699 644.951C327.558 645.148 327.468 645.383 327.288 645.852L327.195 646.094C326.824 647.058 326.638 647.541 326.37 647.681C326.138 647.802 325.862 647.802 325.63 647.681C325.362 647.541 325.176 647.058 324.805 646.094L324.712 645.852C324.532 645.383 324.442 645.148 324.301 644.951C324.177 644.776 324.024 644.623 323.849 644.499C323.652 644.358 323.417 644.268 322.948 644.088L322.706 643.995C321.742 643.624 321.259 643.438 321.119 643.17C320.998 642.938 320.998 642.662 321.119 642.43C321.259 642.162 321.742 641.976 322.706 641.605L322.948 641.512C323.417 641.332 323.652 641.242 323.849 641.101C324.024 640.977 324.177 640.824 324.301 640.649C324.442 640.452 324.532 640.217 324.712 639.748L324.805 639.506Z" fill="white"/>
</g>
<g filter="url(#filter26_g_148_20125)">
<path d="M60.8053 406.706C61.1763 405.742 61.3618 405.259 61.6295 405.119C61.8616 404.998 62.1383 404.998 62.3704 405.119C62.6382 405.259 62.8237 405.742 63.1947 406.706L63.2876 406.948C63.4681 407.417 63.5584 407.652 63.6987 407.849C63.8231 408.024 63.9759 408.177 64.1508 408.301C64.3482 408.442 64.5828 408.532 65.0521 408.712L65.2938 408.805C66.2583 409.176 66.7406 409.362 66.8805 409.63C67.0017 409.862 67.0017 410.138 66.8805 410.37C66.7406 410.638 66.2583 410.824 65.2938 411.195L65.0521 411.288C64.5828 411.468 64.3482 411.558 64.1508 411.699C63.9759 411.823 63.8231 411.976 63.6987 412.151C63.5584 412.348 63.4681 412.583 63.2876 413.052L63.1947 413.294C62.8237 414.258 62.6382 414.741 62.3704 414.881C62.1383 415.002 61.8616 415.002 61.6295 414.881C61.3618 414.741 61.1763 414.258 60.8053 413.294L60.7123 413.052C60.5318 412.583 60.4416 412.348 60.3013 412.151C60.1769 411.976 60.0241 411.823 59.8491 411.699C59.6518 411.558 59.4171 411.468 58.9479 411.288L58.7061 411.195C57.7416 410.824 57.2594 410.638 57.1195 410.37C56.9982 410.138 56.9982 409.862 57.1195 409.63C57.2594 409.362 57.7416 409.176 58.7061 408.805L58.9479 408.712C59.4171 408.532 59.6518 408.442 59.8491 408.301C60.0241 408.177 60.1769 408.024 60.3013 407.849C60.4416 407.652 60.5318 407.417 60.7123 406.948L60.8053 406.706Z" fill="white"/>
</g>
<g filter="url(#filter27_g_148_20125)">
<path d="M318.005 493.106C318.376 492.142 318.562 491.659 318.829 491.519C319.062 491.398 319.338 491.398 319.57 491.519C319.838 491.659 320.024 492.142 320.395 493.106L320.407 493.139C320.576 493.579 320.661 493.799 320.793 493.984C320.909 494.148 321.052 494.291 321.216 494.407C321.401 494.539 321.621 494.624 322.061 494.793L322.094 494.805C323.058 495.176 323.541 495.362 323.68 495.63C323.802 495.862 323.802 496.138 323.68 496.37C323.541 496.638 323.058 496.824 322.094 497.195L322.061 497.207C321.621 497.376 321.401 497.461 321.216 497.593C321.052 497.709 320.909 497.852 320.793 498.016C320.661 498.201 320.576 498.421 320.407 498.861L320.395 498.894C320.024 499.858 319.838 500.341 319.57 500.481C319.338 500.602 319.062 500.602 318.83 500.481C318.562 500.341 318.376 499.858 318.005 498.894L317.993 498.861C317.824 498.421 317.739 498.201 317.607 498.016C317.491 497.852 317.348 497.709 317.184 497.593C316.999 497.461 316.779 497.376 316.339 497.207L316.306 497.195C315.342 496.824 314.859 496.638 314.719 496.37C314.598 496.138 314.598 495.862 314.719 495.63C314.859 495.362 315.342 495.176 316.306 494.805L316.339 494.793C316.779 494.624 316.999 494.539 317.184 494.407C317.348 494.291 317.491 494.148 317.607 493.984C317.739 493.799 317.824 493.579 317.993 493.139L318.005 493.106Z" fill="white"/>
</g>
<g filter="url(#filter28_g_148_20125)">
<path d="M208.005 693.906C208.376 692.942 208.562 692.459 208.83 692.32C209.062 692.198 209.338 692.198 209.57 692.32C209.838 692.459 210.024 692.942 210.395 693.906L210.649 694.566C210.852 695.094 210.953 695.358 211.111 695.58C211.251 695.777 211.423 695.949 211.62 696.089C211.842 696.247 212.106 696.348 212.634 696.551L213.294 696.805C214.258 697.176 214.741 697.362 214.881 697.63C215.002 697.862 215.002 698.138 214.881 698.37C214.741 698.638 214.258 698.824 213.294 699.195L212.634 699.449C212.106 699.652 211.842 699.753 211.62 699.911C211.423 700.051 211.251 700.223 211.111 700.42C210.953 700.642 210.852 700.906 210.649 701.434L210.395 702.094C210.024 703.058 209.838 703.541 209.57 703.681C209.338 703.802 209.062 703.802 208.83 703.681C208.562 703.541 208.376 703.058 208.005 702.094L207.751 701.434C207.548 700.906 207.447 700.642 207.289 700.42C207.149 700.223 206.977 700.051 206.78 699.911C206.558 699.753 206.294 699.652 205.766 699.449L205.106 699.195C204.142 698.824 203.659 698.638 203.519 698.37C203.398 698.138 203.398 697.862 203.519 697.63C203.659 697.362 204.142 697.176 205.106 696.805L205.766 696.551C206.294 696.348 206.558 696.247 206.78 696.089C206.977 695.949 207.149 695.777 207.289 695.58C207.447 695.358 207.548 695.094 207.751 694.566L208.005 693.906Z" fill="white"/>
</g>
<g filter="url(#filter29_g_148_20125)">
<path d="M200.005 309.906C200.376 308.942 200.562 308.459 200.83 308.32C201.062 308.198 201.338 308.198 201.57 308.32C201.838 308.459 202.024 308.942 202.395 309.906L202.488 310.148C202.668 310.617 202.758 310.852 202.899 311.049C203.023 311.224 203.176 311.377 203.351 311.501C203.548 311.642 203.783 311.732 204.252 311.912L204.494 312.005C205.458 312.376 205.941 312.562 206.081 312.83C206.202 313.062 206.202 313.338 206.081 313.57C205.941 313.838 205.458 314.024 204.494 314.395L204.252 314.488C203.783 314.668 203.548 314.758 203.351 314.899C203.176 315.023 203.023 315.176 202.899 315.351C202.758 315.548 202.668 315.783 202.488 316.252L202.395 316.494C202.024 317.458 201.838 317.941 201.57 318.081C201.338 318.202 201.062 318.202 200.83 318.081C200.562 317.941 200.376 317.458 200.005 316.494L199.912 316.252C199.732 315.783 199.642 315.548 199.501 315.351C199.377 315.176 199.224 315.023 199.049 314.899C198.852 314.758 198.617 314.668 198.148 314.488L197.906 314.395C196.942 314.024 196.459 313.838 196.319 313.57C196.198 313.338 196.198 313.062 196.319 312.83C196.459 312.562 196.942 312.376 197.906 312.005L198.148 311.912C198.617 311.732 198.852 311.642 199.049 311.501C199.224 311.377 199.377 311.224 199.501 311.049C199.642 310.852 199.732 310.617 199.912 310.148L200.005 309.906Z" fill="white"/>
</g>
<g filter="url(#filter30_g_148_20125)">
<circle cx="318.4" cy="704.8" r="3.2" stroke="#FFF0B0" stroke-width="2.4"/>
</g>
<defs>
<filter id="filter0_g_148_20125" x="86.4214" y="320.7" width="22.0693" height="21.0348" filterUnits="userSpaceOnUse" color-interpolation-filters="sRGB">
<feFlood flood-opacity="0" result="BackgroundImageFix"/>
<feBlend mode="normal" in="SourceGraphic" in2="BackgroundImageFix" result="shape"/>
<feTurbulence type="fractalNoise" baseFrequency="0.99900001287460327 0.99900001287460327" numOctaves="3" seed="1765" />
<feDisplacementMap in="shape" scale="2.4000000953674316" xChannelSelector="R" yChannelSelector="G" result="displacedImage" width="100%" height="100%" />
<feMerge result="effect1_texture_148_20125">
<feMergeNode in="displacedImage"/>
</feMerge>
</filter>
<filter id="filter1_g_148_20125" x="274.573" y="598.415" width="22.0106" height="21.0347" filterUnits="userSpaceOnUse" color-interpolation-filters="sRGB">
<feFlood flood-opacity="0" result="BackgroundImageFix"/>
<feBlend mode="normal" in="SourceGraphic" in2="BackgroundImageFix" result="shape"/>
<feTurbulence type="fractalNoise" baseFrequency="0.99900001287460327 0.99900001287460327" numOctaves="3" seed="1765" />
<feDisplacementMap in="shape" scale="2.4000000953674316" xChannelSelector="R" yChannelSelector="G" result="displacedImage" width="100%" height="100%" />
<feMerge result="effect1_texture_148_20125">
<feMergeNode in="displacedImage"/>
</feMerge>
</filter>
<filter id="filter2_g_148_20125" x="325.574" y="416.337" width="16.2047" height="15.5177" filterUnits="userSpaceOnUse" color-interpolation-filters="sRGB">
<feFlood flood-opacity="0" result="BackgroundImageFix"/>
<feBlend mode="normal" in="SourceGraphic" in2="BackgroundImageFix" result="shape"/>
<feTurbulence type="fractalNoise" baseFrequency="0.99900001287460327 0.99900001287460327" numOctaves="3" seed="1765" />
<feDisplacementMap in="shape" scale="2.4000000953674316" xChannelSelector="R" yChannelSelector="G" result="displacedImage" width="100%" height="100%" />
<feMerge result="effect1_texture_148_20125">
<feMergeNode in="displacedImage"/>
</feMerge>
</filter>
<filter id="filter3_g_148_20125" x="102.349" y="703.584" width="21.5371" height="20.7861" filterUnits="userSpaceOnUse" color-interpolation-filters="sRGB">
<feFlood flood-opacity="0" result="BackgroundImageFix"/>
<feBlend mode="normal" in="SourceGraphic" in2="BackgroundImageFix" result="shape"/>
<feTurbulence type="fractalNoise" baseFrequency="0.99900001287460327 0.99900001287460327" numOctaves="3" seed="1765" />
<feDisplacementMap in="shape" scale="2.4000000953674316" xChannelSelector="R" yChannelSelector="G" result="displacedImage" width="100%" height="100%" />
<feMerge result="effect1_texture_148_20125">
<feMergeNode in="displacedImage"/>
</feMerge>
</filter>
<filter id="filter4_g_148_20125" x="270.628" y="315.685" width="24.4619" height="23.0905" filterUnits="userSpaceOnUse" color-interpolation-filters="sRGB">
<feFlood flood-opacity="0" result="BackgroundImageFix"/>
<feBlend mode="normal" in="SourceGraphic" in2="BackgroundImageFix" result="shape"/>
<feTurbulence type="fractalNoise" baseFrequency="0.99900001287460327 0.99900001287460327" numOctaves="3" seed="1765" />
<feDisplacementMap in="shape" scale="2.4000000953674316" xChannelSelector="R" yChannelSelector="G" result="displacedImage" width="100%" height="100%" />
<feMerge result="effect1_texture_148_20125">
<feMergeNode in="displacedImage"/>
</feMerge>
</filter>
<filter id="filter5_g_148_20125" x="104.301" y="302.618" width="15.7563" height="15.0538" filterUnits="userSpaceOnUse" color-interpolation-filters="sRGB">
<feFlood flood-opacity="0" result="BackgroundImageFix"/>
<feBlend mode="normal" in="SourceGraphic" in2="BackgroundImageFix" result="shape"/>
<feTurbulence type="fractalNoise" baseFrequency="0.99900001287460327 0.99900001287460327" numOctaves="3" seed="1765" />
<feDisplacementMap in="shape" scale="2.4000000953674316" xChannelSelector="R" yChannelSelector="G" result="displacedImage" width="100%" height="100%" />
<feMerge result="effect1_texture_148_20125">
<feMergeNode in="displacedImage"/>
</feMerge>
</filter>
<filter id="filter6_g_148_20125" x="78.8" y="572.4" width="10.4" height="10.4" filterUnits="userSpaceOnUse" color-interpolation-filters="sRGB">
<feFlood flood-opacity="0" result="BackgroundImageFix"/>
<feBlend mode="normal" in="SourceGraphic" in2="BackgroundImageFix" result="shape"/>
<feTurbulence type="fractalNoise" baseFrequency="0.99900001287460327 0.99900001287460327" numOctaves="3" seed="1765" />
<feDisplacementMap in="shape" scale="1.6000000238418579" xChannelSelector="R" yChannelSelector="G" result="displacedImage" width="100%" height="100%" />
<feMerge result="effect1_texture_148_20125">
<feMergeNode in="displacedImage"/>
</feMerge>
</filter>
<filter id="filter7_g_148_20125" x="225.2" y="322" width="10.4" height="10.4" filterUnits="userSpaceOnUse" color-interpolation-filters="sRGB">
<feFlood flood-opacity="0" result="BackgroundImageFix"/>
<feBlend mode="normal" in="SourceGraphic" in2="BackgroundImageFix" result="shape"/>
<feTurbulence type="fractalNoise" baseFrequency="0.99900001287460327 0.99900001287460327" numOctaves="3" seed="1765" />
<feDisplacementMap in="shape" scale="1.6000000238418579" xChannelSelector="R" yChannelSelector="G" result="displacedImage" width="100%" height="100%" />
<feMerge result="effect1_texture_148_20125">
<feMergeNode in="displacedImage"/>
</feMerge>
</filter>
<filter id="filter8_g_148_20125" x="330" y="259.6" width="12.8" height="12.8" filterUnits="userSpaceOnUse" color-interpolation-filters="sRGB">
<feFlood flood-opacity="0" result="BackgroundImageFix"/>
<feBlend mode="normal" in="SourceGraphic" in2="BackgroundImageFix" result="shape"/>
<feTurbulence type="fractalNoise" baseFrequency="0.99900001287460327 0.99900001287460327" numOctaves="3" seed="1765" />
<feDisplacementMap in="shape" scale="1.6000000238418579" xChannelSelector="R" yChannelSelector="G" result="displacedImage" width="100%" height="100%" />
<feMerge result="effect1_texture_148_20125">
<feMergeNode in="displacedImage"/>
</feMerge>
</filter>
<filter id="filter9_g_148_20125" x="256.4" y="620.4" width="8.79995" height="8.8" filterUnits="userSpaceOnUse" color-interpolation-filters="sRGB">
<feFlood flood-opacity="0" result="BackgroundImageFix"/>
<feBlend mode="normal" in="SourceGraphic" in2="BackgroundImageFix" result="shape"/>
<feTurbulence type="fractalNoise" baseFrequency="0.99900001287460327 0.99900001287460327" numOctaves="3" seed="1765" />
<feDisplacementMap in="shape" scale="1.6000000238418579" xChannelSelector="R" yChannelSelector="G" result="displacedImage" width="100%" height="100%" />
<feMerge result="effect1_texture_148_20125">
<feMergeNode in="displacedImage"/>
</feMerge>
</filter>
<filter id="filter10_g_148_20125" x="280.4" y="209.2" width="8.79995" height="8.80001" filterUnits="userSpaceOnUse" color-interpolation-filters="sRGB">
<feFlood flood-opacity="0" result="BackgroundImageFix"/>
<feBlend mode="normal" in="SourceGraphic" in2="BackgroundImageFix" result="shape"/>
<feTurbulence type="fractalNoise" baseFrequency="0.99900001287460327 0.99900001287460327" numOctaves="3" seed="1765" />
<feDisplacementMap in="shape" scale="1.6000000238418579" xChannelSelector="R" yChannelSelector="G" result="displacedImage" width="100%" height="100%" />
<feMerge result="effect1_texture_148_20125">
<feMergeNode in="displacedImage"/>
</feMerge>
</filter>
<filter id="filter11_g_148_20125" x="319.6" y="310" width="8.79995" height="8.80001" filterUnits="userSpaceOnUse" color-interpolation-filters="sRGB">
<feFlood flood-opacity="0" result="BackgroundImageFix"/>
<feBlend mode="normal" in="SourceGraphic" in2="BackgroundImageFix" result="shape"/>
<feTurbulence type="fractalNoise" baseFrequency="0.99900001287460327 0.99900001287460327" numOctaves="3" seed="1765" />
<feDisplacementMap in="shape" scale="1.6000000238418579" xChannelSelector="R" yChannelSelector="G" result="displacedImage" width="100%" height="100%" />
<feMerge result="effect1_texture_148_20125">
<feMergeNode in="displacedImage"/>
</feMerge>
</filter>
<filter id="filter12_g_148_20125" x="247.261" y="286.152" width="20.0115" height="23.9911" filterUnits="userSpaceOnUse" color-interpolation-filters="sRGB">
<feFlood flood-opacity="0" result="BackgroundImageFix"/>
<feBlend mode="normal" in="SourceGraphic" in2="BackgroundImageFix" result="shape"/>
<feTurbulence type="fractalNoise" baseFrequency="0.99900001287460327 0.99900001287460327" numOctaves="3" seed="5133" />
<feDisplacementMap in="shape" scale="1.6000000238418579" xChannelSelector="R" yChannelSelector="G" result="displacedImage" width="100%" height="100%" />
<feMerge result="effect1_texture_148_20125">
<feMergeNode in="displacedImage"/>
</feMerge>
</filter>
<filter id="filter13_g_148_20125" x="303.137" y="573.572" width="27.6543" height="21.3332" filterUnits="userSpaceOnUse" color-interpolation-filters="sRGB">
<feFlood flood-opacity="0" result="BackgroundImageFix"/>
<feBlend mode="normal" in="SourceGraphic" in2="BackgroundImageFix" result="shape"/>
<feTurbulence type="fractalNoise" baseFrequency="0.99900001287460327 0.99900001287460327" numOctaves="3" seed="5133" />
<feDisplacementMap in="shape" scale="1.6000000238418579" xChannelSelector="R" yChannelSelector="G" result="displacedImage" width="100%" height="100%" />
<feMerge result="effect1_texture_148_20125">
<feMergeNode in="displacedImage"/>
</feMerge>
</filter>
<filter id="filter14_g_148_20125" x="174.684" y="643.244" width="23.9844" height="25.704" filterUnits="userSpaceOnUse" color-interpolation-filters="sRGB">
<feFlood flood-opacity="0" result="BackgroundImageFix"/>
<feBlend mode="normal" in="SourceGraphic" in2="BackgroundImageFix" result="shape"/>
<feTurbulence type="fractalNoise" baseFrequency="0.99900001287460327 0.99900001287460327" numOctaves="3" seed="5133" />
<feDisplacementMap in="shape" scale="1.6000000238418579" xChannelSelector="R" yChannelSelector="G" result="displacedImage" width="100%" height="100%" />
<feMerge result="effect1_texture_148_20125">
<feMergeNode in="displacedImage"/>
</feMerge>
</filter>
<filter id="filter15_g_148_20125" x="163.32" y="249.33" width="17.7134" height="30.753" filterUnits="userSpaceOnUse" color-interpolation-filters="sRGB">
<feFlood flood-opacity="0" result="BackgroundImageFix"/>
<feBlend mode="normal" in="SourceGraphic" in2="BackgroundImageFix" result="shape"/>
<feTurbulence type="fractalNoise" baseFrequency="0.99900001287460327 0.99900001287460327" numOctaves="3" seed="5133" />
<feDisplacementMap in="shape" scale="1.6000000238418579" xChannelSelector="R" yChannelSelector="G" result="displacedImage" width="100%" height="100%" />
<feMerge result="effect1_texture_148_20125">
<feMergeNode in="displacedImage"/>
</feMerge>
</filter>
<filter id="filter16_g_148_20125" x="321.2" y="601.2" width="6.40005" height="6.4" filterUnits="userSpaceOnUse" color-interpolation-filters="sRGB">
<feFlood flood-opacity="0" result="BackgroundImageFix"/>
<feBlend mode="normal" in="SourceGraphic" in2="BackgroundImageFix" result="shape"/>
<feTurbulence type="fractalNoise" baseFrequency="0.99900001287460327 0.99900001287460327" numOctaves="3" seed="1765" />
<feDisplacementMap in="shape" scale="1.6000000238418579" xChannelSelector="R" yChannelSelector="G" result="displacedImage" width="100%" height="100%" />
<feMerge result="effect1_texture_148_20125">
<feMergeNode in="displacedImage"/>
</feMerge>
</filter>
<filter id="filter17_g_148_20125" x="48.4" y="486.8" width="6.39999" height="6.39999" filterUnits="userSpaceOnUse" color-interpolation-filters="sRGB">
<feFlood flood-opacity="0" result="BackgroundImageFix"/>
<feBlend mode="normal" in="SourceGraphic" in2="BackgroundImageFix" result="shape"/>
<feTurbulence type="fractalNoise" baseFrequency="0.99900001287460327 0.99900001287460327" numOctaves="3" seed="1765" />
<feDisplacementMap in="shape" scale="1.6000000238418579" xChannelSelector="R" yChannelSelector="G" result="displacedImage" width="100%" height="100%" />
<feMerge result="effect1_texture_148_20125">
<feMergeNode in="displacedImage"/>
</feMerge>
</filter>
<filter id="filter18_g_148_20125" x="83.6" y="216.4" width="6.39999" height="6.39999" filterUnits="userSpaceOnUse" color-interpolation-filters="sRGB">
<feFlood flood-opacity="0" result="BackgroundImageFix"/>
<feBlend mode="normal" in="SourceGraphic" in2="BackgroundImageFix" result="shape"/>
<feTurbulence type="fractalNoise" baseFrequency="0.99900001287460327 0.99900001287460327" numOctaves="3" seed="1765" />
<feDisplacementMap in="shape" scale="1.6000000238418579" xChannelSelector="R" yChannelSelector="G" result="displacedImage" width="100%" height="100%" />
<feMerge result="effect1_texture_148_20125">
<feMergeNode in="displacedImage"/>
</feMerge>
</filter>
<filter id="filter19_g_148_20125" x="317.2" y="368.4" width="6.40005" height="6.39999" filterUnits="userSpaceOnUse" color-interpolation-filters="sRGB">
<feFlood flood-opacity="0" result="BackgroundImageFix"/>
<feBlend mode="normal" in="SourceGraphic" in2="BackgroundImageFix" result="shape"/>
<feTurbulence type="fractalNoise" baseFrequency="0.99900001287460327 0.99900001287460327" numOctaves="3" seed="1765" />
<feDisplacementMap in="shape" scale="1.6000000238418579" xChannelSelector="R" yChannelSelector="G" result="displacedImage" width="100%" height="100%" />
<feMerge result="effect1_texture_148_20125">
<feMergeNode in="displacedImage"/>
</feMerge>
</filter>
<filter id="filter20_g_148_20125" x="44.4" y="313.2" width="10.4" height="10.4" filterUnits="userSpaceOnUse" color-interpolation-filters="sRGB">
<feFlood flood-opacity="0" result="BackgroundImageFix"/>
<feBlend mode="normal" in="SourceGraphic" in2="BackgroundImageFix" result="shape"/>
<feTurbulence type="fractalNoise" baseFrequency="0.99900001287460327 0.99900001287460327" numOctaves="3" seed="1765" />
<feDisplacementMap in="shape" scale="1.6000000238418579" xChannelSelector="R" yChannelSelector="G" result="displacedImage" width="100%" height="100%" />
<feMerge result="effect1_texture_148_20125">
<feMergeNode in="displacedImage"/>
</feMerge>
</filter>
<filter id="filter21_g_148_20125" x="33.2" y="669.2" width="10.4" height="10.4" filterUnits="userSpaceOnUse" color-interpolation-filters="sRGB">
<feFlood flood-opacity="0" result="BackgroundImageFix"/>
<feBlend mode="normal" in="SourceGraphic" in2="BackgroundImageFix" result="shape"/>
<feTurbulence type="fractalNoise" baseFrequency="0.99900001287460327 0.99900001287460327" numOctaves="3" seed="1765" />
<feDisplacementMap in="shape" scale="1.6000000238418579" xChannelSelector="R" yChannelSelector="G" result="displacedImage" width="100%" height="100%" />
<feMerge result="effect1_texture_148_20125">
<feMergeNode in="displacedImage"/>
</feMerge>
</filter>
<filter id="filter22_g_148_20125" x="91.1667" y="609.567" width="20.8662" height="20.8661" filterUnits="userSpaceOnUse" color-interpolation-filters="sRGB">
<feFlood flood-opacity="0" result="BackgroundImageFix"/>
<feBlend mode="normal" in="SourceGraphic" in2="BackgroundImageFix" result="shape"/>
<feTurbulence type="fractalNoise" baseFrequency="0.99900001287460327 0.99900001287460327" numOctaves="3" seed="1765" />
<feDisplacementMap in="shape" scale="1.6000000238418579" xChannelSelector="R" yChannelSelector="G" result="displacedImage" width="100%" height="100%" />
<feMerge result="effect1_texture_148_20125">
<feMergeNode in="displacedImage"/>
</feMerge>
</filter>
<filter id="filter23_g_148_20125" x="153.507" y="309.507" width="19.3834" height="19.3826" filterUnits="userSpaceOnUse" color-interpolation-filters="sRGB">
<feFlood flood-opacity="0" result="BackgroundImageFix"/>
<feBlend mode="normal" in="SourceGraphic" in2="BackgroundImageFix" result="shape"/>
<feTurbulence type="fractalNoise" baseFrequency="0.99900001287460327 0.99900001287460327" numOctaves="3" seed="1765" />
<feDisplacementMap in="shape" scale="1.6000000238418579" xChannelSelector="R" yChannelSelector="G" result="displacedImage" width="100%" height="100%" />
<feMerge result="effect1_texture_148_20125">
<feMergeNode in="displacedImage"/>
</feMerge>
</filter>
<filter id="filter24_g_148_20125" x="57.8285" y="600.229" width="11.5429" height="11.5429" filterUnits="userSpaceOnUse" color-interpolation-filters="sRGB">
<feFlood flood-opacity="0" result="BackgroundImageFix"/>
<feBlend mode="normal" in="SourceGraphic" in2="BackgroundImageFix" result="shape"/>
<feTurbulence type="fractalNoise" baseFrequency="0.99900001287460327 0.99900001287460327" numOctaves="3" seed="1765" />
<feDisplacementMap in="shape" scale="1.6000000238418579" xChannelSelector="R" yChannelSelector="G" result="displacedImage" width="100%" height="100%" />
<feMerge result="effect1_texture_148_20125">
<feMergeNode in="displacedImage"/>
</feMerge>
</filter>
<filter id="filter25_g_148_20125" x="320.229" y="637.029" width="11.5429" height="11.5429" filterUnits="userSpaceOnUse" color-interpolation-filters="sRGB">
<feFlood flood-opacity="0" result="BackgroundImageFix"/>
<feBlend mode="normal" in="SourceGraphic" in2="BackgroundImageFix" result="shape"/>
<feTurbulence type="fractalNoise" baseFrequency="0.99900001287460327 0.99900001287460327" numOctaves="3" seed="1765" />
<feDisplacementMap in="shape" scale="1.6000000238418579" xChannelSelector="R" yChannelSelector="G" result="displacedImage" width="100%" height="100%" />
<feMerge result="effect1_texture_148_20125">
<feMergeNode in="displacedImage"/>
</feMerge>
</filter>
<filter id="filter26_g_148_20125" x="56.2285" y="404.229" width="11.5429" height="11.5429" filterUnits="userSpaceOnUse" color-interpolation-filters="sRGB">
<feFlood flood-opacity="0" result="BackgroundImageFix"/>
<feBlend mode="normal" in="SourceGraphic" in2="BackgroundImageFix" result="shape"/>
<feTurbulence type="fractalNoise" baseFrequency="0.99900001287460327 0.99900001287460327" numOctaves="3" seed="1765" />
<feDisplacementMap in="shape" scale="1.6000000238418579" xChannelSelector="R" yChannelSelector="G" result="displacedImage" width="100%" height="100%" />
<feMerge result="effect1_texture_148_20125">
<feMergeNode in="displacedImage"/>
</feMerge>
</filter>
<filter id="filter27_g_148_20125" x="313.829" y="490.629" width="10.7428" height="10.7429" filterUnits="userSpaceOnUse" color-interpolation-filters="sRGB">
<feFlood flood-opacity="0" result="BackgroundImageFix"/>
<feBlend mode="normal" in="SourceGraphic" in2="BackgroundImageFix" result="shape"/>
<feTurbulence type="fractalNoise" baseFrequency="0.99900001287460327 0.99900001287460327" numOctaves="3" seed="1765" />
<feDisplacementMap in="shape" scale="1.6000000238418579" xChannelSelector="R" yChannelSelector="G" result="displacedImage" width="100%" height="100%" />
<feMerge result="effect1_texture_148_20125">
<feMergeNode in="displacedImage"/>
</feMerge>
</filter>
<filter id="filter28_g_148_20125" x="202.629" y="691.429" width="13.1429" height="13.1429" filterUnits="userSpaceOnUse" color-interpolation-filters="sRGB">
<feFlood flood-opacity="0" result="BackgroundImageFix"/>
<feBlend mode="normal" in="SourceGraphic" in2="BackgroundImageFix" result="shape"/>
<feTurbulence type="fractalNoise" baseFrequency="0.99900001287460327 0.99900001287460327" numOctaves="3" seed="1765" />
<feDisplacementMap in="shape" scale="1.6000000238418579" xChannelSelector="R" yChannelSelector="G" result="displacedImage" width="100%" height="100%" />
<feMerge result="effect1_texture_148_20125">
<feMergeNode in="displacedImage"/>
</feMerge>
</filter>
<filter id="filter29_g_148_20125" x="195.429" y="307.429" width="11.5429" height="11.5429" filterUnits="userSpaceOnUse" color-interpolation-filters="sRGB">
<feFlood flood-opacity="0" result="BackgroundImageFix"/>
<feBlend mode="normal" in="SourceGraphic" in2="BackgroundImageFix" result="shape"/>
<feTurbulence type="fractalNoise" baseFrequency="0.99900001287460327 0.99900001287460327" numOctaves="3" seed="1765" />
<feDisplacementMap in="shape" scale="1.6000000238418579" xChannelSelector="R" yChannelSelector="G" result="displacedImage" width="100%" height="100%" />
<feMerge result="effect1_texture_148_20125">
<feMergeNode in="displacedImage"/>
</feMerge>
</filter>
<filter id="filter30_g_148_20125" x="313.2" y="699.6" width="10.4" height="10.4" filterUnits="userSpaceOnUse" color-interpolation-filters="sRGB">
<feFlood flood-opacity="0" result="BackgroundImageFix"/>
<feBlend mode="normal" in="SourceGraphic" in2="BackgroundImageFix" result="shape"/>
<feTurbulence type="fractalNoise" baseFrequency="0.99900001287460327 0.99900001287460327" numOctaves="3" seed="1765" />
<feDisplacementMap in="shape" scale="1.6000000238418579" xChannelSelector="R" yChannelSelector="G" result="displacedImage" width="100%" height="100%" />
<feMerge result="effect1_texture_148_20125">
<feMergeNode in="displacedImage"/>
</feMerge>
</filter>
</defs>
</svg>
